<svg width="16" height="31" viewBox="0 0 16 31" fill="none" xmlns="http://www.w3.org/2000/svg">
<path d="M7.29289 30.7071C7.68342 31.0976 8.31658 31.0976 8.70711 30.7071L15.0711 24.3431C15.4616 23.9526 15.4616 23.3195 15.0711 22.9289C14.6805 22.5384 14.0474 22.5384 13.6569 22.9289L8 28.5858L2.34315 22.9289C1.95262 22.5384 1.31946 22.5384 0.928932 22.9289C0.538408 23.3195 0.538408 23.9526 0.928932 24.3431L7.29289 30.7071ZM7 0V1.875H9V0L7 0ZM7 5.625L7 9.375H9V5.625H7ZM7 13.125V16.875H9L9 13.125H7ZM7 20.625L7 24.375H9V20.625H7ZM7 28.125V30H9V28.125H7Z" fill="#747373"/>
</svg>
