<svg width="29" height="23" fill="none" xmlns="http://www.w3.org/2000/svg"><path d="M10.995 22.538a1.052 1.052 0 0 1-.764-.32L.549 12.286a1.105 1.105 0 0 1-.318-.784 1.129 1.129 0 0 1 .318-.783L10.23.786a1.079 1.079 0 0 1 .764-.324 1.056 1.056 0 0 1 .764.324 1.11 1.11 0 0 1 .316.784 1.133 1.133 0 0 1-.316.783l-8.93 9.15 8.93 9.148a1.105 1.105 0 0 1 .318.784 1.13 1.13 0 0 1-.318.783 1.074 1.074 0 0 1-.764.32Z"/><path d="M27.672 12.308H1.328c-.29 0-.57-.114-.776-.316a1.067 1.067 0 0 1 0-1.523c.206-.202.485-.315.776-.315h26.344c.29 0 .57.113.776.315a1.067 1.067 0 0 1 0 1.523 1.108 1.108 0 0 1-.776.316Z"/></svg>