<svg width="30" height="23" fill="none" xmlns="http://www.w3.org/2000/svg"><path d="M19.005 22.538a1.052 1.052 0 0 1-.764-.32 1.107 1.107 0 0 1-.318-.783 1.129 1.129 0 0 1 .318-.784l8.93-9.149-8.93-9.149a1.123 1.123 0 0 1-.316-.783c0-.294.114-.576.316-.784.203-.208.477-.324.764-.324.287 0 .561.116.764.324l9.682 9.933a1.106 1.106 0 0 1 .318.783 1.129 1.129 0 0 1-.318.784l-9.682 9.932a1.073 1.073 0 0 1-.764.32Z"/><path d="M27.44 13.154H1.099c-.291 0-.57-.114-.777-.316a1.066 1.066 0 0 1 0-1.522c.206-.202.486-.316.777-.316H27.44c.29 0 .57.114.776.316.206.201.322.475.322.761 0 .286-.116.56-.322.761a1.109 1.109 0 0 1-.776.316Z"/></svg>