<svg width="20" height="20" fill="none" xmlns="http://www.w3.org/2000/svg"><path d="M0 10C.001 4.477 4.477 0 10 0c5.524 0 10 4.478 10 10 0 5.523-4.476 10-10 10-5.523-.001-9.999-4.477-10-10Zm1.739 0A8.275 8.275 0 0 0 10 18.26 8.272 8.272 0 0 0 18.26 10a8.272 8.272 0 0 0-8.26-8.261 8.275 8.275 0 0 0-8.262 8.26Z" fill="#050103"/><path d="M10 15.213c-1.331 0-2.67-.51-3.686-1.527a5.2 5.2 0 0 1-1.528-3.682 5.2 5.2 0 0 1 1.529-3.69A5.19 5.19 0 0 1 10 4.787a5.199 5.199 0 0 1 3.688 1.527l-1.224 1.224A3.472 3.472 0 0 0 10 6.518a3.47 3.47 0 0 0-2.463 1.02 3.469 3.469 0 0 0-1.02 2.466c.002.892.34 1.777 1.022 2.46A3.467 3.467 0 0 0 10 13.481a3.467 3.467 0 0 0 2.463-1.02l.002.001 1.222 1.223a5.2 5.2 0 0 1-3.684 1.527H10Z" fill="#050103"/></svg>