<svg width="91" height="20" fill="none" xmlns="http://www.w3.org/2000/svg"><path d="M10.21 11.758H6.406l-2.98-5.035v5.042H0V0h3.426v4.706L6.235 0h3.804L6.47 5.714l3.74 6.044Z" fill="#000"/><path d="M19.488 3.53h3.288l-2.46 8.235h-3.161L16.1 7.895l-1.054 3.87h-3.162l-2.46-8.236h3.29l.976 4.564 1.216-4.564h2.361l1.212 4.564 1.009-4.564ZM23.954 11.765V3.529h3.142v8.236h-3.142ZM37.699 11.765h-3.542L32.79 9.919l-1.378 1.842h-3.53l3.15-4.212-3.014-4.02h3.53l1.242 1.664 1.238-1.664h3.53l-2.995 4.02 3.136 4.216ZM57.041 3.14a3.987 3.987 0 0 1 1.676.309 3.86 3.86 0 0 1 1.375.976 4.378 4.378 0 0 1 1.167 3.051v.396h-7.756c.07.861.484 1.663 1.153 2.237a4.058 4.058 0 0 0 4.272.436 2.86 2.86 0 0 0 1.16-1.089l.751.43c-.36.583-.88 1.059-1.502 1.374a4.786 4.786 0 0 1-2.221.502 4.519 4.519 0 0 1-1.744-.285 4.398 4.398 0 0 1-1.485-.928 4.16 4.16 0 0 1-.965-1.42 4.04 4.04 0 0 1-.298-1.673 4.108 4.108 0 0 1 .296-1.66 4.224 4.224 0 0 1 2.397-2.358 4.408 4.408 0 0 1 1.724-.299Zm0 .79a3.514 3.514 0 0 0-2.428.873 3.39 3.39 0 0 0-1.11 2.261h6.87a3.345 3.345 0 0 0-1.086-2.303 3.305 3.305 0 0 0-2.246-.831ZM70.624 0h.846v11.58h-.846V9.664a3.898 3.898 0 0 1-1.482 1.537c-.652.379-1.4.573-2.159.562a4.514 4.514 0 0 1-1.73-.293 4.434 4.434 0 0 1-1.476-.927 4.317 4.317 0 0 1-.99-1.416 4.233 4.233 0 0 1 0-3.362c.23-.531.567-1.013.99-1.415a4.433 4.433 0 0 1 1.477-.928c.55-.21 1.138-.309 1.73-.293a4.177 4.177 0 0 1 2.158.562c.631.367 1.145.9 1.482 1.537V0Zm-6.138 9.943a3.66 3.66 0 0 0 2.548 1.027 3.66 3.66 0 0 0 2.55-1.027 3.532 3.532 0 0 0 1.04-2.497c0-.933-.374-1.83-1.04-2.497a3.66 3.66 0 0 0-2.55-1.027 3.66 3.66 0 0 0-2.548 1.027 3.532 3.532 0 0 0-1.041 2.497c0 .933.373 1.83 1.04 2.497ZM74.22 11.765V3.529h.784v8.236h-.785ZM50.563 4.398a3.18 3.18 0 0 0-2.401-.861c-1.06 0-1.49.15-1.956.446a2.507 2.507 0 0 0-.861.945 2.542 2.542 0 0 0-.865-.945c-.466-.295-.918-.446-1.917-.446-1.12 0-1.875.288-2.44.86a3.292 3.292 0 0 0-.847 2.411v5.349h.861V9.054c0-.756-.039-1.525 0-2.28a2.802 2.802 0 0 1 .452-1.438c.388-.5.957-.83 1.585-.917.43-.085.876-.046 1.285.112.375.168.693.44.915.784a3.63 3.63 0 0 1 .543 2.01v4.832h.869V9.346c0-1.093-.141-2.292.201-3.339a2.377 2.377 0 0 1 1.434-1.481 2.4 2.4 0 0 1 2.058.184 2.59 2.59 0 0 1 1.06 1.817c.087.92.105 1.846.052 2.77v2.846h.847V6.808a3.284 3.284 0 0 0-.875-2.41Z" fill="#000"/><path fill-rule="evenodd" clip-rule="evenodd" d="M85.215 9.883c-.814 1.136-2.181 1.882-3.731 1.882-2.494 0-4.516-1.932-4.516-4.314s2.022-4.314 4.516-4.314S86 5.07 86 7.451v4.314h-.785V9.883Zm0-2.432c0 1.95-1.67 3.53-3.731 3.53-2.06 0-3.73-1.58-3.73-3.53 0-1.95 1.67-3.53 3.73-3.53s3.73 1.58 3.73 3.53Z" fill="#000"/><path d="M2.568 15.294H4.03c.881 0 1.325.329 1.325.99a.777.777 0 0 1-.144.527.828.828 0 0 1-.46.314c.233.039.446.153.604.324.144.18.218.403.21.63 0 .713-.464 1.065-1.39 1.065H2.584l-.015-3.85Zm.444.404v1.254h1.042c.575 0 .862-.212.862-.63a.59.59 0 0 0-.18-.47c-.197-.137-.44-.2-.682-.173l-1.042.019Zm0 1.639v1.408h1.227c.594 0 .892-.235.892-.704a.627.627 0 0 0-.225-.517 1 1 0 0 0-.667-.187H3.012ZM6.859 17.548h1.007a1.156 1.156 0 0 1 .902.297c.175.193.27.447.266.71 0 .124-.018.248-.055.367a.918.918 0 0 1-.181.317.82.82 0 0 1-.363.245 1.57 1.57 0 0 1-.569.087H6.421v-2.994h.433l.005.971Zm0 1.62h1.057c.469 0 .705-.205.705-.613 0-.41-.236-.598-.705-.598H6.86v1.21Zm2.986.403h-.428v-2.994h.428v2.994ZM15.838 19.572h-.428v-2.264l-1.07 1.252-1.075-1.252v2.264h-.423v-2.994h.253l1.245 1.45 1.24-1.45h.258v2.994ZM18.242 16.58c.297-.007.59.073.84.228.232.153.412.37.515.622.05.126.08.259.088.393a.803.803 0 0 1-.036.354h-2.5a.897.897 0 0 0 .075.4c.055.127.139.24.245.332.227.188.52.288.82.278.368 0 .728-.109 1.03-.313l.237.254a2.06 2.06 0 0 1-1.278.443c-.21.009-.42-.024-.617-.096a1.554 1.554 0 0 1-.527-.322 1.421 1.421 0 0 1-.337-.493 1.378 1.378 0 0 1-.101-.583 1.465 1.465 0 0 1 1.546-1.498Zm0 .392a1.065 1.065 0 0 0-.742.27.9.9 0 0 0-.325.652h2.061a.685.685 0 0 0-.067-.334.953.953 0 0 0-.36-.428 1.057 1.057 0 0 0-.567-.16ZM22.687 19.572h-.394v-1.175c-.098.17-.237.309-.403.399a.935.935 0 0 1-.534.112c-.825 0-1.237-.501-1.237-1.503v-.828h.398v.808c-.022.296.049.592.202.838a.83.83 0 0 0 .317.224.77.77 0 0 0 .376.047.753.753 0 0 0 .37-.053.816.816 0 0 0 .31-.228c.143-.207.216-.462.206-.72v-.915h.389v2.994ZM25.04 16.991v2.581h-.425v-2.58h-1.072v-.415h2.568v.414H25.04ZM29.536 19.542h-.308v-.658c-.119.209-.293.38-.504.498a1.33 1.33 0 0 1-.707.19 1.423 1.423 0 0 1-1.054-.434 1.485 1.485 0 0 1-.423-1.06 1.485 1.485 0 0 1 .904-1.391c.181-.076.377-.113.573-.11.246-.002.487.062.699.185.211.123.385.3.502.513v-.657h.308l.01 2.924Zm-2.26-.683a1.102 1.102 0 0 0 1.513 0 1.04 1.04 0 0 0 .318-.777 1.046 1.046 0 0 0-.318-.777 1.091 1.091 0 0 0-1.513 0 1.055 1.055 0 0 0-.318.777 1.029 1.029 0 0 0 .318.777ZM31.94 16.58c.297-.008.59.072.84.228.232.153.412.37.515.622.05.126.08.259.088.393a.902.902 0 0 1-.031.354h-2.505a.899.899 0 0 0 .32.732c.227.188.52.288.819.278.369.002.73-.108 1.03-.313l.238.254a2.05 2.05 0 0 1-1.278.443c-.21.009-.42-.024-.617-.096a1.555 1.555 0 0 1-.528-.322 1.421 1.421 0 0 1-.337-.493 1.38 1.38 0 0 1-.1-.583 1.465 1.465 0 0 1 1.546-1.498Zm0 .392a1.065 1.065 0 0 0-.743.27.901.901 0 0 0-.325.652h2.062a.685.685 0 0 0-.067-.334.923.923 0 0 0-.36-.428 1.057 1.057 0 0 0-.567-.16ZM35.315 16.991v2.581h-.43v-2.58h-1.069v-.415h2.569v.414h-1.07ZM38.364 16.58c.297-.007.59.073.84.228.232.153.411.37.515.622.05.126.08.259.087.394a.996.996 0 0 1-.036.353h-2.493a.9.9 0 0 0 .32.732c.225.188.516.287.813.279.369 0 .729-.11 1.03-.314l.237.254a2.063 2.063 0 0 1-1.282.443 1.595 1.595 0 0 1-.614-.096 1.553 1.553 0 0 1-.524-.322 1.426 1.426 0 0 1-.34-.493 1.387 1.387 0 0 1-.103-.582 1.466 1.466 0 0 1 .94-1.4c.194-.075.402-.108.61-.099Zm0 .392a1.077 1.077 0 0 0-.747.27.943.943 0 0 0-.32.651h2.061a.754.754 0 0 0-.067-.333.954.954 0 0 0-.36-.428 1.056 1.056 0 0 0-.567-.16ZM41.093 18.717 40.561 20h-.324l.372-1.283h.484ZM47.086 19.572h-.427v-2.264l-1.074 1.252-1.068-1.252v2.264h-.427v-2.994h.258l1.237 1.45 1.243-1.45h.258v2.994ZM48.38 17.548h1.007a1.154 1.154 0 0 1 .902.297c.175.193.271.447.267.71.003.125-.016.25-.056.368a.989.989 0 0 1-.176.316.88.88 0 0 1-.362.246 1.62 1.62 0 0 1-.575.086h-1.445v-2.994h.433l.005.971Zm0 1.62h1.053c.468 0 .705-.204.705-.613 0-.409-.237-.598-.705-.598H48.38v1.21Zm2.987.403h-.433v-2.994h.433v2.994ZM54.363 16.582h1.507c.25-.024.5.052.697.214a.708.708 0 0 1 .23.56.635.635 0 0 1-.101.403.596.596 0 0 1-.325.244c.162.025.31.113.414.246a.7.7 0 0 1 .145.473.812.812 0 0 1-.255.636c-.235.161-.515.235-.795.21h-1.517v-2.986Zm.412.372v.901h1.07c.349 0 .526-.147.526-.448 0-.3-.177-.453-.53-.453h-1.066Zm0 2.246h1.114c.408 0 .614-.168.614-.509 0-.341-.206-.51-.614-.51h-1.114v1.02ZM58.858 16.578a1.499 1.499 0 0 1 1.059 2.555c-.281.281-.662.439-1.06.439a1.448 1.448 0 0 1-1.063-.434 1.463 1.463 0 0 1-.434-1.063 1.497 1.497 0 0 1 1.498-1.497Zm0 .409a1.037 1.037 0 0 0-.754.314 1.058 1.058 0 0 0-.315.779 1.042 1.042 0 0 0 .315.778.999.999 0 0 0 .754.31 1.065 1.065 0 0 0 1.078-1.088 1.057 1.057 0 0 0-.314-.779 1.04 1.04 0 0 0-.774-.314h.01ZM63.78 19.572h-.404v-2.58h-1.75v2.58h-.414v-2.994h2.559l.01 2.994ZM66.124 17.252l-1.037 2.32h-.45l1.366-2.994h.258l1.372 2.994h-.466l-1.043-2.32ZM69.566 16.578a1.512 1.512 0 0 1 1.241.67 1.493 1.493 0 0 1-.955 2.294 1.513 1.513 0 0 1-1.355-.399 1.46 1.46 0 0 1-.436-1.063c0-.397.158-.778.44-1.059.283-.28.666-.439 1.065-.439v-.005Zm0 .409a1.033 1.033 0 0 0-.758.314 1.11 1.11 0 0 0 0 1.558 1.092 1.092 0 0 0 1.505 0 1.041 1.041 0 0 0 .317-.78 1.053 1.053 0 0 0-.316-.778 1.043 1.043 0 0 0-.753-.314h.005ZM76.622 20h-.416v-.621h-4.293v-2.802h.416v2.42h1.469v-2.42h.42v2.42h1.469v-2.42h.416v2.42h.519V20ZM80.046 19.542h-.307v-.658c-.118.21-.293.382-.505.498a1.33 1.33 0 0 1-.706.19 1.423 1.423 0 0 1-1.054-.434 1.485 1.485 0 0 1-.424-1.06 1.485 1.485 0 0 1 .904-1.391c.181-.076.377-.113.574-.11.245-.002.487.062.698.185.212.123.385.3.502.513v-.657h.308l.01 2.924Zm-2.26-.683a1.102 1.102 0 0 0 1.514 0 1.042 1.042 0 0 0 .318-.777 1.046 1.046 0 0 0-.318-.777 1.091 1.091 0 0 0-1.513 0 1.055 1.055 0 0 0-.318.777 1.029 1.029 0 0 0 .318.777ZM82.453 16.58c.296-.008.589.072.838.228.234.152.413.369.515.622.05.126.08.259.087.394a.902.902 0 0 1-.03.353h-2.501a.899.899 0 0 0 .319.732c.227.188.519.288.818.278.368 0 .727-.11 1.029-.313l.231.254c-.359.287-.81.443-1.276.443-.21.009-.419-.024-.615-.095a1.55 1.55 0 0 1-.527-.323 1.42 1.42 0 0 1-.336-.493 1.381 1.381 0 0 1-.101-.582 1.466 1.466 0 0 1 .936-1.401 1.5 1.5 0 0 1 .612-.098Zm0 .393a1.062 1.062 0 0 0-.742.268.93.93 0 0 0-.324.652h2.058a.686.686 0 0 0-.066-.333.923.923 0 0 0-.36-.428 1.054 1.054 0 0 0-.567-.16ZM87.751 19.572h-.423v-2.264l-1.075 1.252-1.075-1.252v2.264h-.423v-2.994h.254l1.244 1.45 1.244-1.45h.254v2.994ZM89.553 15.294l-.562 1.284h-.384l.379-1.284h.567Zm.767 0-.562 1.284h-.384l.378-1.284h.568ZM0 16.578l.562-1.284h.383l-.378 1.284H0Zm.767 0 .562-1.284h.383l-.378 1.284H.767Z" fill="#000"/></svg>