<svg width="232" height="51" fill="none" xmlns="http://www.w3.org/2000/svg"><path d="M26.119 29.982h-9.732l-7.623-12.84V30H0V0h8.764v12L15.95 0h9.731l-9.129 14.571 9.568 15.411Z" fill="#000"/><path d="M49.852 9h8.413l-6.292 21h-8.09l-2.696-9.87L38.491 30H30.4L24.11 9h8.413l2.498 11.637L38.131 9h6.04l3.101 11.637L49.852 9ZM61.279 30V9h8.036v21H61.28ZM96.438 30h-9.06l-3.497-4.706-3.525 4.697h-9.032l8.06-10.74L71.672 9h9.032l3.176 4.242L87.048 9h9.032l-7.664 10.25L96.438 30ZM145.919 8.005a10.23 10.23 0 0 1 4.288.79 9.875 9.875 0 0 1 3.516 2.488c1.977 2.14 3.043 4.919 2.987 7.782v1.008h-19.842c.18 2.197 1.237 4.242 2.95 5.705a10.284 10.284 0 0 0 5.292 2.117c1.94.198 3.898-.151 5.636-1.004a7.308 7.308 0 0 0 2.968-2.778l1.922 1.095a9.59 9.59 0 0 1-3.843 3.506 12.273 12.273 0 0 1-5.682 1.28 11.602 11.602 0 0 1-4.462-.728 11.26 11.26 0 0 1-3.798-2.366 10.607 10.607 0 0 1-2.469-3.62 10.28 10.28 0 0 1-.764-4.268 10.462 10.462 0 0 1 .759-4.23 10.769 10.769 0 0 1 2.41-3.613 10.962 10.962 0 0 1 3.722-2.401c1.4-.545 2.901-.804 4.41-.763Zm0 2.016a9.007 9.007 0 0 0-6.21 2.226c-1.667 1.51-2.681 3.569-2.841 5.766h17.575c-.106-2.228-1.1-4.331-2.778-5.871a8.469 8.469 0 0 0-5.746-2.121ZM180.665 0h2.166v29.53h-2.166v-4.887a9.95 9.95 0 0 1-3.79 3.92 10.711 10.711 0 0 1-5.523 1.433 11.58 11.58 0 0 1-4.424-.747 11.34 11.34 0 0 1-3.776-2.365 11 11 0 0 1-2.534-3.61 10.755 10.755 0 0 1 0-8.572 11 11 0 0 1 2.534-3.61 11.339 11.339 0 0 1 3.776-2.365 11.58 11.58 0 0 1 4.424-.747 10.71 10.71 0 0 1 5.523 1.433 9.898 9.898 0 0 1 3.79 3.92V0Zm-15.702 25.355a9.378 9.378 0 0 0 6.52 2.619 9.378 9.378 0 0 0 6.52-2.619 8.992 8.992 0 0 0 2.663-6.367c0-2.38-.956-4.665-2.663-6.367a9.378 9.378 0 0 0-6.52-2.619 9.378 9.378 0 0 0-6.52 2.618 8.991 8.991 0 0 0-2.662 6.368c0 2.38.955 4.665 2.662 6.367ZM189.863 30V9h2.009v21h-2.009ZM129.347 11.214a8.148 8.148 0 0 0-2.839-1.737 8.189 8.189 0 0 0-3.303-.459c-2.709 0-3.811.386-5.003 1.138a6.391 6.391 0 0 0-2.204 2.41 6.488 6.488 0 0 0-2.213-2.41c-1.192-.752-2.348-1.138-4.904-1.138-2.863 0-4.796.735-6.241 2.196a8.393 8.393 0 0 0-1.708 2.857 8.33 8.33 0 0 0-.459 3.29V31h2.203v-7.913c0-1.926-.099-3.889 0-5.816a7.129 7.129 0 0 1 1.156-3.665 6.226 6.226 0 0 1 4.055-2.338 5.951 5.951 0 0 1 3.288.286 5.41 5.41 0 0 1 2.339 1.999 9.235 9.235 0 0 1 1.391 5.125V31h2.222v-7.169c0-2.787-.361-5.843.515-8.513a6.048 6.048 0 0 1 1.401-2.302 6.114 6.114 0 0 1 2.266-1.476 6.157 6.157 0 0 1 5.265.471 6.62 6.62 0 0 1 1.85 2.032 6.54 6.54 0 0 1 .859 2.601c.226 2.347.272 4.708.136 7.062v7.258h2.168V17.361a8.364 8.364 0 0 0-2.24-6.147Z" fill="#000"/><path fill-rule="evenodd" clip-rule="evenodd" d="M217.991 25.2c-2.081 2.898-5.579 4.8-9.544 4.8-6.38 0-11.552-4.925-11.552-11s5.172-11 11.552-11C214.828 8 220 12.925 220 19v11h-2.009v-4.8Zm0-6.2c0 4.97-4.273 9-9.544 9-5.27 0-9.543-4.03-9.543-9s4.273-9 9.543-9c5.271 0 9.544 4.03 9.544 9Z" fill="#000"/><path d="M6.57 39h3.738c2.256 0 3.39.838 3.39 2.526.044.475-.087.95-.369 1.34a2.119 2.119 0 0 1-1.176.804c.598.098 1.143.39 1.545.826.368.458.557 1.026.536 1.604 0 1.82-1.184 2.718-3.552 2.718H6.608L6.57 39Zm1.134 1.03v3.197h2.667c1.47 0 2.205-.54 2.205-1.605a1.5 1.5 0 0 0-.097-.646 1.55 1.55 0 0 0-.364-.551 2.569 2.569 0 0 0-1.744-.443l-2.667.048Zm0 4.178V47.8h3.14c1.52 0 2.28-.598 2.28-1.796a1.596 1.596 0 0 0-.13-.72c-.1-.229-.25-.432-.443-.597a2.565 2.565 0 0 0-1.707-.479h-3.14ZM17.546 44.748h2.577a2.97 2.97 0 0 1 2.306.756c.45.492.694 1.14.683 1.81a3.11 3.11 0 0 1-.142.938 2.34 2.34 0 0 1-.464.808c-.248.29-.568.505-.928.625a4.028 4.028 0 0 1-1.455.222h-3.698v-7.634h1.108l.013 2.475Zm0 4.13h2.706c1.198 0 1.803-.521 1.803-1.564 0-1.042-.605-1.524-1.803-1.524h-2.706v3.088Zm7.64 1.029H24.09v-7.634h1.095v7.634ZM40.516 49.91H39.42v-5.774l-2.738 3.193-2.75-3.193v5.773h-1.082v-7.636h.65l3.182 3.7 3.17-3.7h.663v7.636ZM46.665 42.277a3.92 3.92 0 0 1 2.149.584 3.48 3.48 0 0 1 1.318 1.586c.128.322.204.66.224 1.003.037.303.006.61-.092.901H43.87c-.016.35.049.7.19 1.022.141.323.356.61.627.844.582.48 1.33.734 2.096.71.944.002 1.864-.277 2.637-.799l.606.648a5.278 5.278 0 0 1-3.27 1.13 4.095 4.095 0 0 1-1.577-.243 3.98 3.98 0 0 1-1.349-.824 3.62 3.62 0 0 1-.862-1.256 3.508 3.508 0 0 1-.259-1.486 3.73 3.73 0 0 1 1.082-2.716c.369-.371.816-.662 1.312-.852a3.86 3.86 0 0 1 1.562-.252Zm0 1.003a2.727 2.727 0 0 0-1.02.16 2.654 2.654 0 0 0-.879.525c-.247.21-.448.464-.59.75a2.29 2.29 0 0 0-.24.913h5.273a1.745 1.745 0 0 0-.171-.85 2.433 2.433 0 0 0-.923-1.092 2.712 2.712 0 0 0-1.45-.406ZM58.036 49.91H57.03v-2.998A2.669 2.669 0 0 1 56 47.929c-.424.23-.896.329-1.368.286-2.11 0-3.165-1.277-3.165-3.831v-2.111h1.02v2.059c-.058.755.124 1.51.515 2.137.227.255.505.45.813.57.308.12.637.16.961.12.321.035.645-.011.947-.136.302-.124.573-.323.792-.58a3.041 3.041 0 0 0 .527-1.838v-2.332h.995v7.636ZM64.054 43.328v6.581h-1.085v-6.58h-2.743v-1.056h6.57v1.055h-2.742ZM75.557 49.832h-.787v-1.677a3.38 3.38 0 0 1-1.29 1.27 3.408 3.408 0 0 1-1.807.483 3.648 3.648 0 0 1-1.468-.271 3.603 3.603 0 0 1-1.23-.834 3.78 3.78 0 0 1-1.083-2.706 3.78 3.78 0 0 1 1.084-2.706 3.615 3.615 0 0 1 1.228-.84 3.662 3.662 0 0 1 1.469-.278 3.5 3.5 0 0 1 1.786.47 3.43 3.43 0 0 1 1.285 1.309v-1.677h.787l.026 7.457Zm-5.781-1.74c.521.49 1.214.764 1.936.764.72 0 1.414-.274 1.935-.764.268-.257.478-.566.618-.907.14-.341.206-.708.195-1.075a2.657 2.657 0 0 0-.813-1.982 2.797 2.797 0 0 0-1.936-.775c-.723 0-1.417.278-1.935.775a2.693 2.693 0 0 0-.615.908c-.14.34-.207.706-.198 1.074a2.62 2.62 0 0 0 .813 1.982ZM81.706 42.277a3.894 3.894 0 0 1 2.15.584 3.48 3.48 0 0 1 1.318 1.586c.127.322.203.66.224 1.003.034.303.007.608-.08.901h-6.407c-.017.35.049.7.19 1.022.141.323.356.61.627.844.582.48 1.33.734 2.097.71a4.672 4.672 0 0 0 2.637-.799l.606.648a5.252 5.252 0 0 1-3.27 1.13 4.095 4.095 0 0 1-1.578-.243 3.98 3.98 0 0 1-1.349-.824 3.62 3.62 0 0 1-.862-1.256 3.51 3.51 0 0 1-.259-1.486 3.73 3.73 0 0 1 1.082-2.716c.369-.371.816-.662 1.312-.852a3.862 3.862 0 0 1 1.562-.252Zm0 1.003a2.727 2.727 0 0 0-1.02.16 2.653 2.653 0 0 0-.879.525c-.247.21-.448.464-.59.75a2.29 2.29 0 0 0-.24.913h5.274a1.745 1.745 0 0 0-.172-.85 2.356 2.356 0 0 0-.923-1.092 2.712 2.712 0 0 0-1.45-.406ZM90.342 43.328v6.581h-1.1v-6.58h-2.735v-1.056h6.57v1.055h-2.735ZM98.14 42.277a3.915 3.915 0 0 1 2.148.584c.595.39 1.054.942 1.318 1.587.127.32.203.659.224 1.002.023.304-.008.608-.093.901h-6.376c-.016.35.049.7.19 1.022.141.323.355.611.626.845.577.48 1.32.733 2.082.71.943 0 1.863-.279 2.635-.8l.606.648a5.285 5.285 0 0 1-3.28 1.13 4.09 4.09 0 0 1-1.57-.245 3.975 3.975 0 0 1-1.342-.822 3.638 3.638 0 0 1-.868-1.255 3.525 3.525 0 0 1-.265-1.486 3.732 3.732 0 0 1 1.093-2.717 3.74 3.74 0 0 1 1.312-.852 3.856 3.856 0 0 1 1.56-.252Zm0 1.003a2.761 2.761 0 0 0-1.91.685c-.243.212-.44.468-.58.753-.14.285-.22.595-.237.91h5.27a1.908 1.908 0 0 0-.171-.85 2.434 2.434 0 0 0-.922-1.092 2.71 2.71 0 0 0-1.45-.406ZM105.122 47.727 103.762 51h-.83l.953-3.273h1.237ZM120.453 49.91h-1.093v-5.774l-2.746 3.193-2.733-3.193v5.773h-1.093v-7.636h.661l3.165 3.7 3.178-3.7h.661v7.636ZM123.764 44.748h2.576a2.954 2.954 0 0 1 2.306.756c.449.492.694 1.14.683 1.81.007.32-.041.637-.142.939-.099.295-.252.569-.451.807a2.248 2.248 0 0 1-.927.626c-.473.161-.97.236-1.469.221h-3.697v-7.634h1.108l.013 2.475Zm0 4.13h2.692c1.198 0 1.804-.521 1.804-1.563 0-1.043-.606-1.525-1.804-1.525h-2.692v3.088Zm7.639 1.03h-1.108v-7.635h1.108v7.634ZM139.068 42.284h3.855c.64-.061 1.278.134 1.783.545.195.178.349.398.451.646.102.247.149.515.139.783.031.364-.061.727-.26 1.028-.199.301-.494.521-.833.622a1.67 1.67 0 0 1 1.061.628c.265.339.397.769.371 1.204.018.304-.032.609-.145.89a2 2 0 0 1-.508.734 3.11 3.11 0 0 1-2.034.533h-3.88v-7.613Zm1.055.948v2.3h2.737c.891 0 1.343-.377 1.343-1.144 0-.766-.452-1.156-1.356-1.156h-2.724Zm0 5.73h2.85c1.042 0 1.569-.43 1.569-1.3 0-.87-.527-1.3-1.569-1.3h-2.85v2.6ZM150.566 42.273a3.84 3.84 0 0 1 2.71 1.118 3.809 3.809 0 0 1 0 5.4 3.84 3.84 0 0 1-2.71 1.117 3.715 3.715 0 0 1-2.721-1.107 3.732 3.732 0 0 1-1.111-2.71c0-1.013.404-1.984 1.122-2.7a3.841 3.841 0 0 1 2.71-1.118Zm0 1.043a2.65 2.65 0 0 0-1.929.802 2.69 2.69 0 0 0-.805 1.985 2.664 2.664 0 0 0 .805 1.986 2.563 2.563 0 0 0 1.929.788 2.729 2.729 0 0 0 1.972-.802 2.698 2.698 0 0 0 .787-1.972 2.69 2.69 0 0 0-.804-1.985 2.665 2.665 0 0 0-1.98-.802h.025ZM163.159 49.91h-1.036v-6.582h-4.474v6.581h-1.06v-7.636h6.545l.025 7.636ZM169.155 43.993l-2.654 5.916h-1.152l3.496-7.636h.66l3.509 7.636h-1.191l-2.668-5.916ZM177.959 42.273a3.87 3.87 0 0 1 1.803.463 3.83 3.83 0 0 1 1.373 1.248 3.79 3.79 0 0 1 .346 3.569 3.822 3.822 0 0 1-1.108 1.484 3.87 3.87 0 0 1-3.542.715 3.856 3.856 0 0 1-1.605-.937 3.728 3.728 0 0 1-1.117-2.711c0-1.013.406-1.984 1.128-2.7a3.865 3.865 0 0 1 2.722-1.119v-.012Zm0 1.043a2.652 2.652 0 0 0-1.937.802 2.825 2.825 0 0 0 0 3.971 2.799 2.799 0 0 0 3.85 0 2.656 2.656 0 0 0 .808-1.985 2.679 2.679 0 0 0-.808-1.986 2.675 2.675 0 0 0-1.925-.802h.012ZM196.009 51h-1.064v-1.584h-10.981v-7.143h1.064v6.167h3.757v-6.167h1.077v6.167h3.756v-6.167h1.064v6.167h1.327V51ZM204.77 49.832h-.788v-1.677a3.292 3.292 0 0 1-1.29 1.27 3.408 3.408 0 0 1-1.806.483 3.653 3.653 0 0 1-1.468-.271 3.605 3.605 0 0 1-1.229-.834 3.778 3.778 0 0 1-1.084-2.706 3.778 3.778 0 0 1 1.084-2.706 3.612 3.612 0 0 1 1.228-.84 3.666 3.666 0 0 1 1.469-.278 3.502 3.502 0 0 1 1.786.47c.541.313.985.766 1.285 1.309v-1.677h.787l.026 7.457Zm-5.781-1.74c.521.49 1.214.764 1.935.764.721 0 1.415-.274 1.936-.764a2.623 2.623 0 0 0 .813-1.982 2.67 2.67 0 0 0-.813-1.982 2.799 2.799 0 0 0-1.936-.775c-.723 0-1.417.278-1.935.775a2.69 2.69 0 0 0-.615.908c-.14.34-.207.706-.198 1.074a2.623 2.623 0 0 0 .813 1.982ZM210.925 42.277a3.883 3.883 0 0 1 2.146.584c.597.386 1.056.94 1.316 1.587.128.32.203.66.224 1.002.033.303.007.609-.079.901h-6.397c-.016.35.049.7.19 1.022.141.323.355.611.626.844.581.48 1.327.734 2.093.711a4.739 4.739 0 0 0 2.632-.8l.592.648a5.236 5.236 0 0 1-3.264 1.13 4.08 4.08 0 0 1-1.575-.243 3.973 3.973 0 0 1-1.347-.824 3.624 3.624 0 0 1-.861-1.256 3.518 3.518 0 0 1-.258-1.485 3.734 3.734 0 0 1 1.079-2.716c.37-.373.82-.665 1.317-.855a3.849 3.849 0 0 1 1.566-.25Zm0 1.003a2.726 2.726 0 0 0-1.019.16 2.645 2.645 0 0 0-.876.526c-.247.209-.448.464-.59.75a2.296 2.296 0 0 0-.24.912h5.265a1.74 1.74 0 0 0-.171-.85 2.353 2.353 0 0 0-.921-1.092 2.705 2.705 0 0 0-1.448-.406ZM224.48 49.91h-1.082v-5.774l-2.751 3.193-2.75-3.193v5.773h-1.082v-7.636h.649l3.183 3.7 3.184-3.7h.649v7.636ZM229.089 39l-1.438 3.273h-.981l.967-3.273h1.452Zm1.961 0-1.437 3.273h-.981l.967-3.273h1.451ZM0 42.273 1.438 39h.98l-.967 3.273H0Zm1.962 0L3.399 39h.981l-.967 3.273H1.962Z" fill="#000"/></svg>