<svg width="30" height="30" fill="none" xmlns="http://www.w3.org/2000/svg"><path d="M15 30c8.284 0 15-6.716 15-15 0-8.284-6.716-15-15-15C6.716 0 0 6.716 0 15c0 8.284 6.716 15 15 15Z" fill="url(#a)"/><path d="M12 22c-.486 0-.403-.185-.571-.653L10 16.594 21 10" fill="#C8DAEA"/><path d="M12 22c.41 0 .59-.18.818-.392L15 19.574 12.278 18" fill="#A9C9DD"/><path d="m12.268 18.24 5.93 4.57c.676.389 1.165.187 1.333-.656l2.414-11.866c.247-1.033-.378-1.502-1.025-1.195l-14.173 5.7c-.967.406-.962.969-.176 1.22l3.637 1.184 8.42-5.542c.397-.252.762-.116.463.161" fill="url(#b)"/><defs><linearGradient id="a" x1="11.252" y1="1.251" x2="3.752" y2="18.75" gradientUnits="userSpaceOnUse"><stop stop-color="#37AEE2"/><stop offset="1" stop-color="#1E96C8"/></linearGradient><linearGradient id="b" x1="12.873" y1="16.06" x2="14.571" y2="21.324" gradientUnits="userSpaceOnUse"><stop stop-color="#EFF7FC"/><stop offset="1" stop-color="#fff"/></linearGradient></defs></svg>