<svg width="30" height="30" fill="none" xmlns="http://www.w3.org/2000/svg"><path d="M15 30C6.717 30 0 23.283 0 15 0 6.717 6.717 0 15 0c8.283 0 15 6.717 15 15 0 8.283-6.717 15-15 15Z" fill="#25D366"/><path fill-rule="evenodd" clip-rule="evenodd" d="M22.017 8.016a9.806 9.806 0 0 0-6.975-2.892c-5.433 0-9.858 4.422-9.858 9.858 0 1.737.453 3.435 1.317 4.929L5.103 25.02l5.226-1.371c1.44.786 3.06 1.2 4.71 1.2h.003c5.433 0 9.855-4.422 9.858-9.858a9.783 9.783 0 0 0-2.883-6.975Zm-6.972 15.168h-.003a8.169 8.169 0 0 1-4.17-1.143l-.3-.177-3.102.813.828-3.024-.195-.309a8.19 8.19 0 0 1-1.254-4.362c.003-4.518 3.678-8.193 8.199-8.193 2.19 0 4.245.855 5.793 2.403a8.132 8.132 0 0 1 2.397 5.796c0 4.521-3.678 8.196-8.193 8.196Zm4.494-6.138c-.246-.123-1.458-.72-1.683-.801-.225-.081-.39-.123-.555.123-.165.246-.636.801-.78.966-.144.165-.288.186-.534.063-.246-.123-1.041-.384-1.98-1.224-.732-.654-1.227-1.461-1.371-1.707-.144-.246-.015-.381.108-.504.111-.111.246-.288.369-.432.123-.144.165-.246.246-.411.081-.165.042-.309-.021-.432s-.555-1.335-.759-1.83c-.201-.48-.402-.414-.555-.423a11.654 11.654 0 0 0-.471-.009.906.906 0 0 0-.657.309c-.225.246-.861.843-.861 2.055 0 1.212.882 2.385 1.005 2.547.123.165 1.737 2.652 4.209 3.72.588.255 1.047.405 1.404.519.591.189 1.128.162 1.551.099.474-.072 1.458-.597 1.662-1.17.204-.576.204-1.068.144-1.17-.06-.102-.225-.162-.471-.288Z" fill="#fff"/></svg>