<svg width="120" height="120" fill="none" xmlns="http://www.w3.org/2000/svg"><path d="m15.08 50.833 1.68-.288-.288-1.68a1.704 1.704 0 0 1 1.391-1.966l4.234-.726a15.335 15.335 0 1 1 26.356-8.826c5.59-2.99 11-6.306 16.204-9.928l-.394-2.302a1.705 1.705 0 0 1 1.391-1.967L72.372 22a1.704 1.704 0 0 1 1.967 1.392l8.634 50.38a1.704 1.704 0 0 1-1.391 1.968l-6.718 1.151a1.704 1.704 0 0 1-1.967-1.391l-.395-2.302c-4.689-1.302-24.713-6.513-38.847-4.76l1.025 5.98.408-.576c.92-1.3 2.465-2.218 4.243-2.523l.013-.002c1.778-.302 3.541.05 4.836.967l15.737 11.132a6.532 6.532 0 0 1 1.56 9.093L50.75 107.67l1.032 6.022a1.704 1.704 0 0 1-1.392 1.967l-25.19 4.318a1.706 1.706 0 0 1-1.967-1.392l-1.152-6.718a1.7 1.7 0 0 1 1.392-1.967l-4.317-25.19a1.705 1.705 0 0 1 .288-1.272l1.392-1.967a6.259 6.259 0 0 1 3.291-2.272l-.876-1.5a1.687 1.687 0 0 1-.208-.57l-1.151-6.718a1.703 1.703 0 0 1-1.968-1.391l-.287-1.68-1.68.288a8.519 8.519 0 0 1-2.878-16.794Zm7.916 15.93 6.718-1.15-2.74-15.99a15.472 15.472 0 0 1-1.227-.618l-5.629.965 2.878 16.793Zm8.207-42.895a11.924 11.924 0 0 0-9.74 13.77 11.924 11.924 0 0 0 13.77 9.741 11.924 11.924 0 0 0 4.87-21.487 11.94 11.94 0 0 0-8.9-2.024Zm44.765 49.376 3.359-.576-8.059-47.023-3.359.576 8.059 47.023ZM65.293 31.127A159.553 159.553 0 0 1 47.245 41.8a15.309 15.309 0 0 1-16.624 8.934l2.457 14.339c13.699-1.753 32.021 2.604 38.787 4.412l-6.572-38.358Zm-38.988 85.202 21.831-3.742-.575-3.359-21.832 3.742.576 3.359Zm-3.67-31.5 4.198 24.494 21.135-3.622L58.693 90.54a3.12 3.12 0 0 0-.744-4.342l-.576-.408-5.974 8.445a1.704 1.704 0 1 1-2.782-1.968l5.974-8.445-3.12-2.207-5.973 8.445a1.704 1.704 0 1 1-2.783-1.968l5.974-8.445-3.12-2.206-5.973 8.444a1.704 1.704 0 1 1-2.782-1.968l5.974-8.444-.577-.408c-.556-.393-1.415-.54-2.297-.39l-.008.002c-.882.151-1.643.574-2.038 1.132l-8.35 11.803a1.703 1.703 0 1 1-2.78-1.968l1.799-2.543-.577-.407c-.532-.377-1.412-.516-2.297-.365-.884.152-1.668.577-2.045 1.109l-.983 1.391Zm3.716-8.58 1.635 2.8a5.635 5.635 0 0 1 1.944.863l.576.408 1.924-2.721-.78-1.339a1.693 1.693 0 0 1-.21-.57l-1.15-6.718-5.038.863 1.099 6.413Zm-8.968-11.98 1.68-.288-1.728-10.076-1.679.288a5.112 5.112 0 0 0 1.727 10.076ZM96.915 26.942c2.25 1.592 4.228 4.289 5.879 8.017a39.85 39.85 0 0 1 2.732 9.017c.817 4.762.33 12.158-2.667 17.143a1.703 1.703 0 0 1-2.92-1.756c2.435-4.051 2.965-10.518 2.229-14.812-1.303-7.599-4.656-13.012-7.221-14.827a1.704 1.704 0 1 1 1.968-2.782Z" fill="#545454"/><path d="M86.774 32.072a1.702 1.702 0 0 1 2.394-.275 22.433 22.433 0 0 1 4.992 29.106 1.703 1.703 0 1 1-2.892-1.803 19.026 19.026 0 0 0-4.218-24.634 1.704 1.704 0 0 1-.276-2.394Z" fill="#545454"/><path d="M80.854 38.352a1.704 1.704 0 0 1 2.371-.431c2.91 2.014 4.865 5.187 5.507 8.934.643 3.748-.145 7.39-2.218 10.259a1.704 1.704 0 1 1-2.762-1.996c1.532-2.12 2.108-4.85 1.622-7.687-.487-2.838-1.938-5.22-4.089-6.708a1.705 1.705 0 0 1-.43-2.371ZM76.211 4.054 99.722.024a1.704 1.704 0 0 1 1.968 1.392l2.59 15.115a1.704 1.704 0 0 1-1.392 1.967l-23.511 4.03a1.704 1.704 0 0 1-1.967-1.392L74.82 6.02a1.704 1.704 0 0 1 1.391-1.967Zm5.816 2.46 7.313 3.538 5.717-5.77-13.03 2.233Zm18.606 8.913L98.89 5.255l-7.986 8.06a1.705 1.705 0 0 1-1.952.335L78.738 8.71l1.743 10.17 20.152-3.453ZM36.577 35.048l-1.68.288 1.152 6.718a1.704 1.704 0 0 1-3.36.575l-1.15-6.717-1.68.287a1.704 1.704 0 0 1-.575-3.358l1.68-.288a1.705 1.705 0 0 0-1.968-1.392 1.704 1.704 0 0 1-.576-3.359 5.115 5.115 0 0 1 5.902 4.175l1.68-.288a1.704 1.704 0 1 1 .575 3.36ZM93.625 75.404a15.333 15.333 0 0 1 17.705 12.524 15.333 15.333 0 0 1-12.525 17.704 15.332 15.332 0 0 1-17.704-12.524 15.354 15.354 0 0 1 12.524-17.704Zm4.605 26.87a11.926 11.926 0 1 0-13.77-9.741 11.939 11.939 0 0 0 13.77 9.741Z" fill="#545454"/><path d="m88.49 90.297 9.213-6.765a1.701 1.701 0 0 1 2.688 1.085l1.727 10.076a1.705 1.705 0 0 1-2.174 1.919L89.004 93.3a1.703 1.703 0 0 1-.514-3.003Zm9.803 2.255-.795-4.642-4.244 3.116 5.04 1.526Z" fill="#545454"/></svg>