<svg width="120" height="112" fill="none" xmlns="http://www.w3.org/2000/svg"><path d="M117.999 0H2a2 2 0 0 0-2 2v84a2 2 0 0 0 2 2h45.403l4.646 20.442a2 2 0 0 0 3.665.586l6.933-11.554 13.938 13.939a2 2 0 0 0 2.828 0l10-10a1.999 1.999 0 0 0 0-2.829L78.828 88H118a2 2 0 0 0 2-2V2a2 2 0 0 0-2-2h-.001Zm-2 4v12H4V4h111.999Zm-61.154 98.701-8.109-35.682 34.05 11.35-15.68 7.84c-.34.171-.626.435-.821.76l-9.44 15.732ZM44.631 62.103a1.999 1.999 0 0 0-2.582 2.34L42.857 68H12V36h48v31.225L44.63 62.103Zm33.367 45.069L64.766 93.94l2.647-4.412 4.856-2.428 12.9 12.9-7.171 7.172Zm.472-23.173 8.422-4.211a1.998 1.998 0 0 0-.262-3.686l-22.632-7.544V34a2 2 0 0 0-2-2h-52a2 2 0 0 0-2 2v36a2 2 0 0 0 2 2h33.767l2.727 12H4V20h111.999v64H78.47Z" fill="#545454"/><path d="M10 12h74a2 2 0 0 0 0-4H10a2 2 0 0 0 0 4ZM94 10a2 2 0 1 1-4.001 0 2 2 0 0 1 4 0ZM101.999 10a2 2 0 1 1-4 0 2 2 0 0 1 4 0ZM109.999 10a2 2 0 1 1-4 0 2 2 0 0 1 4 0ZM90.098 32.002h-.012c-.029 0-.057-.003-.086-.003a20 20 0 0 0 0 40 20 20 0 0 0 .098-39.997ZM105.87 50h-5.946a25.742 25.742 0 0 0-4.57-13.075A16.041 16.041 0 0 1 105.87 50Zm-17.87 0h-3.917A21.759 21.759 0 0 1 88 39.09v10.91Zm0 4v10.885a21.844 21.844 0 0 1-3.916-10.885H88Zm4 0h3.917A21.73 21.73 0 0 1 92 64.906V54Zm0-4V39.117A21.828 21.828 0 0 1 95.917 50H92Zm-7.356-13.075A25.74 25.74 0 0 0 80.075 50H74.13a16.04 16.04 0 0 1 10.515-13.075ZM74.13 54h5.945a25.74 25.74 0 0 0 4.57 13.075A16.041 16.041 0 0 1 74.13 54Zm21.225 13.075A25.74 25.74 0 0 0 99.924 54h5.945a16.044 16.044 0 0 1-10.515 13.075ZM54 40h-6a2 2 0 0 0 0 4h.394l-3 2H40a2 2 0 0 0-1.415.585L33.171 52H28a2 2 0 0 0-1.25.438l-10 8a2 2 0 0 0 2.5 3.123L28.7 56H34a2 2 0 0 0 1.414-.586L40.828 50H46a2 2 0 0 0 1.109-.336l4.89-3.26V48a2 2 0 0 0 4 0v-6a2 2 0 0 0-2-2Z" fill="#545454"/></svg>