<svg width="113" height="120" fill="none" xmlns="http://www.w3.org/2000/svg"><path d="M110.623 31.872h-7.5a1.874 1.874 0 0 0 0 3.75h3.369l-9.715 11.102-4.989-.832A5.618 5.618 0 0 0 90 42.682V1.875A1.875 1.875 0 0 0 88.125 0H73.126c-1.035 0-1.875.84-1.875 1.875v44.07a29.882 29.882 0 0 0-3.75-.715V11.25a1.875 1.875 0 0 0-1.874-1.875H50.628c-1.035 0-1.875.84-1.875 1.875v37.773a30.086 30.086 0 0 0-3.75 2.573V26.248a1.875 1.875 0 0 0-1.874-1.875H28.13c-1.035 0-1.875.84-1.875 1.875v44.996a5.6 5.6 0 0 0-3.75 1.437v-33.31a1.875 1.875 0 0 0-1.874-1.875H5.632c-1.035 0-1.875.84-1.875 1.875v43.282L.403 86.965a1.872 1.872 0 0 0 .321 2.64 1.875 1.875 0 0 0 2.638-.338l12.18-15.66 5.133 2.566a5.625 5.625 0 1 0 10.891-1.154l2.242-1.794a29.98 29.98 0 0 0 26.176 31.529 29.978 29.978 0 0 0 20.618-4.956l18.544 18.544a5.629 5.629 0 0 0 7.966.011 5.629 5.629 0 0 0-.012-7.966L88.557 91.843a29.945 29.945 0 0 0-5.142-39.486l.411-.412a5.617 5.617 0 0 0 7.346-2.353l6.02 1.003a1.875 1.875 0 0 0 1.718-.615l9.838-11.244v2.51a1.875 1.875 0 0 0 3.75 0v-7.5a1.877 1.877 0 0 0-1.875-1.874Zm-58.12-18.749h11.249v31.872a29.85 29.85 0 0 0-11.249 2.19V13.124Zm-38.977 56.97-6.02 7.738V41.245h11.25v29.777l-2.912-1.456c-.8-.4-1.77-.18-2.318.526Zm12.729 8.65a1.874 1.874 0 1 1 0-3.748 1.874 1.874 0 0 1 0 3.748Zm3.75-7.275V28.12h11.248v27.054a29.95 29.95 0 0 0-6.615 12.584l-4.634 3.709Zm74.444 41.571a1.88 1.88 0 0 1 .015 2.667 1.878 1.878 0 0 1-2.667-.015L83.585 97.478a30.255 30.255 0 0 0 2.651-2.651l18.213 18.212Zm-14.45-38.045a26.248 26.248 0 1 1-26.247-26.247 26.272 26.272 0 0 1 18.55 7.697A26.273 26.273 0 0 1 90 74.993ZM75.001 47.187V3.75h11.248v37.496a5.622 5.622 0 0 0-5.075 8.048l-.764.765A29.973 29.973 0 0 0 75 47.187Zm11.248 1.56a1.874 1.874 0 1 1 0-3.748 1.874 1.874 0 0 1 0 3.747Z" fill="#545454"/><path d="M63.752 52.495A22.497 22.497 0 0 0 47.844 90.9 22.498 22.498 0 0 0 86.25 74.993a22.523 22.523 0 0 0-22.498-22.498Zm0 41.246A18.748 18.748 0 1 1 82.5 74.993 18.773 18.773 0 0 1 63.752 93.74Z" fill="#545454"/><path d="M63.752 86.242a11.26 11.26 0 0 1-11.249-11.25 1.875 1.875 0 0 0-3.75 0 15.012 15.012 0 0 0 4.398 10.6 15.01 15.01 0 0 0 10.6 4.4 1.875 1.875 0 0 0 0-3.75Z" fill="#545454"/></svg>