<svg width="110" height="110" fill="none" xmlns="http://www.w3.org/2000/svg"><path d="M84.33 0H14.665c-1.012 0-1.833.82-1.833 1.833v31.165a9.175 9.175 0 0 0-9.166 9.166v20.397l-3.27 4.131a1.83 1.83 0 0 0-.372 1.439l3.642 21.85v5.348c-1.012 0-1.833.82-1.833 1.833v10.999a1.832 1.832 0 0 0 1.833 1.833H45.83a1.833 1.833 0 0 0 1.833-1.833v-11a1.834 1.834 0 0 0-1.833-1.832v-3.667H84.33a1.833 1.833 0 0 0 1.834-1.833V1.833A1.834 1.834 0 0 0 84.328 0ZM7.332 42.164a5.509 5.509 0 0 1 1.612-3.887 5.51 5.51 0 0 1 3.888-1.612v14.32l-5.5 6.945V42.164Zm36.665 64.164H5.5v-7.333h38.498v7.333Zm-36.665-11v-5.5c0-.1-.008-.202-.024-.3L3.776 68.33l12.95-16.355a2.095 2.095 0 0 1 3.632 1.956l-5.6 16.992A1.832 1.832 0 0 0 16.5 73.33a12.846 12.846 0 0 1 12.832 12.833v3.666a1.833 1.833 0 0 0 1.833 1.833h11v3.667H7.333Zm75.163-7.333H32.999v-1.833a16.526 16.526 0 0 0-14.026-16.314l3.797-11.525c.31.222.682.34 1.062.34h51.331a1.833 1.833 0 0 0 0-3.666H23.862a5.746 5.746 0 0 0-.07-3.669l.04.002h51.33a1.833 1.833 0 0 0 0-3.666h-51.33c-.78 0-1.473.494-1.73 1.228a5.805 5.805 0 0 0-1.079-.729 5.756 5.756 0 0 0-4.524-.33V3.667h65.996v84.328Z" fill="#545454"/><path d="M31.165 29.332a11.001 11.001 0 0 0 11-11 11.001 11.001 0 0 0-11-10.999 11.002 11.002 0 0 0-11 11 11.01 11.01 0 0 0 11 10.999Zm0-18.333a7.336 7.336 0 0 1 7.333 7.333 7.336 7.336 0 0 1-7.333 7.333 7.336 7.336 0 0 1-7.333-7.333A7.344 7.344 0 0 1 31.165 11ZM47.664 16.5h29.332a1.833 1.833 0 0 0 0-3.667H47.664a1.833 1.833 0 0 0 0 3.666ZM47.664 23.832h29.332a1.833 1.833 0 0 0 0-3.666H47.664a1.833 1.833 0 0 0 0 3.666ZM75.163 32.998h-51.33a1.833 1.833 0 0 0 0 3.667h51.33a1.833 1.833 0 0 0 0-3.667ZM75.163 40.331h-51.33a1.833 1.833 0 0 0 0 3.666h51.33a1.833 1.833 0 0 0 0-3.666ZM75.163 62.33h-51.33a1.833 1.833 0 0 0 0 3.667h51.33a1.833 1.833 0 0 0 0-3.667ZM75.163 76.996h-15.74l-3.129-3.13a1.834 1.834 0 0 0-2.593 0l-1.377 1.378-1.048-4.192a1.833 1.833 0 0 0-2.924-.987l-9.166 7.333a1.834 1.834 0 0 0 2.292 2.862l6.935-5.547 1.14 4.56a1.833 1.833 0 0 0 3.076.852l2.369-2.37 2.37 2.37c.344.344.81.537 1.296.537h16.5a1.833 1.833 0 0 0 0-3.666ZM109.799 54.178l-1.639-3.28V33a9.175 9.175 0 0 0-9.166-9.166h-1.833V22a1.833 1.833 0 0 0-3.667 0v1.833h-1.833c-1.012 0-1.833.82-1.833 1.833V95.33h.003c0 .17.022.34.069.504l3.666 12.833a1.833 1.833 0 0 0 3.525 0l3.667-12.833c.046-.163.069-.334.068-.504h.001V27.814a5.514 5.514 0 0 1 3.667 5.184v18.333c0 .284.066.565.194.82l1.833 3.666a1.832 1.832 0 0 0 3.387-.234c.153-.465.114-.97-.108-1.406h-.001ZM97.161 31.165h-3.667V27.5h3.667v3.666Zm-1.833 70.323-1.237-4.326h2.474l-1.237 4.326Zm-1.834-7.992V34.832h3.667v58.664h-3.667Z" fill="#545454"/></svg>