<svg width="118" height="120" fill="none" xmlns="http://www.w3.org/2000/svg"><path d="m8.068 87.485-8 30A1.999 1.999 0 0 0 2 120h84a1.998 1.998 0 0 0 1.931-2.515L84 102.738V36h32a2 2 0 0 0 1.788-2.895l-7.52-15.042 7.469-13.07v-.001A2 2 0 0 0 115.999 2h-32a2 2 0 0 0-2-2h-8a2 2 0 0 0-2 2v81.892l-9.797-3.267 1.212-1.212c.674-.674.778-1.73.25-2.524l-4-6A2 2 0 0 0 58 70h-2v-4.108c.86-.957 1.653-1.97 2.378-3.034 3.393-4.955 5.522-11.243 5.614-16.507l3.906-11.718h-.001c.068-.204.103-.418.103-.633V18a2.001 2.001 0 0 0-3.415-1.414C61.398 19.776 55.4 22 50 22H30a10.01 10.01 0 0 0-10 10v2c0 .215.035.429.103.632l3.906 11.718c.091 5.265 2.22 11.553 5.614 16.507h-.001A28.889 28.889 0 0 0 32 65.892V70h-2a2 2 0 0 0-1.664.89l-4 6a2 2 0 0 0 .25 2.524l1.212 1.212-16.43 5.477a1.999 1.999 0 0 0-1.3 1.382ZM83.998 6h28.553l-6.29 11.008a2.002 2.002 0 0 0-.052 1.887L112.762 32H83.999V6Zm-48 63.403c2.541 1.702 5.254 2.597 8 2.597 2.748 0 5.46-.895 8-2.597v5.465l-8 4.8-8-4.8v-5.465Zm8 15.931 3.66 4.878L46.763 92h-5.529l-.894-1.79 3.659-4.876ZM41.509 96h4.983l3.508 12.28V116h-12v-7.72L41.508 96ZM75.999 4h4v83.737l-.068-.253a1.999 1.999 0 0 0-1.3-1.382L76 85.225V4Zm.346 85.557L83.395 116H70v-16a2 2 0 0 0-4 0v16H54v-8c0-.186-.026-.372-.076-.55l-3.787-13.252 1.507-3.013 7.396-7.397 17.306 5.769ZM56.929 74l2.496 3.744-9.21 9.21-3.285-4.38 8.098-4.858A2.002 2.002 0 0 0 55.999 76v-2h.93Zm-32.93-42a6.004 6.004 0 0 1 1.76-4.24 6.004 6.004 0 0 1 4.24-1.76h20c4.19 0 9.642-1.231 14-3.918v11.593l-2.171 6.512-1.972-4.93A2 2 0 0 0 57.998 34h-28a2 2 0 0 0-1.856 1.257l-1.973 4.93L24 33.675V32Zm4.009 14.362L31.353 38h25.291l3.345 8.362c-.095 4.5-1.956 9.917-4.913 14.236C51.856 65.302 47.819 68 43.999 68c-3.82 0-7.857-2.698-11.078-7.402-2.957-4.319-4.817-9.735-4.913-14.236ZM31.069 74H32v2a2 2 0 0 0 .971 1.715l8.098 4.86-3.285 4.38-9.21-9.21L31.069 74Zm-2.11 9.788 7.396 7.396 1.507 3.014-3.787 13.252c-.05.178-.076.364-.076.55v8h-12v-16a2 2 0 0 0-4 0v16H4.603l7.05-26.444 17.306-5.768Z" fill="#545454"/><path d="M39.998 46a2 2 0 1 1-4 0 2 2 0 0 1 4 0ZM51.998 46a2 2 0 1 1-4 0 2 2 0 0 1 4 0ZM36.887 57.664a12.783 12.783 0 0 0 14.22 0 2.001 2.001 0 0 0-2.22-3.329 8.789 8.789 0 0 1-9.78 0 2 2 0 1 0-2.22 3.329Z" fill="#545454"/></svg>