<svg width="120" height="120" fill="none" xmlns="http://www.w3.org/2000/svg"><path d="M120.001 118V94c0-.667-.334-1.29-.888-1.662C115.621 90 111.396 90 108.001 90a20.03 20.03 0 0 0-18.402 12.166 13.99 13.99 0 0 0-14.189-5.925c-.283-3.327-1.668-5.254-1.811-5.445v.001A1.998 1.998 0 0 0 72 90h-6v-4h12a2 2 0 0 0 2-2v-2.764l13.106 6.552A2 2 0 0 0 96 86V72a2 2 0 0 0-.439-1.25L80.001 51.298V38c0-8.587-3.235-17.798-9.356-26.638C66.061 4.74 61.52.675 61.329.506a1.998 1.998 0 0 0-2.657 0c-.191.17-4.732 4.234-9.316 10.856C43.236 20.203 40 29.414 40 38v13.298L24.44 70.75A2 2 0 0 0 24 72v14a2 2 0 0 0 2.895 1.788L40 81.236V84a2 2 0 0 0 2 2h12v4h-6a2 2 0 0 0-1.816 1.162 16.493 16.493 0 0 0-1.438 5.11 13.983 13.983 0 0 0-14.344 5.894A20.032 20.032 0 0 0 12 90c-3.395 0-7.62 0-11.113 2.338A2 2 0 0 0 0 94v24a2 2 0 0 0 2 2h116a2.001 2.001 0 0 0 2-2h.001Zm-60-20a5.972 5.972 0 0 0 4.118-1.644c-.39 5.353-2.884 8.141-4.225 9.272-2.52-1.847-3.516-5.786-3.834-9.11v-.001A5.971 5.971 0 0 0 60 98Zm-2-6V60a2 2 0 0 1 4 0v32a2 2 0 0 1-4 0Zm34-19.298v10.062l-12-6V57.702l12 15ZM60.002 4.779C63.888 8.694 74.996 21.123 75.936 36H71.83a11.998 11.998 0 0 0-23.66 0h-4.105C45.008 21.15 56.12 8.7 60.003 4.78ZM68 38a8.003 8.003 0 0 1-8 8 8.003 8.003 0 0 1-8-8 8.003 8.003 0 0 1 8-8 8.013 8.013 0 0 1 8 8ZM28 82.764V72.701l12-15v19.062l-12 6ZM44 82V40h4.17a11.997 11.997 0 0 0 23.66 0h4.17v42H66V60a6 6 0 0 0-12 0v22H44Zm5.344 12h2.594c.023 4.123.85 12.892 7.227 15.818h.001c.572.262 1.234.24 1.788-.06.329-.178 7.611-4.272 7.201-15.758h2.653a9.48 9.48 0 0 1 .55 4.788c-.44 3.593-2.81 9.35-11.448 16.687v-.001a39.04 39.04 0 0 1-6.755-6.503c-4.185-5.243-5.465-10.272-3.812-14.97ZM4 95.15C6.138 94.092 8.717 94 12 94a16.014 16.014 0 0 1 11.309 4.692c3 2.999 4.687 7.066 4.691 11.308a2 2 0 1 0 4 0 10.002 10.002 0 0 1 12.819-9.596c.53 3.657 2.273 7.383 5.212 11.063a40.204 40.204 0 0 0 4.27 4.533H4v-20.85ZM116.001 116H65.303c6.468-6.173 9.068-11.47 9.864-15.592A10.006 10.006 0 0 1 88 109.999a2 2 0 1 0 4 0 16.014 16.014 0 0 1 4.692-11.308c2.999-3 7.066-4.688 11.308-4.692 3.283 0 5.862.091 8 1.15l.001 20.85Z" fill="#545454"/><path d="M64 38a4 4 0 1 1-8 0 4 4 0 0 1 8 0ZM26.213 26.893a1.999 1.999 0 0 0 3.577 0 11.493 11.493 0 0 1 5.106-5.106 1.999 1.999 0 0 0 0-3.577 11.493 11.493 0 0 1-5.106-5.106 2 2 0 0 0-3.577 0 11.494 11.494 0 0 1-5.106 5.106 1.999 1.999 0 0 0 0 3.577 11.494 11.494 0 0 1 5.106 5.107ZM28 17.67A15.603 15.603 0 0 0 30.33 20a15.593 15.593 0 0 0-2.329 2.329 15.603 15.603 0 0 0-2.328-2.33A15.612 15.612 0 0 0 28 17.67ZM18 28c-.757 0-1.45.427-1.788 1.105a20.491 20.491 0 0 1-9.106 9.106 1.999 1.999 0 0 0 0 3.577 20.491 20.491 0 0 1 9.106 9.107 1.999 1.999 0 0 0 3.577 0 20.491 20.491 0 0 1 9.106-9.107 1.999 1.999 0 0 0 0-3.577 20.491 20.491 0 0 1-9.106-9.106A1.999 1.999 0 0 0 18 28ZM24.1 40A24.64 24.64 0 0 0 18 46.098 24.637 24.637 0 0 0 11.902 40 24.64 24.64 0 0 0 18 33.9 24.64 24.64 0 0 0 24.1 40ZM98.894 18.211a11.493 11.493 0 0 1-5.106-5.106 1.999 1.999 0 0 0-3.577 0 11.493 11.493 0 0 1-5.106 5.106 2 2 0 0 0 0 3.577 11.493 11.493 0 0 1 5.106 5.107 1.999 1.999 0 0 0 3.577 0 11.493 11.493 0 0 1 5.106-5.107 1.999 1.999 0 0 0 0-3.577Zm-6.895 4.117A15.607 15.607 0 0 0 89.671 20a15.612 15.612 0 0 0 2.328-2.329A15.607 15.607 0 0 0 94.328 20a15.601 15.601 0 0 0-2.329 2.328ZM114.001 40c0-.757-.428-1.45-1.106-1.789a20.492 20.492 0 0 1-9.106-9.106 1.998 1.998 0 0 0-3.577 0 20.49 20.49 0 0 1-9.106 9.106 2 2 0 0 0 0 3.577 20.49 20.49 0 0 1 9.106 9.107 2 2 0 0 0 3.577 0 20.492 20.492 0 0 1 9.106-9.107A1.999 1.999 0 0 0 114.001 40Zm-12 6.098A24.64 24.64 0 0 0 95.902 40a24.64 24.64 0 0 0 6.099-6.099A24.638 24.638 0 0 0 108.099 40a24.64 24.64 0 0 0-6.098 6.098ZM12 60a2 2 0 0 0-4 0v8a2 2 0 0 0 4 0v-8ZM10 74a2 2 0 0 0-2 2v4a2 2 0 0 0 4 0v-4a2 2 0 0 0-2-2ZM2 86a2 2 0 0 0 2-2V64a2 2 0 0 0-4 0v20a2 2 0 0 0 2 2ZM112 60a2 2 0 1 0-4 0v8a2 2 0 0 0 4 0v-8ZM110 74a2 2 0 0 0-2 2v4a2 2 0 0 0 4 0v-4a2 2 0 0 0-2-2ZM120 64a2 2 0 1 0-4 0v20a2 2 0 0 0 4 0V64Z" fill="#545454"/></svg>