<svg width="120" height="120" fill="none" xmlns="http://www.w3.org/2000/svg"><path d="M90.968 73.549a5.813 5.813 0 0 0 5.807-5.807 5.813 5.813 0 0 0-5.807-5.806 5.813 5.813 0 0 0-5.806 5.806 5.813 5.813 0 0 0 5.806 5.807Zm0-7.742c1.066 0 1.936.867 1.936 1.935s-.87 1.936-1.936 1.936a1.938 1.938 0 0 1-1.935-1.936c0-1.068.869-1.935 1.935-1.935Z" fill="#545454"/><path d="M112.259 23.42V0H7.742v23.42C3.331 24.32 0 28.23 0 32.904V98.71c0 5.336 4.341 9.677 9.677 9.677h23.226v7.742h-7.742V120H94.84v-3.871h-7.742v-7.742h23.226c5.337 0 9.678-4.341 9.678-9.677V32.903c0-4.672-3.331-8.582-7.742-9.482ZM11.613 19.355H77.42c0 4.429 2.199 8.588 5.806 11.106v26.175c-3.607 2.52-5.806 6.677-5.806 11.105 0 7.47 6.078 13.549 13.548 13.549s13.549-6.08 13.549-13.549c0-4.428-2.199-8.587-5.807-11.105V30.46c3.608-2.52 5.807-6.678 5.807-11.106h3.871v65.807H11.613V19.354Zm85.162 1.936v-9.664a9.68 9.68 0 0 1 3.871 7.728 9.709 9.709 0 0 1-4.84 8.371l-.967.56v22.037h-7.742V28.284l-.966-.559a9.708 9.708 0 0 1-4.84-8.37 9.68 9.68 0 0 1 3.87-7.729v9.664h11.614ZM86.13 59.37l.966-.559v-4.618h7.742v4.618l.966.56a9.708 9.708 0 0 1 4.841 8.37c0 5.337-4.341 9.678-9.678 9.678-5.336 0-9.677-4.341-9.677-9.677a9.708 9.708 0 0 1 4.84-8.371Zm22.257-55.5v11.612h-4.459c-1.221-4.064-4.305-7.426-8.445-8.892l-2.58-.913v11.74h-3.87V5.679l-2.58.916c-4.143 1.463-7.224 4.825-8.445 8.89H11.614V3.87h96.774ZM7.743 27.451v61.58h104.516v-61.58c2.248.801 3.871 2.93 3.871 5.451v60H3.872v-60c0-2.52 1.623-4.649 3.87-5.45Zm75.484 88.677H36.775v-7.742h46.452v7.742Zm27.097-11.613H9.678a5.813 5.813 0 0 1-5.806-5.806v-1.936H116.13v1.936a5.813 5.813 0 0 1-5.806 5.806Z" fill="#545454"/><path d="M15.484 7.742h3.871v3.87h-3.871v-3.87ZM23.226 7.742h3.87v3.87h-3.87v-3.87ZM30.968 7.742h3.87v3.87h-3.87v-3.87ZM67.183 41.406l3.443-1.987-1.936-3.352-3.432 1.98a25.351 25.351 0 0 0-6.532-6.532l1.982-3.433-3.352-1.935-1.988 3.443a24.91 24.91 0 0 0-8.914-2.396l-.001-3.968h-3.871v3.97a24.926 24.926 0 0 0-8.915 2.396l-1.987-3.443-3.353 1.935 1.983 3.432a25.353 25.353 0 0 0-6.533 6.532l-3.432-1.98-1.935 3.352 3.443 1.988a24.91 24.91 0 0 0-2.396 8.917h-3.974v3.87h3.97a24.95 24.95 0 0 0 2.396 8.918L18.405 65.1l1.936 3.353 3.432-1.98a25.351 25.351 0 0 0 6.532 6.531l-1.982 3.433 3.352 1.935 1.988-3.443a24.91 24.91 0 0 0 8.914 2.396l.001 3.966h3.871v-3.97a24.924 24.924 0 0 0 8.915-2.395l1.987 3.443 3.353-1.936-1.983-3.432a25.352 25.352 0 0 0 6.533-6.532l3.432 1.98 1.935-3.352-3.443-1.987a24.908 24.908 0 0 0 2.396-8.917h3.974v-3.871h-3.97a24.919 24.919 0 0 0-2.395-8.916ZM44.516 73.55c-11.739 0-21.29-9.552-21.29-21.29 0-11.74 9.551-21.291 21.29-21.291 11.74 0 21.29 9.551 21.29 21.29 0 11.74-9.55 21.29-21.29 21.29Z" fill="#545454"/><path d="M44.516 38.71c-7.47 0-13.548 6.08-13.548 13.548 0 7.47 6.078 13.549 13.548 13.549 3.35 0 6.567-1.233 9.055-3.469l-2.588-2.88a9.652 9.652 0 0 1-6.466 2.477c-5.337 0-9.678-4.34-9.678-9.677 0-5.336 4.341-9.678 9.678-9.678 5.336 0 9.677 4.342 9.677 9.678a9.675 9.675 0 0 1-1.293 4.837l3.35 1.939a13.553 13.553 0 0 0 1.814-6.776c0-7.47-6.078-13.549-13.548-13.549Z" fill="#545454"/><path d="M46.452 58.065v-3.871h3.87v-3.871h-3.87v-3.871H42.58v3.87H38.71v3.872h3.87v3.87h3.872Z" fill="#545454"/></svg>