<svg width="30" height="23" viewBox="0 0 30 23" fill="none" xmlns="http://www.w3.org/2000/svg">
<path d="M19.005 22.5385C18.8634 22.5393 18.7231 22.5115 18.592 22.4565C18.4609 22.4016 18.3417 22.3207 18.2412 22.2184C18.1404 22.1158 18.0603 21.9937 18.0057 21.8593C17.9511 21.7248 17.923 21.5805 17.923 21.4348C17.923 21.2891 17.9511 21.1449 18.0057 21.0104C18.0603 20.8759 18.1404 20.7539 18.2412 20.6513L27.1702 11.5023L18.2412 2.35325C18.0386 2.14544 17.9248 1.86358 17.9248 1.56968C17.9248 1.27579 18.0386 0.993929 18.2412 0.786113C18.4438 0.578298 18.7185 0.461548 19.005 0.461548C19.2915 0.461548 19.5662 0.578298 19.7688 0.786113L29.4509 10.7187C29.5517 10.8213 29.6318 10.9433 29.6864 11.0778C29.741 11.2123 29.7691 11.3566 29.7691 11.5023C29.7691 11.6479 29.741 11.7922 29.6864 11.9267C29.6318 12.0612 29.5517 12.1832 29.4509 12.2858L19.7688 22.2184C19.6683 22.3207 19.5491 22.4016 19.418 22.4565C19.2869 22.5115 19.1466 22.5393 19.005 22.5385Z"/>
<path d="M27.4408 13.154H1.09763C0.806523 13.154 0.527335 13.0405 0.321489 12.8385C0.115643 12.6366 0 12.3627 0 12.077C0 11.7914 0.115643 11.5175 0.321489 11.3155C0.527335 11.1136 0.806523 11.0001 1.09763 11.0001H27.4408C27.7319 11.0001 28.0111 11.1136 28.217 11.3155C28.4228 11.5175 28.5385 11.7914 28.5385 12.077C28.5385 12.3627 28.4228 12.6366 28.217 12.8385C28.0111 13.0405 27.7319 13.154 27.4408 13.154Z"/>
</svg>
