<svg width="40" height="40" viewBox="0 0 40 40" fill="none" xmlns="http://www.w3.org/2000/svg">
<path fill-rule="evenodd" clip-rule="evenodd" d="M26.1785 15.4882C26.8293 16.139 26.8293 17.1943 26.1785 17.8452L19.5118 24.5118C18.861 25.1627 17.8057 25.1627 17.1548 24.5118L13.8215 21.1785C13.1706 20.5277 13.1706 19.4723 13.8215 18.8215C14.4724 18.1707 15.5276 18.1707 16.1785 18.8215L18.3333 20.9763L23.8215 15.4882C24.4723 14.8373 25.5277 14.8373 26.1785 15.4882Z" fill="#545454"/>
<path fill-rule="evenodd" clip-rule="evenodd" d="M20 6.66634C12.6362 6.66634 6.66668 12.6359 6.66668 19.9997C6.66668 27.3635 12.6362 33.333 20 33.333C27.3638 33.333 33.3333 27.3635 33.3333 19.9997C33.3333 12.6359 27.3638 6.66634 20 6.66634ZM3.33334 19.9997C3.33334 10.7949 10.7953 3.33301 20 3.33301C29.2047 3.33301 36.6667 10.7949 36.6667 19.9997C36.6667 29.2043 29.2047 36.6663 20 36.6663C10.7953 36.6663 3.33334 29.2043 3.33334 19.9997Z" fill="#545454"/>
</svg>
