<svg width="20" height="20" viewBox="0 0 20 20" fill="none" xmlns="http://www.w3.org/2000/svg">
<path d="M0 9.99958C0.00148764 4.47726 4.4774 0 10.0004 0C15.5243 0 20 4.47768 20 9.99958C20 15.5227 15.5239 19.9992 10.0004 20C4.4774 19.999 0.00126947 15.5227 0 9.99915V9.99958ZM1.73891 9.99958C1.74883 14.5619 5.43873 18.2522 10.0006 18.2611C14.563 18.2523 18.2534 14.5617 18.261 9.99958C18.2532 5.43854 14.5627 1.74741 10.0006 1.73895C5.43898 1.74754 1.74907 5.43829 1.73891 9.99958V9.99958Z" fill="#050103"/>
<path d="M9.99999 15.213C8.66887 15.2135 7.32916 14.7021 6.31376 13.6858C5.29903 12.6712 4.78579 11.3345 4.78626 10.004C4.78576 8.67173 5.29569 7.3297 6.31473 6.31392C7.33014 5.29632 8.67001 4.78513 9.99999 4.78712C11.3324 4.7853 12.6715 5.29746 13.6877 6.31392L12.4645 7.53795C11.7813 6.85587 10.8945 6.51836 10.0002 6.51739C9.10658 6.51838 8.22075 6.8557 7.53744 7.53795C6.85578 8.21923 6.51874 9.10672 6.51772 10.004C6.51871 10.8963 6.85707 11.7805 7.53875 12.4631C8.21978 13.1434 9.10574 13.4812 10.0002 13.4822C10.8948 13.4812 11.7817 13.1434 12.4629 12.4621L12.4647 12.4631L13.6874 13.6857C12.6718 14.702 11.3343 15.2128 10.0033 15.2128C10.0027 15.213 10.0012 15.213 10 15.213L9.99999 15.213Z" fill="#050103"/>
</svg>
