<svg width="14" height="21" viewBox="0 0 14 21" fill="none" xmlns="http://www.w3.org/2000/svg">
<path fill-rule="evenodd" clip-rule="evenodd" d="M12.5 7.39655C12.5 8.90901 11.693 11.219 10.3683 13.6168C9.36118 15.4397 8.14717 17.1477 7 18.3969C5.85283 17.1477 4.63882 15.4397 3.63171 13.6168C2.30702 11.219 1.5 8.90901 1.5 7.39655C1.5 4.43709 3.9413 2 7 2C10.0587 2 12.5 4.43709 12.5 7.39655ZM14 7.39655C14 11.2054 10.15 17.7414 7 20.5C3.85 17.7414 0 11.2054 0 7.39655C0 3.58769 3.13401 0.5 7 0.5C10.866 0.5 14 3.58769 14 7.39655ZM9 7.44828C9 8.55285 8.10457 9.44828 7 9.44828C5.89543 9.44828 5 8.55285 5 7.44828C5 6.34371 5.89543 5.44828 7 5.44828C8.10457 5.44828 9 6.34371 9 7.44828ZM10.5 7.44828C10.5 9.38128 8.933 10.9483 7 10.9483C5.067 10.9483 3.5 9.38128 3.5 7.44828C3.5 5.51529 5.067 3.94828 7 3.94828C8.933 3.94828 10.5 5.51529 10.5 7.44828Z" fill="#050103"/>
</svg>
