<svg width="232" height="51" viewBox="0 0 232 51" fill="none" xmlns="http://www.w3.org/2000/svg">
<path d="M26.1187 29.9822H16.387L8.76406 17.1429V30H0V0H8.76406V12L15.9488 0H25.6805L16.5513 14.5714L26.1187 29.9822Z" fill="black"/>
<path d="M49.8519 9H58.2648L51.9731 30H43.8837L41.1872 20.13L38.4907 30H30.4013L24.1096 9H32.5226L35.0213 20.6375L38.1312 9H44.1713L47.2722 20.6375L49.8519 9Z" fill="black"/>
<path d="M61.2785 30V9H69.3151V30H61.2785Z" fill="black"/>
<path d="M96.4384 30H87.3785L83.8813 25.2945L80.3565 29.9912H71.3242L79.3835 19.2507L71.673 9H80.7053L83.8813 13.242L87.0481 9H96.0804L88.4158 19.2507L96.4384 30Z" fill="black"/>
<path d="M145.919 8.00536C147.392 7.95779 148.856 8.22739 150.207 8.79445C151.557 9.36151 152.758 10.2117 153.723 11.2829C155.7 13.4235 156.766 16.2019 156.71 19.065C156.71 19.1789 156.71 19.3454 156.71 19.5733C156.71 19.8011 156.71 19.9589 156.71 20.0728H136.868C137.048 22.27 138.105 24.3146 139.818 25.7779C141.332 26.9619 143.17 27.6973 145.11 27.8949C147.05 28.0925 149.008 27.7437 150.746 26.8909C151.989 26.2542 153.018 25.2908 153.714 24.1128L155.636 25.2083C154.716 26.696 153.386 27.9093 151.793 28.7137C150.039 29.5877 148.086 30.0275 146.111 29.9932C144.588 30.0454 143.07 29.7979 141.649 29.266C140.229 28.7341 138.937 27.9289 137.851 26.8996C136.779 25.8687 135.938 24.6365 135.382 23.2796C134.826 21.9227 134.566 20.4702 134.618 19.0124C134.575 17.5675 134.833 16.1289 135.377 14.7816C135.921 13.4344 136.741 12.2059 137.787 11.169C138.842 10.1297 140.109 9.31203 141.509 8.76753C142.909 8.22303 144.41 7.96351 145.919 8.00536ZM145.919 10.021C143.627 9.95637 141.399 10.755 139.709 12.2469C138.042 13.7571 137.028 15.8159 136.868 18.0134H154.443C154.337 15.7849 153.343 13.6816 151.665 12.1418C150.104 10.7512 148.047 9.99187 145.919 10.021V10.021Z" fill="black"/>
<path d="M180.665 0H182.831V29.5298H180.665V24.6433C179.801 26.2676 178.488 27.6249 176.875 28.5631C175.206 29.5289 173.294 30.0249 171.352 29.9956C169.841 30.0372 168.337 29.7832 166.928 29.2488C165.52 28.7143 164.235 27.9101 163.152 26.8838C162.068 25.8575 161.206 24.63 160.618 23.2738C160.029 21.9175 159.726 20.4602 159.726 18.9878C159.726 17.5155 160.029 16.0581 160.618 14.7019C161.206 13.3457 162.068 12.1181 163.152 11.0919C164.235 10.0656 165.52 9.26142 166.928 8.72693C168.337 8.19244 169.841 7.93849 171.352 7.98008C173.294 7.95083 175.206 8.44673 176.875 9.41263C178.49 10.3486 179.803 11.7065 180.665 13.3324V0ZM164.963 25.3552C166.696 27.0324 169.04 27.9737 171.483 27.9737C173.926 27.9737 176.27 27.0324 178.003 25.3552C179.71 23.6527 180.666 21.3674 180.666 18.9878C180.666 16.6082 179.71 14.323 178.003 12.6205C176.27 10.9433 173.926 10.002 171.483 10.002C169.04 10.002 166.696 10.9433 164.963 12.6205C163.256 14.323 162.301 16.6082 162.301 18.9878C162.301 21.3674 163.256 23.6527 164.963 25.3552V25.3552Z" fill="black"/>
<path d="M189.863 30V9H191.872V30H189.863Z" fill="black"/>
<path d="M129.347 11.2138C128.531 10.4466 127.565 9.85534 126.508 9.47746C125.451 9.09957 124.326 8.94324 123.205 9.01831C120.496 9.01831 119.394 9.40363 118.202 10.1564C117.269 10.7574 116.51 11.5879 115.998 12.5669C115.48 11.5892 114.718 10.7593 113.785 10.1564C112.593 9.40363 111.437 9.01831 108.881 9.01831C106.018 9.01831 104.085 9.75312 102.64 11.2138C101.885 12.0439 101.304 13.0151 100.932 14.0707C100.56 15.1263 100.403 16.2449 100.473 17.3611V31H102.676V23.0873C102.676 21.1607 102.577 19.1982 102.676 17.2715C102.718 15.9682 103.118 14.7011 103.832 13.6064C104.824 12.3311 106.28 11.4916 107.887 11.2676C108.989 11.0513 110.129 11.1508 111.175 11.5543C112.133 11.9813 112.946 12.6756 113.514 13.5526C114.47 15.0907 114.954 16.872 114.905 18.6784C114.905 18.6784 114.905 31 114.905 31H117.127V23.8311C117.127 21.0442 116.766 17.9884 117.642 15.318C117.929 14.4562 118.408 13.6694 119.043 13.0156C119.677 12.3618 120.452 11.8577 121.309 11.5403C122.166 11.223 123.084 11.1006 123.995 11.1821C124.907 11.2636 125.788 11.547 126.574 12.0113C127.327 12.5526 127.957 13.2446 128.424 14.0426C128.891 14.8406 129.184 15.7269 129.283 16.6442C129.509 18.9912 129.555 21.3518 129.419 23.7056V30.9641H131.587V17.3611C131.646 16.24 131.478 15.1184 131.094 14.0626C130.709 13.0068 130.115 12.0381 129.347 11.2138Z" fill="black"/>
<path fill-rule="evenodd" clip-rule="evenodd" d="M217.991 25.2009C215.91 28.0984 212.412 30 208.447 30C202.067 30 196.895 25.0751 196.895 19C196.895 12.9249 202.067 8 208.447 8C214.828 8 220 12.9249 220 19V30H217.991V25.2009ZM217.991 19C217.991 23.9706 213.718 28 208.447 28C203.177 28 198.904 23.9706 198.904 19C198.904 14.0294 203.177 10 208.447 10C213.718 10 217.991 14.0294 217.991 19Z" fill="black"/>
<path d="M6.57013 39H10.3084C12.5638 39 13.6978 39.8381 13.6978 41.5264C13.742 42.0009 13.6115 42.4753 13.3292 42.8669C13.0468 43.2585 12.6305 43.5426 12.1526 43.6696C12.7505 43.7681 13.2955 44.0595 13.6978 44.4958C14.0659 44.954 14.2555 45.5217 14.2336 46.1002C14.2336 47.9202 13.0498 48.8182 10.6822 48.8182H6.60751L6.57013 39ZM7.70408 40.0297V43.2266H10.3707C11.8411 43.2266 12.5763 42.6878 12.5763 41.6222C12.5919 41.4026 12.5589 41.1824 12.4794 40.976C12.3999 40.7696 12.2758 40.5818 12.1152 40.4248C11.6117 40.073 10.9894 39.9149 10.3707 39.9818L7.70408 40.0297ZM7.70408 44.2084V47.8004H10.8442C12.3645 47.8004 13.1246 47.2018 13.1246 46.0044C13.1376 45.7577 13.0928 45.5113 12.9936 45.2833C12.8944 45.0554 12.7433 44.8517 12.5514 44.6874C12.063 44.3314 11.4552 44.1609 10.8442 44.2084H7.70408Z" fill="black"/>
<path d="M17.5462 44.748H20.1227C20.5379 44.7049 20.9574 44.7498 21.3545 44.8799C21.7515 45.01 22.1174 45.2224 22.4287 45.5036C22.8781 45.996 23.1226 46.6445 23.1115 47.3144C23.1125 47.6326 23.0647 47.949 22.9698 48.2524C22.8706 48.5505 22.7129 48.8252 22.506 49.0601C22.2582 49.3492 21.9377 49.5653 21.5784 49.6854C21.1105 49.8481 20.6172 49.9232 20.1227 49.9069H16.4254V42.2727H17.5333L17.5462 44.748ZM17.5462 48.8777H20.2515C21.4496 48.8777 22.0551 48.3566 22.0551 47.3144C22.0551 46.2722 21.4496 45.7902 20.2515 45.7902H17.5462V48.8777ZM25.1856 49.9069H24.0906V42.2727H25.1856V49.9069Z" fill="black"/>
<path d="M40.5159 49.9091H39.4209V44.1362L36.6833 47.3289L33.933 44.1362V49.9091H32.8507V42.2727H33.5001L36.6833 45.9736L39.8538 42.2727H40.5159V49.9091Z" fill="black"/>
<path d="M46.6646 42.2768C47.4254 42.2605 48.1739 42.4638 48.8136 42.8607C49.4084 43.2503 49.8678 43.8031 50.132 44.4473C50.2599 44.7685 50.3355 45.1067 50.3561 45.4501C50.3931 45.7534 50.3617 46.0608 50.2638 46.3512H43.8697C43.8536 46.7012 43.9186 47.0501 44.06 47.3728C44.2014 47.6955 44.4156 47.9839 44.6871 48.2171C45.2692 48.6976 46.0169 48.9512 46.7833 48.9279C47.7267 48.9287 48.6474 48.6495 49.4201 48.1282L50.0265 48.7756C49.1052 49.505 47.9497 49.9042 46.7569 49.9052C46.2194 49.9285 45.6826 49.846 45.1793 49.6627C44.6761 49.4793 44.217 49.1991 43.8301 48.839C43.4546 48.4829 43.1609 48.0549 42.9679 47.5826C42.7749 47.1104 42.6868 46.6044 42.7095 46.0974C42.6823 45.0899 43.071 44.1131 43.7906 43.3811C44.1597 43.0098 44.6073 42.7191 45.1031 42.5286C45.5989 42.3381 46.1314 42.2522 46.6646 42.2768V42.2768ZM46.6646 43.2796C46.3169 43.2675 45.9701 43.3219 45.6442 43.4396C45.3184 43.5572 45.02 43.7358 44.7662 43.965C44.5189 44.1743 44.3179 44.4293 44.1752 44.715C44.0325 45.0007 43.951 45.3111 43.9356 45.6277H49.2091C49.2246 45.3351 49.1658 45.0432 49.0377 44.7773C48.8497 44.3332 48.5284 43.9532 48.1149 43.6857C47.6829 43.4171 47.1788 43.2759 46.6646 43.2796V43.2796Z" fill="black"/>
<path d="M58.0363 49.9091H57.0292V46.9119C56.778 47.3472 56.4213 47.6991 55.9984 47.9289C55.5755 48.1587 55.1026 48.2577 54.6314 48.215C52.5212 48.215 51.4662 46.9379 51.4662 44.3838V42.2727H52.4853V44.3317C52.4278 45.0871 52.6097 45.8412 53.0008 46.4688C53.2282 46.7239 53.5064 46.9188 53.8141 47.0386C54.1217 47.1583 54.4506 47.1997 54.7752 47.1595C55.0963 47.1942 55.4203 47.1476 55.722 47.0233C56.0236 46.8989 56.2946 46.7002 56.5137 46.4428C56.8791 45.9147 57.0654 45.2656 57.0412 44.6053V42.2727H58.0363V49.9091Z" fill="black"/>
<path d="M64.0536 43.3283V49.9091H62.9692V43.3283H60.2263V42.2727H66.7965V43.3283H64.0536Z" fill="black"/>
<path d="M75.5567 49.8319H74.7696V48.155C74.4648 48.6861 74.0187 49.1254 73.4792 49.4254C72.9355 49.7511 72.3092 49.9185 71.6728 49.9081C71.1698 49.9197 70.6699 49.8273 70.2054 49.6369C69.7409 49.4465 69.322 49.1624 68.9759 48.8029C68.2655 48.0775 67.8758 47.1046 67.892 46.0971C67.8758 45.0895 68.2655 44.1166 68.9759 43.3912C69.3214 43.03 69.7398 42.744 70.2042 42.5515C70.6687 42.3589 71.1689 42.2642 71.6728 42.2733C72.3004 42.2675 72.9178 42.4299 73.4588 42.7432C73.9998 43.0565 74.444 43.5089 74.7438 44.0518V42.3749H75.5309L75.5567 49.8319ZM69.7759 48.0915C70.297 48.5822 70.9904 48.8562 71.7115 48.8562C72.4326 48.8562 73.1259 48.5822 73.647 48.0915C73.9146 47.8347 74.125 47.5259 74.2649 47.1847C74.4049 46.8436 74.4713 46.4775 74.4599 46.1098C74.4689 45.7423 74.4015 45.3769 74.2617 45.0361C74.1219 44.6953 73.9127 44.3863 73.647 44.128C73.129 43.6314 72.4345 43.3535 71.7115 43.3535C70.9884 43.3535 70.2939 43.6314 69.7759 44.128C69.5103 44.3863 69.3011 44.6953 69.1613 45.0361C69.0214 45.3769 68.954 45.7423 68.963 46.1098C68.9517 46.4775 69.0181 46.8436 69.158 47.1847C69.2979 47.5259 69.5084 47.8347 69.7759 48.0915Z" fill="black"/>
<path d="M81.7058 42.2768C82.467 42.2589 83.216 42.4624 83.8551 42.8607C84.45 43.2503 84.9094 43.8031 85.1736 44.4473C85.3015 44.7685 85.3771 45.1067 85.3977 45.4501C85.4316 45.7526 85.4048 46.0585 85.3186 46.3512H78.9106C78.8945 46.7012 78.9595 47.0501 79.1009 47.3728C79.2423 47.6955 79.4565 47.9839 79.728 48.2171C80.3102 48.6976 81.058 48.9512 81.8245 48.9279C82.7684 48.9312 83.69 48.6517 84.4616 48.1282L85.0681 48.7756C84.1478 49.5069 82.9915 49.9063 81.7982 49.9052C81.2606 49.9285 80.7237 49.846 80.2204 49.6627C79.7171 49.4793 79.2579 49.1991 78.871 48.839C78.4955 48.4829 78.2017 48.0549 78.0087 47.5826C77.8157 47.1104 77.7276 46.6044 77.7502 46.0974C77.723 45.0899 78.1118 44.1131 78.8315 43.3811C79.2006 43.0098 79.6482 42.7191 80.1441 42.5286C80.64 42.3381 81.1726 42.2522 81.7058 42.2768ZM81.7058 43.2796C81.358 43.2675 81.0112 43.3219 80.6853 43.4396C80.3594 43.5572 80.061 43.7358 79.8072 43.965C79.5598 44.1743 79.3588 44.4293 79.2161 44.715C79.0734 45.0007 78.9919 45.3111 78.9765 45.6277H84.2506C84.2661 45.3351 84.2073 45.0432 84.0792 44.7773C83.8955 44.3308 83.5732 43.9496 83.1562 43.6857C82.7243 43.4171 82.2201 43.2759 81.7058 43.2796V43.2796Z" fill="black"/>
<path d="M90.3417 43.3283V49.9091H89.2424V43.3283H86.507V42.2727H93.0771V43.3283H90.3417Z" fill="black"/>
<path d="M98.1406 42.2768C98.9009 42.2605 99.6489 42.4638 100.288 42.8607C100.883 43.2504 101.342 43.8032 101.606 44.4475C101.733 44.7686 101.809 45.1069 101.83 45.4503C101.853 45.7536 101.822 46.0585 101.737 46.3515H95.3606C95.3446 46.7015 95.4096 47.0504 95.5508 47.3732C95.6921 47.6959 95.9062 47.9843 96.1775 48.2175C96.7545 48.6972 97.4974 48.9509 98.2592 48.9284C99.2018 48.9283 100.122 48.6491 100.894 48.1286L101.5 48.776C100.576 49.5073 99.416 49.9066 98.2197 49.9058C97.6847 49.9273 97.1507 49.8439 96.6502 49.6606C96.1496 49.4773 95.693 49.198 95.3079 48.8395C94.931 48.4839 94.6355 48.0563 94.4403 47.5841C94.2452 47.1119 94.1548 46.6055 94.1749 46.0976C94.1512 45.0883 94.5445 44.1112 95.2684 43.3812C95.6373 43.0099 96.0845 42.7191 96.58 42.5286C97.0755 42.3381 97.6077 42.2522 98.1406 42.2768ZM98.1406 43.2796C97.4353 43.2589 96.7496 43.505 96.2302 43.9651C95.9872 44.1769 95.7899 44.4327 95.6498 44.7181C95.5096 45.0034 95.4292 45.3127 95.4133 45.628H100.683C100.692 45.3358 100.634 45.0454 100.512 44.7775C100.324 44.3334 100.003 43.9533 99.5898 43.6858C99.1582 43.4172 98.6544 43.276 98.1406 43.2796V43.2796Z" fill="black"/>
<path d="M105.122 47.7273L103.762 51H102.932L103.885 47.7273H105.122Z" fill="black"/>
<path d="M120.453 49.9091H119.36V44.1362L116.614 47.3289L113.881 44.1362V49.9091H112.788V42.2727H113.449L116.614 45.9736L119.792 42.2727H120.453V49.9091Z" fill="black"/>
<path d="M123.764 44.7481H126.34C126.755 44.7041 127.175 44.7487 127.572 44.8789C127.969 45.009 128.335 45.2219 128.646 45.5037C129.095 45.9961 129.34 46.6446 129.329 47.3146C129.336 47.6333 129.288 47.9507 129.187 48.2526C129.088 48.5478 128.935 48.8217 128.736 49.0604C128.484 49.344 128.165 49.5591 127.809 49.6857C127.336 49.8472 126.839 49.9222 126.34 49.9072H122.643V42.2727H123.751L123.764 44.7481ZM123.764 48.878H126.456C127.654 48.878 128.26 48.3568 128.26 47.3146C128.26 46.2724 127.654 45.7903 126.456 45.7903H123.764V48.878ZM131.403 49.9072H130.295V42.2727H131.403V49.9072Z" fill="black"/>
<path d="M139.068 42.2836H142.923C143.563 42.2228 144.201 42.4181 144.706 42.8293C144.901 43.007 145.055 43.2275 145.157 43.4748C145.259 43.722 145.306 43.9897 145.296 44.2583C145.327 44.6217 145.235 44.9851 145.036 45.2862C144.837 45.5872 144.542 45.8071 144.203 45.9082C144.62 45.9724 144.999 46.1963 145.264 46.5356C145.529 46.8748 145.661 47.3046 145.635 47.74C145.653 48.0442 145.603 48.3487 145.49 48.6301C145.377 48.9116 145.203 49.1625 144.982 49.3639C144.381 49.7737 143.664 49.9614 142.948 49.8965H139.068V42.2836ZM140.123 43.232V45.5314H142.86C143.751 45.5314 144.203 45.1547 144.203 44.3882C144.203 43.6217 143.751 43.232 142.847 43.232H140.123ZM140.123 48.9611H142.973C144.015 48.9611 144.542 48.5324 144.542 47.662C144.542 46.7916 144.015 46.3629 142.973 46.3629H140.123V48.9611Z" fill="black"/>
<path d="M150.566 42.2727C151.583 42.2727 152.557 42.6749 153.276 43.3909C153.995 44.1069 154.398 45.078 154.398 46.0905C154.398 47.1031 153.995 48.0741 153.276 48.7901C152.557 49.5061 151.583 49.9083 150.566 49.9083C150.061 49.9185 149.559 49.8255 149.091 49.6351C148.623 49.4447 148.199 49.1609 147.845 48.8011C147.486 48.4474 147.202 48.0249 147.011 47.5591C146.82 47.0932 146.726 46.5937 146.734 46.0905C146.734 45.078 147.138 44.1069 147.856 43.3909C148.575 42.6749 149.55 42.2727 150.566 42.2727ZM150.566 43.3162C150.207 43.3123 149.85 43.3813 149.519 43.5192C149.187 43.657 148.887 43.8608 148.637 44.118C148.374 44.3767 148.167 44.6863 148.029 45.0277C147.89 45.3691 147.823 45.7351 147.832 46.1032C147.821 46.4716 147.887 46.8383 148.025 47.1801C148.164 47.5219 148.372 47.8312 148.637 48.0885C148.885 48.3477 149.185 48.552 149.517 48.688C149.85 48.8239 150.207 48.8885 150.566 48.8775C150.932 48.8828 151.295 48.8144 151.634 48.6765C151.973 48.5386 152.28 48.334 152.538 48.075C152.796 47.816 152.998 47.5079 153.133 47.1691C153.269 46.8303 153.334 46.4678 153.325 46.1032C153.334 45.7351 153.268 45.3691 153.129 45.0277C152.991 44.6863 152.784 44.3767 152.521 44.118C152.264 43.8551 151.956 43.648 151.615 43.51C151.274 43.372 150.908 43.306 150.541 43.3162H150.566Z" fill="black"/>
<path d="M163.159 49.9091H162.123V43.3283H157.649V49.9091H156.589V42.2727H163.134L163.159 49.9091Z" fill="black"/>
<path d="M169.155 43.9929L166.501 49.9091H165.349L168.845 42.2727H169.505L173.014 49.9091H171.823L169.155 43.9929Z" fill="black"/>
<path d="M177.959 42.2727C178.59 42.2785 179.209 42.4375 179.762 42.736C180.316 43.0344 180.788 43.4631 181.135 43.9844C181.483 44.5057 181.696 45.1036 181.756 45.7258C181.817 46.3479 181.722 46.9752 181.481 47.5526C181.24 48.1299 180.859 48.6398 180.373 49.0373C179.886 49.4348 179.309 49.7078 178.692 49.8324C178.074 49.957 177.435 49.9294 176.831 49.752C176.227 49.5745 175.675 49.2527 175.226 48.8147C174.865 48.4609 174.58 48.0384 174.388 47.5724C174.196 47.1065 174.101 46.6069 174.109 46.1037C174.109 45.091 174.515 44.1199 175.237 43.4038C175.959 42.6877 176.938 42.2854 177.959 42.2854V42.2727ZM177.959 43.3164C177.598 43.3109 177.24 43.3793 176.906 43.5172C176.573 43.6552 176.272 43.8598 176.022 44.1182C175.498 44.6486 175.205 45.3614 175.205 46.1037C175.205 46.846 175.498 47.5588 176.022 48.0892C176.54 48.5809 177.229 48.8553 177.947 48.8553C178.664 48.8553 179.353 48.5809 179.872 48.0892C180.138 47.8319 180.347 47.5225 180.486 47.1807C180.625 46.8389 180.691 46.4721 180.68 46.1037C180.689 45.7355 180.622 45.3695 180.483 45.028C180.344 44.6866 180.136 44.3769 179.872 44.1182C179.622 43.8631 179.322 43.6606 178.992 43.5229C178.661 43.3851 178.305 43.3149 177.947 43.3164H177.959Z" fill="black"/>
<path d="M196.009 51H194.945V49.4155H183.964V42.2727H185.028V48.4403H188.785V42.2727H189.862V48.4403H193.618V42.2727H194.682V48.4403H196.009V51Z" fill="black"/>
<path d="M204.77 49.8319H203.982V48.155C203.681 48.689 203.234 49.1291 202.692 49.4254C202.148 49.7511 201.522 49.9185 200.886 49.9081C200.383 49.9197 199.883 49.8273 199.418 49.6369C198.954 49.4465 198.535 49.1624 198.189 48.8029C197.478 48.0775 197.089 47.1046 197.105 46.0971C197.089 45.0895 197.478 44.1166 198.189 43.3912C198.534 43.03 198.953 42.744 199.417 42.5515C199.882 42.3589 200.382 42.2642 200.886 42.2733C201.513 42.2675 202.131 42.4299 202.672 42.7432C203.213 43.0565 203.657 43.5089 203.957 44.0518V42.3749H204.744L204.77 49.8319ZM198.989 48.0915C199.51 48.5822 200.203 48.8562 200.924 48.8562C201.645 48.8562 202.339 48.5822 202.86 48.0915C203.127 47.8347 203.338 47.5259 203.478 47.1847C203.618 46.8436 203.684 46.4775 203.673 46.1098C203.682 45.7423 203.614 45.3769 203.475 45.0361C203.335 44.6953 203.126 44.3863 202.86 44.128C202.342 43.6314 201.647 43.3535 200.924 43.3535C200.201 43.3535 199.507 43.6314 198.989 44.128C198.723 44.3863 198.514 44.6953 198.374 45.0361C198.234 45.3769 198.167 45.7423 198.176 46.1098C198.165 46.4775 198.231 46.8436 198.371 47.1847C198.511 47.5259 198.721 47.8347 198.989 48.0915V48.0915Z" fill="black"/>
<path d="M210.925 42.2774C211.685 42.2595 212.433 42.463 213.071 42.8613C213.668 43.2472 214.127 43.8011 214.387 44.4477C214.515 44.7689 214.59 45.1071 214.611 45.4504C214.644 45.7529 214.618 46.0588 214.532 46.3515H208.135C208.119 46.7014 208.184 47.0503 208.325 47.373C208.466 47.6957 208.68 47.9841 208.951 48.2172C209.532 48.6977 210.278 48.9512 211.044 48.928C211.985 48.9263 212.904 48.6473 213.676 48.1284L214.268 48.7757C213.35 49.5069 212.195 49.9063 211.004 49.9052C210.467 49.9285 209.931 49.846 209.429 49.6627C208.927 49.4794 208.468 49.1991 208.082 48.8391C207.707 48.483 207.414 48.055 207.221 47.5828C207.028 47.1106 206.941 46.6047 206.963 46.0977C206.936 45.0903 207.324 44.1136 208.042 43.3816C208.412 43.0087 208.862 42.717 209.359 42.5265C209.856 42.3359 210.391 42.251 210.925 42.2774V42.2774ZM210.925 43.2801C210.578 43.2681 210.232 43.3225 209.906 43.4401C209.581 43.5577 209.283 43.7363 209.03 43.9655C208.783 44.1747 208.582 44.4298 208.44 44.7154C208.297 45.0011 208.216 45.3115 208.2 45.6281H213.465C213.481 45.3354 213.422 45.0436 213.294 44.7777C213.111 44.3312 212.789 43.95 212.373 43.6862C211.942 43.4176 211.438 43.2764 210.925 43.2801V43.2801Z" fill="black"/>
<path d="M224.48 49.9091H223.398V44.1362L220.647 47.3289L217.897 44.1362V49.9091H216.815V42.2727H217.464L220.647 45.9736L223.831 42.2727H224.48V49.9091Z" fill="black"/>
<path d="M229.089 39L227.651 42.2727H226.67L227.637 39H229.089ZM231.05 39L229.613 42.2727H228.632L229.599 39H231.05Z" fill="black"/>
<path d="M0 42.2727L1.43764 39H2.41846L1.45108 42.2727H0ZM1.96164 42.2727L3.39928 39H4.3801L3.41272 42.2727H1.96164Z" fill="black"/>
</svg>
