<svg width="91" height="20" viewBox="0 0 91 20" fill="none" xmlns="http://www.w3.org/2000/svg">
<path d="M10.21 11.7577H6.40581L3.42595 6.72269V11.7647H0V0H3.42595V4.70588L6.23452 0H10.0387L6.47005 5.71428L10.21 11.7577Z" fill="black"/>
<path d="M19.4876 3.52942H22.7763L20.3168 11.7647H17.1546L16.1005 7.89412L15.0464 11.7647H11.8842L9.42468 3.52942H12.7134L13.6902 8.09314L14.9059 3.52942H17.267L18.4792 8.09314L19.4876 3.52942Z" fill="black"/>
<path d="M23.9543 11.7647V3.52942H27.0959V11.7647H23.9543Z" fill="black"/>
<path d="M37.6986 11.7647H34.157L32.7899 9.9194L31.412 11.7613H27.8812L31.0317 7.54931L28.0176 3.52942H31.5484L32.7899 5.19294L34.0278 3.52942H37.5586L34.5625 7.54931L37.6986 11.7647Z" fill="black"/>
<path d="M57.0412 3.13935C57.6167 3.1207 58.1893 3.22642 58.7171 3.4488C59.2449 3.67118 59.7146 4.00459 60.0918 4.42468C60.8645 5.26412 61.2813 6.35368 61.2594 7.47646C61.2594 7.52114 61.2594 7.58644 61.2594 7.67579C61.2594 7.76514 61.2594 7.82701 61.2594 7.87168H53.5028C53.5733 8.73333 53.9866 9.53514 54.6561 10.109C55.2479 10.5733 55.9666 10.8617 56.7249 10.9392C57.4832 11.0167 58.2485 10.8799 58.9278 10.5454C59.4137 10.2958 59.8162 9.91796 60.0883 9.456L60.8394 9.88559C60.4798 10.469 59.9599 10.9448 59.3372 11.2603C58.6514 11.603 57.888 11.7755 57.1159 11.762C56.5206 11.7825 55.9272 11.6855 55.372 11.4769C54.8168 11.2683 54.3116 10.9525 53.8872 10.5489C53.4681 10.1446 53.1396 9.66137 52.9222 9.12925C52.7048 8.59714 52.6031 8.02752 52.6235 7.45584C52.6064 6.88922 52.7073 6.32504 52.92 5.79671C53.1328 5.26838 53.4532 4.78663 53.8623 4.38C54.2747 3.97243 54.77 3.65178 55.3171 3.43825C55.8643 3.22472 56.4513 3.12294 57.0412 3.13935ZM57.0412 3.9298C56.145 3.90446 55.274 4.21763 54.6134 4.80271C53.962 5.39494 53.5655 6.2023 53.5028 7.06406H60.373C60.3319 6.19016 59.943 5.36532 59.2873 4.76147C58.6769 4.21616 57.8727 3.91838 57.0412 3.9298Z" fill="black"/>
<path d="M70.6237 0H71.4703V11.5803H70.6237V9.66405C70.2857 10.301 69.7726 10.8333 69.1421 11.2012C68.4895 11.58 67.7422 11.7745 66.9833 11.763C66.3925 11.7793 65.8045 11.6797 65.2538 11.4701C64.7032 11.2605 64.2011 10.9451 63.7774 10.5427C63.3537 10.1402 63.0169 9.65882 62.7869 9.12696C62.5569 8.59511 62.4384 8.02359 62.4384 7.44621C62.4384 6.86883 62.5569 6.29731 62.7869 5.76546C63.0169 5.2336 63.3537 4.75221 63.7774 4.34975C64.2011 3.94728 64.7032 3.63193 65.2538 3.42233C65.8045 3.21272 66.3925 3.11313 66.9833 3.12944C67.7422 3.11797 68.4895 3.31244 69.1421 3.69123C69.7733 4.05826 70.2866 4.59078 70.6237 5.22837V0ZM64.4857 9.94322C65.1631 10.6009 66.0794 10.9701 67.0344 10.9701C67.9894 10.9701 68.9056 10.6009 69.5831 9.94322C70.2504 9.27556 70.6239 8.37939 70.6239 7.44621C70.6239 6.51303 70.2504 5.61686 69.5831 4.94921C68.9056 4.2915 67.9894 3.92235 67.0344 3.92235C66.0794 3.92235 65.1631 4.2915 64.4857 4.94921C63.8184 5.61686 63.4449 6.51303 63.4449 7.44621C63.4449 8.37939 63.8184 9.27556 64.4857 9.94322Z" fill="black"/>
<path d="M74.2191 11.7647V3.52942H75.0045V11.7647H74.2191Z" fill="black"/>
<path d="M50.5628 4.39757C50.2441 4.0967 49.8663 3.86485 49.453 3.71666C49.0398 3.56847 48.6002 3.50716 48.162 3.5366C47.1029 3.5366 46.6721 3.6877 46.2061 3.9829C45.8417 4.21858 45.5449 4.54428 45.3446 4.92821C45.1421 4.54477 44.8443 4.21933 44.4797 3.9829C44.0136 3.6877 43.5617 3.5366 42.5626 3.5366C41.4434 3.5366 40.6878 3.82476 40.123 4.39757C39.8277 4.72309 39.6007 5.10398 39.4552 5.51793C39.3097 5.93188 39.2486 6.37057 39.2756 6.80829V12.1569H40.1371V9.05385C40.1371 8.2983 40.0982 7.5287 40.1371 6.77315C40.1536 6.26206 40.3098 5.76513 40.589 5.33585C40.9767 4.83573 41.5457 4.50651 42.1742 4.41865C42.6046 4.33384 43.0504 4.37285 43.4593 4.53111C43.834 4.69857 44.1517 4.97084 44.3737 5.31477C44.7475 5.91793 44.9364 6.61648 44.9174 7.32488V12.1569H45.786V9.34553C45.786 8.25262 45.6447 7.05429 45.9872 6.00706C46.0996 5.66911 46.2867 5.36056 46.5348 5.10417C46.783 4.84778 47.0857 4.65007 47.4208 4.52563C47.7559 4.40119 48.1147 4.35319 48.4709 4.38515C48.8271 4.41712 49.1716 4.52824 49.4789 4.71033C49.7733 4.92258 50.0197 5.19395 50.2021 5.5069C50.3846 5.81986 50.499 6.16743 50.5381 6.52716C50.6263 7.44754 50.6441 8.37327 50.591 9.29633V12.1428H51.4384V6.80829C51.4616 6.36863 51.396 5.92879 51.2457 5.51474C51.0953 5.1007 50.8631 4.72083 50.5628 4.39757Z" fill="black"/>
<path fill-rule="evenodd" clip-rule="evenodd" d="M85.2146 9.8827C84.4013 11.019 83.0338 11.7647 81.484 11.7647C78.9899 11.7647 76.968 9.83338 76.968 7.45098C76.968 5.06857 78.9899 3.13725 81.484 3.13725C83.9781 3.13725 86 5.06857 86 7.45098L86 7.45098V11.7647H85.2146V9.8827ZM85.2146 7.45098C85.2146 9.40022 83.5443 10.9804 81.484 10.9804C79.4237 10.9804 77.7534 9.40022 77.7534 7.45098C77.7534 5.50174 79.4237 3.92157 81.484 3.92157C83.5443 3.92157 85.2146 5.50174 85.2146 7.45098Z" fill="black"/>
<path d="M2.56836 15.2941H4.02968C4.91135 15.2941 5.35462 15.6228 5.35462 16.2848C5.3719 16.4709 5.32091 16.657 5.21054 16.8105C5.10017 16.9641 4.93741 17.0755 4.7506 17.1253C4.98431 17.164 5.19737 17.2782 5.35462 17.4493C5.49853 17.629 5.57263 17.8516 5.56408 18.0785C5.56408 18.7922 5.10132 19.1444 4.17582 19.1444H2.58297L2.56836 15.2941ZM3.01163 15.6979V16.9516H4.05404C4.62883 16.9516 4.91622 16.7403 4.91622 16.3224C4.92232 16.2363 4.90941 16.15 4.87835 16.069C4.84728 15.9881 4.79876 15.9144 4.73599 15.8529C4.53916 15.7149 4.29589 15.6529 4.05404 15.6791L3.01163 15.6979ZM3.01163 17.3366V18.7453H4.23914C4.83342 18.7453 5.13055 18.5105 5.13055 18.0409C5.13563 17.9442 5.11814 17.8475 5.07936 17.7582C5.04059 17.6688 4.98151 17.5889 4.90648 17.5244C4.71557 17.3849 4.47798 17.318 4.23914 17.3366H3.01163Z" fill="black"/>
<path d="M6.8589 17.5482H7.86609C8.02839 17.5313 8.19239 17.5489 8.34761 17.6C8.50282 17.651 8.64584 17.7343 8.76753 17.8445C8.94319 18.0376 9.03878 18.2919 9.03443 18.5547C9.03484 18.6794 9.01615 18.8035 8.97904 18.9225C8.94028 19.0394 8.87861 19.1471 8.79774 19.2392C8.70087 19.3526 8.57559 19.4374 8.43515 19.4845C8.25224 19.5483 8.0594 19.5777 7.86609 19.5713H6.42078V16.5775H6.85387L6.8589 17.5482ZM6.8589 19.1677H7.91645C8.38479 19.1677 8.62148 18.9634 8.62148 18.5547C8.62148 18.1459 8.38479 17.9569 7.91645 17.9569H6.8589V19.1677ZM9.84522 19.5713H9.41716V16.5775H9.84522V19.5713Z" fill="black"/>
<path d="M15.8381 19.5722H15.41V17.3083L14.3399 18.5603L13.2647 17.3083V19.5722H12.8417V16.5775H13.0955L14.3399 18.0289L15.5792 16.5775H15.8381V19.5722Z" fill="black"/>
<path d="M18.2417 16.5791C18.5391 16.5727 18.8317 16.6525 19.0817 16.8081C19.3143 16.9609 19.4938 17.1777 19.5971 17.4303C19.6471 17.5562 19.6767 17.6889 19.6847 17.8235C19.6992 17.9425 19.6869 18.063 19.6486 18.1769H17.1491C17.1428 18.3142 17.1682 18.451 17.2235 18.5776C17.2788 18.7041 17.3625 18.8172 17.4686 18.9087C17.6962 19.0971 17.9885 19.1965 18.2881 19.1874C18.6569 19.1877 19.0168 19.0782 19.3188 18.8738L19.5559 19.1277C19.1957 19.4137 18.744 19.5703 18.2778 19.5707C18.0676 19.5798 17.8578 19.5474 17.6611 19.4755C17.4643 19.4037 17.2849 19.2937 17.1336 19.1526C16.9869 19.0129 16.872 18.845 16.7966 18.6598C16.7211 18.4746 16.6867 18.2762 16.6956 18.0774C16.6849 17.6823 16.8369 17.2993 17.1182 17.0122C17.2625 16.8666 17.4374 16.7526 17.6313 16.6779C17.8251 16.6032 18.0332 16.5695 18.2417 16.5791ZM18.2417 16.9724C18.1057 16.9677 17.9702 16.989 17.8428 17.0351C17.7154 17.0812 17.5988 17.1513 17.4995 17.2412C17.4029 17.3232 17.3243 17.4233 17.2685 17.5353C17.2127 17.6473 17.1809 17.769 17.1749 17.8932H19.2363C19.2424 17.7784 19.2194 17.664 19.1693 17.5597C19.0958 17.3856 18.9702 17.2365 18.8086 17.1317C18.6397 17.0263 18.4427 16.9709 18.2417 16.9724Z" fill="black"/>
<path d="M22.687 19.5722H22.2933V18.3968C22.1951 18.5675 22.0557 18.7055 21.8903 18.7956C21.725 18.8858 21.5401 18.9246 21.356 18.9078C20.5311 18.9078 20.1187 18.407 20.1187 17.4054V16.5775H20.517V17.385C20.4946 17.6812 20.5657 17.9769 20.7186 18.2231C20.8074 18.3231 20.9162 18.3995 21.0365 18.4465C21.1567 18.4934 21.2853 18.5097 21.4122 18.4939C21.5377 18.5075 21.6644 18.4893 21.7823 18.4405C21.9002 18.3917 22.0061 18.3138 22.0918 18.2128C22.2346 18.0057 22.3075 17.7512 22.298 17.4923V16.5775H22.687V19.5722Z" fill="black"/>
<path d="M25.0391 16.9915V19.5722H24.6152V16.9915H23.543V16.5775H26.1113V16.9915H25.0391Z" fill="black"/>
<path d="M29.5358 19.5419H29.2281V18.8843C29.109 19.0926 28.9346 19.2648 28.7237 19.3825C28.5112 19.5102 28.2663 19.5759 28.0175 19.5718C27.8209 19.5763 27.6255 19.5401 27.4439 19.4654C27.2623 19.3908 27.0986 19.2794 26.9633 19.1384C26.6856 18.8539 26.5333 18.4724 26.5396 18.0773C26.5333 17.6822 26.6856 17.3006 26.9633 17.0162C27.0984 16.8745 27.2619 16.7623 27.4435 16.6868C27.625 16.6113 27.8206 16.5742 28.0175 16.5778C28.2629 16.5755 28.5042 16.6392 28.7157 16.762C28.9272 16.8849 29.1009 17.0623 29.218 17.2752V16.6176H29.5257L29.5358 19.5419ZM27.2761 18.8594C27.4798 19.0518 27.7508 19.1593 28.0327 19.1593C28.3146 19.1593 28.5856 19.0518 28.7893 18.8594C28.8939 18.7587 28.9761 18.6376 29.0308 18.5038C29.0855 18.37 29.1115 18.2265 29.1071 18.0822C29.1106 17.9382 29.0842 17.7949 29.0296 17.6612C28.9749 17.5276 28.8931 17.4064 28.7893 17.3051C28.5868 17.1103 28.3153 17.0014 28.0327 17.0014C27.75 17.0014 27.4786 17.1103 27.2761 17.3051C27.1722 17.4064 27.0904 17.5276 27.0358 17.6612C26.9811 17.7949 26.9547 17.9382 26.9583 18.0822C26.9538 18.2265 26.9798 18.37 27.0345 18.5038C27.0892 18.6376 27.1715 18.7587 27.2761 18.8594Z" fill="black"/>
<path d="M31.9396 16.5791C32.2371 16.5721 32.5299 16.6519 32.7798 16.8081C33.0123 16.9609 33.1919 17.1777 33.2952 17.4303C33.3452 17.5562 33.3747 17.6889 33.3828 17.8235C33.396 17.9422 33.3855 18.0621 33.3519 18.1769H30.8469C30.8406 18.3142 30.8661 18.451 30.9213 18.5776C30.9766 18.7041 31.0603 18.8172 31.1665 18.9087C31.394 19.0971 31.6864 19.1965 31.986 19.1874C32.355 19.1887 32.7152 19.0791 33.0169 18.8738L33.2539 19.1277C32.8942 19.4144 32.4422 19.5711 31.9757 19.5707C31.7655 19.5798 31.5557 19.5474 31.3589 19.4755C31.1622 19.4037 30.9827 19.2937 30.8314 19.1526C30.6847 19.0129 30.5698 18.845 30.4944 18.6598C30.4189 18.4746 30.3845 18.2762 30.3933 18.0774C30.3827 17.6823 30.5347 17.2993 30.816 17.0122C30.9603 16.8666 31.1353 16.7526 31.3291 16.6779C31.523 16.6032 31.7311 16.5695 31.9396 16.5791ZM31.9396 16.9724C31.8036 16.9677 31.6681 16.989 31.5407 17.0351C31.4133 17.0812 31.2966 17.1513 31.1974 17.2412C31.1007 17.3232 31.0221 17.4233 30.9663 17.5353C30.9106 17.6473 30.8787 17.769 30.8727 17.8932H32.9344C32.9405 17.7784 32.9175 17.664 32.8674 17.5597C32.7956 17.3846 32.6696 17.2351 32.5066 17.1317C32.3377 17.0263 32.1406 16.9709 31.9396 16.9724Z" fill="black"/>
<path d="M35.3154 16.9915V19.5722H34.8857V16.9915H33.8164V16.5775H36.3847V16.9915H35.3154Z" fill="black"/>
<path d="M38.364 16.5791C38.6613 16.5727 38.9536 16.6525 39.2035 16.8081C39.4359 16.9609 39.6154 17.1777 39.7186 17.4304C39.7685 17.5563 39.7981 17.689 39.8061 17.8236C39.8154 17.9426 39.8032 18.0622 39.7701 18.1771H37.2773C37.2711 18.3143 37.2965 18.4511 37.3517 18.5777C37.4069 18.7043 37.4906 18.8174 37.5967 18.9088C37.8222 19.0969 38.1126 19.1964 38.4104 19.1876C38.7789 19.1876 39.1385 19.0781 39.4405 18.874L39.6774 19.1278C39.3159 19.4146 38.8626 19.5712 38.395 19.5709C38.1858 19.5793 37.9771 19.5466 37.7814 19.4747C37.5858 19.4029 37.4073 19.2933 37.2567 19.1527C37.1094 19.0133 36.9939 18.8456 36.9176 18.6604C36.8413 18.4752 36.806 18.2767 36.8138 18.0775C36.8046 17.6817 36.9583 17.2985 37.2413 17.0122C37.3855 16.8666 37.5603 16.7526 37.754 16.6779C37.9477 16.6032 38.1557 16.5695 38.364 16.5791ZM38.364 16.9724C38.0883 16.9643 37.8203 17.0608 37.6173 17.2412C37.5223 17.3242 37.4452 17.4246 37.3904 17.5365C37.3356 17.6484 37.3042 17.7697 37.2979 17.8933H39.3581C39.3615 17.7787 39.3386 17.6648 39.2911 17.5598C39.2176 17.3856 39.0921 17.2366 38.9306 17.1317C38.7618 17.0263 38.5649 16.971 38.364 16.9724Z" fill="black"/>
<path d="M41.0933 18.7166L40.5615 20H40.2372L40.6094 18.7166H41.0933Z" fill="black"/>
<path d="M47.0861 19.5722H46.6588V17.3083L45.5854 18.5603L44.5171 17.3083V19.5722H44.0897V16.5775H44.3481L45.5854 18.0289L46.8277 16.5775H47.0861V19.5722Z" fill="black"/>
<path d="M48.3803 17.5482H49.3874C49.5498 17.531 49.7138 17.5485 49.8691 17.5995C50.0244 17.6506 50.1674 17.7341 50.2889 17.8446C50.4645 18.0377 50.5601 18.292 50.5558 18.5547C50.5587 18.6797 50.5399 18.8042 50.5004 18.9226C50.4615 19.0384 50.4017 19.1458 50.3241 19.2393C50.2254 19.3506 50.1007 19.4349 49.9615 19.4846C49.7768 19.5479 49.5824 19.5773 49.3874 19.5714H47.9421V16.5775H48.3752L48.3803 17.5482ZM48.3803 19.1678H49.4328C49.9011 19.1678 50.1378 18.9635 50.1378 18.5547C50.1378 18.146 49.9011 17.957 49.4328 17.957H48.3803V19.1678ZM51.3666 19.5714H50.9335V16.5775H51.3666V19.5714Z" fill="black"/>
<path d="M54.363 16.5818H55.8698C56.12 16.5579 56.3694 16.6345 56.5668 16.7958C56.643 16.8655 56.7033 16.952 56.7432 17.0489C56.7831 17.1459 56.8016 17.2508 56.7975 17.3562C56.8097 17.4987 56.7738 17.6412 56.6959 17.7593C56.618 17.8773 56.5029 17.9636 56.3705 18.0032C56.5335 18.0284 56.6814 18.1162 56.785 18.2492C56.8887 18.3823 56.9404 18.5508 56.93 18.7215C56.937 18.8409 56.9176 18.9603 56.8734 19.0706C56.8292 19.181 56.7612 19.2794 56.6748 19.3584C56.44 19.5191 56.1598 19.5927 55.8796 19.5673H54.363V16.5818ZM54.7753 16.9537V17.8555H55.8453C56.1938 17.8555 56.3705 17.7077 56.3705 17.4071C56.3705 17.1065 56.1938 16.9537 55.8404 16.9537H54.7753ZM54.7753 19.2004H55.8895C56.2968 19.2004 56.503 19.0323 56.503 18.691C56.503 18.3496 56.2968 18.1815 55.8895 18.1815H54.7753V19.2004Z" fill="black"/>
<path d="M58.8577 16.5775C59.255 16.5775 59.636 16.7353 59.917 17.016C60.1979 17.2968 60.3558 17.6776 60.3558 18.0747C60.3558 18.4718 60.1979 18.8526 59.917 19.1334C59.636 19.4141 59.255 19.5719 58.8577 19.5719C58.6601 19.5759 58.4638 19.5394 58.2809 19.4647C58.098 19.3901 57.9323 19.2788 57.794 19.1377C57.6536 18.999 57.5427 18.8333 57.468 18.6506C57.3934 18.4679 57.3565 18.272 57.3596 18.0747C57.3596 17.6776 57.5174 17.2968 57.7983 17.016C58.0793 16.7353 58.4603 16.5775 58.8577 16.5775ZM58.8577 16.9867C58.7172 16.9852 58.5779 17.0123 58.4482 17.0663C58.3186 17.1204 58.2013 17.2003 58.1036 17.3012C58.0008 17.4026 57.9198 17.524 57.8657 17.6579C57.8116 17.7918 57.7855 17.9353 57.789 18.0797C57.7846 18.2242 57.8103 18.368 57.8645 18.502C57.9186 18.636 58.0001 18.7573 58.1036 18.8582C58.2005 18.9599 58.3177 19.04 58.4476 19.0933C58.5775 19.1466 58.7173 19.172 58.8577 19.1677C59.0007 19.1697 59.1427 19.1429 59.2752 19.0888C59.4076 19.0347 59.5278 18.9545 59.6285 18.8529C59.7292 18.7514 59.8084 18.6305 59.8613 18.4977C59.9142 18.3648 59.9397 18.2226 59.9363 18.0797C59.9398 17.9353 59.9137 17.7918 59.8596 17.6579C59.8055 17.524 59.7245 17.4026 59.6217 17.3012C59.5215 17.1981 59.4009 17.1169 59.2677 17.0627C59.1345 17.0086 58.9914 16.9827 58.8477 16.9867H58.8577Z" fill="black"/>
<path d="M63.7802 19.5722H63.3755V16.9915H61.6263V19.5722H61.2119V16.5775H63.7706L63.7802 19.5722Z" fill="black"/>
<path d="M66.1243 17.2521L65.0867 19.5722H64.6362L66.0028 16.5775H66.261L67.6326 19.5722H67.167L66.1243 17.2521Z" fill="black"/>
<path d="M69.566 16.5775C69.8124 16.5798 70.0544 16.6422 70.2708 16.7592C70.4873 16.8762 70.6715 17.0443 70.8074 17.2488C70.9433 17.4532 71.0267 17.6877 71.0503 17.9317C71.0738 18.1756 71.0368 18.4216 70.9425 18.6481C70.8482 18.8745 70.6995 19.0744 70.5094 19.2303C70.3193 19.3862 70.0936 19.4933 69.8522 19.5421C69.6108 19.591 69.361 19.5801 69.1248 19.5106C68.8886 19.441 68.6732 19.3148 68.4974 19.143C68.3563 19.0043 68.2449 18.8386 68.1699 18.6558C68.0949 18.4731 68.0579 18.2772 68.061 18.0799C68.061 17.6827 68.2195 17.3019 68.5018 17.0211C68.784 16.7403 69.1668 16.5825 69.566 16.5825V16.5775ZM69.566 16.9868C69.4248 16.9847 69.2847 17.0115 69.1544 17.0656C69.024 17.1197 68.9063 17.1999 68.8085 17.3012C68.6038 17.5093 68.4892 17.7888 68.4892 18.0799C68.4892 18.371 68.6038 18.6505 68.8085 18.8585C69.0111 19.0513 69.2806 19.1589 69.561 19.1589C69.8414 19.1589 70.1109 19.0513 70.3135 18.8585C70.4176 18.7576 70.4994 18.6363 70.5538 18.5022C70.6082 18.3682 70.634 18.2244 70.6296 18.0799C70.6331 17.9355 70.6069 17.7919 70.5525 17.658C70.4981 17.5241 70.4168 17.4027 70.3135 17.3012C70.2158 17.2012 70.0987 17.1218 69.9694 17.0678C69.8402 17.0138 69.7012 16.9862 69.561 16.9868H69.566Z" fill="black"/>
<path d="M76.6218 20H76.2058V19.3786H71.9132V16.5775H72.3293V18.9962H73.7976V16.5775H74.2186V18.9962H75.6869V16.5775H76.103V18.9962H76.6218V20Z" fill="black"/>
<path d="M80.0463 19.5419H79.7386V18.8843C79.621 19.0937 79.4462 19.2663 79.2342 19.3825C79.0217 19.5102 78.7768 19.5759 78.528 19.5718C78.3314 19.5763 78.136 19.5401 77.9544 19.4654C77.7728 19.3908 77.6091 19.2794 77.4738 19.1384C77.1961 18.8539 77.0438 18.4724 77.0501 18.0773C77.0438 17.6822 77.1961 17.3006 77.4738 17.0162C77.6089 16.8745 77.7724 16.7623 77.954 16.6868C78.1355 16.6113 78.3311 16.5742 78.528 16.5778C78.7734 16.5755 79.0147 16.6392 79.2262 16.762C79.4377 16.8849 79.6114 17.0623 79.7285 17.2752V16.6176H80.0362L80.0463 19.5419ZM77.7866 18.8594C77.9903 19.0518 78.2613 19.1593 78.5432 19.1593C78.8251 19.1593 79.0961 19.0518 79.2998 18.8594C79.4044 18.7587 79.4866 18.6376 79.5414 18.5038C79.5961 18.37 79.622 18.2265 79.6176 18.0822C79.6211 17.9382 79.5947 17.7949 79.5401 17.6612C79.4854 17.5276 79.4036 17.4064 79.2998 17.3051C79.0973 17.1103 78.8258 17.0014 78.5432 17.0014C78.2605 17.0014 77.989 17.1103 77.7866 17.3051C77.6827 17.4064 77.6009 17.5276 77.5463 17.6612C77.4916 17.7949 77.4652 17.9382 77.4688 18.0822C77.4643 18.2265 77.4903 18.37 77.545 18.5038C77.5997 18.6376 77.682 18.7587 77.7866 18.8594Z" fill="black"/>
<path d="M82.4525 16.5794C82.7495 16.5724 83.0418 16.6521 83.2912 16.8083C83.5247 16.9597 83.7043 17.1769 83.8057 17.4305C83.8557 17.5564 83.8851 17.689 83.8932 17.8237C83.9064 17.9423 83.8959 18.0623 83.8623 18.1771H81.3617C81.3554 18.3143 81.3808 18.4511 81.4359 18.5776C81.4911 18.7042 81.5747 18.8173 81.6807 18.9087C81.9079 19.0971 82.1997 19.1965 82.4988 19.1874C82.8668 19.1868 83.2259 19.0774 83.5279 18.8739L83.7594 19.1277C83.4003 19.4145 82.949 19.5711 82.4834 19.5707C82.2736 19.5798 82.0641 19.5474 81.8677 19.4756C81.6712 19.4037 81.4921 19.2938 81.3411 19.1526C81.1945 19.0129 81.0799 18.8451 81.0046 18.6599C80.9292 18.4747 80.8949 18.2763 80.9037 18.0775C80.8931 17.6824 81.0448 17.2994 81.3256 17.0124C81.4703 16.8661 81.6458 16.7518 81.8403 16.677C82.0347 16.6023 82.2435 16.569 82.4525 16.5794ZM82.4525 16.9726C82.3168 16.9679 82.1814 16.9892 82.0542 17.0353C81.9271 17.0814 81.8106 17.1515 81.7115 17.2413C81.615 17.3234 81.5366 17.4234 81.4809 17.5355C81.4252 17.6475 81.3934 17.7692 81.3874 17.8934H83.4455C83.4516 17.7786 83.4286 17.6641 83.3786 17.5599C83.3069 17.3848 83.1812 17.2353 83.0185 17.1318C82.8499 17.0265 82.6532 16.9711 82.4525 16.9726Z" fill="black"/>
<path d="M87.7513 19.5722H87.3282V17.3083L86.2531 18.5603L85.1779 17.3083V19.5722H84.7549V16.5775H85.0087L86.2531 18.0289L87.4974 16.5775H87.7513V19.5722Z" fill="black"/>
<path d="M89.5528 15.2941L88.9908 16.5775H88.6074L88.9856 15.2941H89.5528ZM90.3196 15.2941L89.7577 16.5775H89.3742L89.7524 15.2941H90.3196Z" fill="black"/>
<path d="M0 16.5775L0.561987 15.2941H0.945398L0.567239 16.5775H0ZM0.766823 16.5775L1.32881 15.2941H1.71222L1.33406 16.5775H0.766823Z" fill="black"/>
</svg>
