<svg width="113" height="120" viewBox="0 0 113 120" fill="none" xmlns="http://www.w3.org/2000/svg">
<path d="M110.623 31.8715H103.123C102.088 31.8715 101.249 32.711 101.249 33.7463C101.249 34.7816 102.088 35.6211 103.123 35.6211H106.492L96.7767 46.7236L91.7883 45.8924H91.7875C91.5682 44.652 90.9388 43.5214 89.9997 42.6819V1.87483C89.9997 1.37767 89.8022 0.900583 89.4507 0.549058C89.0991 0.197532 88.622 0 88.1249 0H73.1262C72.0909 0 71.2514 0.839496 71.2514 1.87483V45.9451C70.0177 45.6271 68.7655 45.3885 67.5017 45.2304V11.2499C67.5017 10.7527 67.3042 10.2756 66.9527 9.92409C66.6012 9.57257 66.1241 9.37503 65.6269 9.37503H50.6283C49.5929 9.37503 48.7534 10.2145 48.7534 11.2499V49.0229C47.4402 49.7845 46.1872 50.645 45.0038 51.5958V26.2481C45.0038 25.7509 44.8062 25.2738 44.4547 24.9223C44.1032 24.5708 43.6261 24.3733 43.1289 24.3733H28.1303C27.0949 24.3733 26.2554 25.2128 26.2554 26.2481V71.244C24.8711 71.2432 23.5353 71.7546 22.5058 72.6811V39.3713C22.5058 38.8741 22.3083 38.397 21.9567 38.0455C21.6052 37.694 21.1281 37.4964 20.631 37.4964H5.6323C4.59697 37.4964 3.75747 38.3359 3.75747 39.3713V82.6531L0.402917 86.9652C0.093238 87.3569 -0.0465491 87.8566 0.013724 88.3521C0.0739972 88.8476 0.33011 89.2987 0.724317 89.6059C1.11852 89.9122 1.61822 90.0486 2.11371 89.985C2.6092 89.9214 3.05866 89.6628 3.36247 89.2669L15.5422 73.607L20.6746 76.1733H20.6754C20.462 77.8765 21.0386 79.5848 22.2414 80.8111C23.4441 82.0373 25.1406 82.6466 26.849 82.465C28.5564 82.2842 30.088 81.3334 31.007 79.882C31.926 78.4315 32.1319 76.6403 31.5661 75.0192L33.8076 73.2255C33.7733 73.8114 33.754 74.399 33.754 74.9916L33.7548 74.9924C33.7507 82.2968 36.4139 89.3517 41.2432 94.8313C46.0726 100.312 52.7367 103.841 59.9841 104.754C67.2305 105.669 74.5625 103.907 80.6023 99.7978L99.1464 118.342C100.2 119.402 101.632 119.998 103.127 120C104.621 120.002 106.055 119.409 107.112 118.353C108.168 117.296 108.761 115.862 108.759 114.368C108.757 112.873 108.16 111.441 107.1 110.387L88.557 91.8431C92.6882 85.7751 94.4467 78.4013 93.4984 71.1221C92.55 63.8428 88.9619 57.1645 83.4146 52.3571L83.8264 51.9453C85.1204 52.5646 86.6009 52.6651 87.9669 52.2273C89.332 51.7896 90.4787 50.8471 91.1716 49.5916L97.1921 50.5952C97.2934 50.6119 97.3963 50.6203 97.4993 50.6203C98.0399 50.6203 98.5547 50.3868 98.9104 49.98L108.748 38.7359V41.2461C108.748 42.2814 109.588 43.1209 110.623 43.1209C111.658 43.1209 112.498 42.2814 112.498 41.2461V33.7467C112.498 33.2496 112.3 32.7725 111.949 32.421C111.597 32.0694 111.12 31.8719 110.623 31.8719L110.623 31.8715ZM52.503 13.1232H63.752V44.9953C59.8961 44.9919 56.0761 45.736 52.503 47.1857V13.1232ZM13.5258 70.0923L7.50622 77.831V41.245H18.7552V71.0216L15.8442 69.5661C15.0449 69.166 14.074 69.3861 13.5258 70.0917V70.0923ZM26.2545 78.7425C25.4962 78.7425 24.8124 78.2855 24.5228 77.5849C24.2324 76.8844 24.3923 76.0784 24.9288 75.5419C25.4653 75.0053 26.2713 74.8455 26.9718 75.1359C27.6724 75.4255 28.1294 76.1093 28.1294 76.8676C28.1285 77.903 27.2899 78.7416 26.2545 78.7425ZM30.0042 71.4675V28.1214H41.2532V55.1746C38.0703 58.7778 35.8003 63.0942 34.6377 67.7594L30.0042 71.4675ZM104.449 113.039C104.807 113.39 105.01 113.869 105.013 114.369C105.016 114.871 104.818 115.352 104.464 115.706C104.109 116.06 103.628 116.258 103.127 116.255C102.627 116.252 102.147 116.049 101.797 115.691L83.5847 97.4783C84.523 96.6497 85.4077 95.765 86.2363 94.8268L104.449 113.039ZM89.9992 74.9943C89.9992 81.9554 87.2339 88.6319 82.3115 93.5543C77.3892 98.4766 70.7127 101.242 63.7516 101.242C56.7905 101.242 50.114 98.4766 45.1916 93.5543C40.2693 88.6319 37.5039 81.9554 37.5039 74.9943C37.5039 68.0332 40.2693 61.3567 45.1916 56.4343C50.114 51.512 56.7905 48.7467 63.7516 48.7467C70.7103 48.7542 77.3817 51.522 82.3023 56.4435C87.2238 61.3642 89.9917 68.0358 89.9992 74.9943ZM75.0006 47.1868V3.75071H86.2495V41.2473C84.3186 41.2473 82.5224 42.2383 81.4931 43.8721C80.4627 45.505 80.343 47.5532 81.175 49.295L80.41 50.06C78.7101 48.92 76.8971 47.9583 75.0006 47.1875L75.0006 47.1868ZM86.2495 48.7461C85.4912 48.7461 84.8074 48.2891 84.5179 47.5886C84.2274 46.888 84.3873 46.082 84.9238 45.5455C85.4603 45.009 86.2663 44.8491 86.9669 45.1395C87.6674 45.4291 88.1244 46.113 88.1244 46.8713C88.1235 47.9066 87.2849 48.7452 86.2495 48.7461Z" fill="#545454"/>
<path d="M63.752 52.4946C57.7851 52.4946 52.0627 54.8648 47.8436 59.0842C43.6245 63.3035 41.254 69.0257 41.254 74.9926C41.254 80.9595 43.6242 86.6819 47.8436 90.901C52.0629 95.1201 57.7851 97.4906 63.752 97.4906C69.7189 97.4906 75.4413 95.1204 79.6604 90.901C83.8795 86.6817 86.25 80.9595 86.25 74.9926C86.2433 69.0274 83.8705 63.3093 79.6529 59.0917C75.4353 54.8741 69.7172 52.5013 63.752 52.4946ZM63.752 93.7409C58.7795 93.7409 54.0112 91.7656 50.4951 88.2495C46.979 84.7333 45.0037 79.9651 45.0037 74.9926C45.0037 70.0201 46.979 65.2518 50.4951 61.7357C54.0113 58.2196 58.7795 56.2443 63.752 56.2443C68.7245 56.2443 73.4928 58.2196 77.0089 61.7357C80.525 65.2519 82.5003 70.0201 82.5003 74.9926C82.4945 79.9634 80.5175 84.7284 77.0031 88.2437C73.4878 91.7581 68.7228 93.7351 63.752 93.7409Z" fill="#545454"/>
<path d="M63.7519 86.2415C60.7698 86.2381 57.9106 85.0521 55.8016 82.9429C53.6926 80.8336 52.5064 77.9745 52.503 74.9925C52.503 73.9572 51.6635 73.1177 50.6281 73.1177C49.5928 73.1177 48.7533 73.9572 48.7533 74.9925C48.7575 78.9691 50.3394 82.7815 53.1515 85.5929C55.9629 88.4052 59.7754 89.9871 63.7519 89.9912C64.7873 89.9912 65.6268 89.1517 65.6268 88.1163C65.6268 87.081 64.7873 86.2415 63.7519 86.2415Z" fill="#545454"/>
</svg>
