<svg width="110" height="110" viewBox="0 0 110 110" fill="none" xmlns="http://www.w3.org/2000/svg">
<path d="M84.3291 0H14.6662C13.6538 0 12.8329 0.82087 12.8329 1.83324V32.9982C10.403 33.0007 8.07302 33.9672 6.35439 35.6859C4.63576 37.4045 3.66928 39.7345 3.66676 42.1644V62.5609L0.396483 66.6923C0.0748393 67.0974 -0.0601914 67.6203 0.0249336 68.131L3.66689 89.9811V95.3285C2.65453 95.3285 1.83366 96.1493 1.83366 97.1617V108.161C1.83366 108.647 2.0268 109.114 2.37053 109.457C2.71426 109.801 3.18076 109.994 3.66689 109.994H45.8313C46.3174 109.994 46.7839 109.801 47.1277 109.457C47.4714 109.114 47.6645 108.647 47.6645 108.161V97.1617C47.6645 96.6756 47.4714 96.2091 47.1277 95.8653C46.7839 95.5216 46.3174 95.3285 45.8313 95.3285V91.662H84.3292C84.8154 91.662 85.2819 91.4689 85.6256 91.1251C85.9693 90.7814 86.1625 90.3149 86.1625 89.8288V1.83349C86.1625 1.34735 85.9693 0.880854 85.6256 0.537127C85.2819 0.193401 84.8154 0.000251357 84.3292 0.000251357L84.3291 0ZM7.33324 42.1644C7.33487 40.706 7.91511 39.3081 8.9455 38.2769C9.9767 37.2465 11.3746 36.6663 12.833 36.6646V50.9844L7.3333 57.9302L7.33324 42.1644ZM43.9979 106.328H5.5V98.9947H43.9979V106.328ZM7.33324 95.3282V89.8285C7.33324 89.7279 7.32505 89.6264 7.30868 89.5273L3.77567 68.331L16.7254 51.976V51.9752C17.3564 51.1789 18.467 50.9497 19.3615 51.4317C20.256 51.913 20.6759 52.9671 20.3575 53.9321L14.7579 70.9239C14.5737 71.4829 14.6695 72.0951 15.0141 72.5714C15.3594 73.0477 15.911 73.3301 16.4995 73.3301C19.9015 73.3342 23.1638 74.687 25.569 77.0931C27.9751 79.4983 29.3279 82.7607 29.3321 86.1627V89.8292C29.3321 90.3153 29.5252 90.7818 29.869 91.1255C30.2127 91.4693 30.6792 91.6624 31.1653 91.6624H42.1647V95.3289L7.33324 95.3282ZM82.4959 87.9953H32.9985V86.162C32.9936 82.2157 31.5761 78.4019 29.004 75.4099C26.4318 72.4178 22.8732 70.4446 18.9727 69.8479L22.7701 58.3231H22.7709C23.0803 58.5449 23.4519 58.6635 23.8324 58.6635H75.163C76.1754 58.6635 76.9962 57.8427 76.9962 56.8303C76.9962 55.8179 76.1754 54.9971 75.163 54.9971H23.8617C24.2399 53.7997 24.2153 52.5108 23.7914 51.3281C23.8053 51.3281 23.8176 51.3305 23.8315 51.3305H75.162C76.1744 51.3305 76.9953 50.5097 76.9953 49.4973C76.9953 48.4849 76.1744 47.6641 75.162 47.6641H23.8315C23.0523 47.6649 22.3592 48.1576 22.1022 48.8925C21.7715 48.6101 21.4098 48.3654 21.0235 48.1633C19.624 47.4382 17.9881 47.3187 16.4985 47.8326V3.6674H82.4949L82.4959 87.9953Z" fill="#545454"/>
<path d="M31.1652 29.3318C34.0829 29.3318 36.8801 28.173 38.9433 26.1106C41.0057 24.0474 42.1646 21.2501 42.1646 18.3324C42.1646 15.4147 41.0057 12.6175 38.9433 10.5543C36.8801 8.49186 34.0829 7.33301 31.1652 7.33301C28.2475 7.33301 25.4503 8.49186 23.387 10.5543C21.3246 12.6175 20.1658 15.4147 20.1658 18.3324C20.169 21.2484 21.3287 24.0441 23.3912 26.1064C25.4537 28.1686 28.2494 29.3285 31.1652 29.3318ZM31.1652 10.9995C33.1097 10.9995 34.975 11.7721 36.3506 13.147C37.7255 14.5227 38.4981 16.3879 38.4981 18.3324C38.4981 20.2769 37.7255 22.1422 36.3506 23.5179C34.9749 24.8928 33.1097 25.6654 31.1652 25.6654C29.2207 25.6654 27.3554 24.8928 25.9797 23.5179C24.6048 22.1421 23.8322 20.2769 23.8322 18.3324C23.8347 16.3879 24.6081 14.5243 25.9823 13.1495C27.3572 11.7754 29.2207 11.002 31.1652 10.9995Z" fill="#545454"/>
<path d="M47.6638 16.4992H76.9956C78.0079 16.4992 78.8288 15.6784 78.8288 14.666C78.8288 13.6536 78.0079 12.8328 76.9956 12.8328H47.6638C46.6514 12.8328 45.8306 13.6536 45.8306 14.666C45.8306 15.6784 46.6514 16.4992 47.6638 16.4992Z" fill="#545454"/>
<path d="M47.6638 23.832H76.9956C78.0079 23.832 78.8288 23.0111 78.8288 21.9988C78.8288 20.9864 78.0079 20.1655 76.9956 20.1655H47.6638C46.6514 20.1655 45.8306 20.9864 45.8306 21.9988C45.8306 23.0111 46.6514 23.832 47.6638 23.832Z" fill="#545454"/>
<path d="M75.1628 32.9983H23.8323C22.8199 32.9983 21.999 33.8192 21.999 34.8315C21.999 35.8439 22.8199 36.6648 23.8323 36.6648H75.1628C76.1752 36.6648 76.9961 35.8439 76.9961 34.8315C76.9961 33.8192 76.1752 32.9983 75.1628 32.9983Z" fill="#545454"/>
<path d="M75.1628 40.3311H23.8323C22.8199 40.3311 21.999 41.1519 21.999 42.1643C21.999 43.1766 22.8199 43.9975 23.8323 43.9975H75.1628C76.1752 43.9975 76.9961 43.1766 76.9961 42.1643C76.9961 41.1519 76.1752 40.3311 75.1628 40.3311Z" fill="#545454"/>
<path d="M75.1628 62.3301H23.8323C22.8199 62.3301 21.999 63.151 21.999 64.1633C21.999 65.1757 22.8199 65.9966 23.8323 65.9966H75.1628C76.1752 65.9966 76.9961 65.1757 76.9961 64.1633C76.9961 63.151 76.1752 62.3301 75.1628 62.3301Z" fill="#545454"/>
<path d="M75.1633 76.9959H59.4237L56.294 73.8662C55.9503 73.5225 55.4838 73.3294 54.9977 73.3294C54.5115 73.3294 54.045 73.5225 53.7013 73.8662L52.3239 75.2436L51.2764 71.0517C51.125 70.4452 50.6756 69.9583 50.0839 69.7586C49.4922 69.5589 48.84 69.6743 48.3522 70.0647L39.186 77.3976C38.3954 78.0302 38.2678 79.1842 38.9004 79.9748C39.533 80.7655 40.687 80.8931 41.4776 80.2605L48.4129 74.7126L49.5529 79.2728C49.7133 79.9136 50.206 80.4186 50.8427 80.5945C51.4786 80.7713 52.1612 80.5913 52.6285 80.1248L54.9979 77.7554L57.3679 80.1254C57.7116 80.4691 58.1781 80.6623 58.6642 80.6623H75.1633C76.1757 80.6623 76.9966 79.8414 76.9966 78.829C76.9966 77.8167 76.1757 76.9958 75.1633 76.9958V76.9959Z" fill="#545454"/>
<path d="M109.799 54.1779L108.16 50.8986V32.9991C108.158 30.5692 107.191 28.2392 105.473 26.5206C103.754 24.802 101.424 23.8355 98.9941 23.833H97.1608V21.9997C97.1608 20.9874 96.3399 20.1665 95.3276 20.1665C94.3152 20.1665 93.4943 20.9874 93.4943 21.9997V23.833H91.6611C90.6488 23.833 89.8279 24.6538 89.8279 25.6662V95.3291H89.8312C89.8303 95.4994 89.8533 95.6696 89.8999 95.8333L93.5664 108.666C93.7906 109.453 94.51 109.995 95.3284 109.995C96.1468 109.995 96.8662 109.453 97.0913 108.666L100.758 95.8333C100.804 95.6696 100.827 95.4994 100.826 95.3291H100.827V27.8137C101.899 28.1943 102.826 28.8965 103.483 29.8246C104.139 30.7526 104.492 31.8616 104.494 32.9982V51.3306C104.494 51.6154 104.56 51.8961 104.688 52.1507L106.521 55.8171C106.735 56.2558 107.118 56.5905 107.58 56.7468C108.043 56.9031 108.55 56.868 108.987 56.6494C109.424 56.4309 109.755 56.0471 109.908 55.5831C110.061 55.1182 110.022 54.6124 109.8 54.177L109.799 54.1779ZM97.1609 31.1651H93.4944V27.4986H97.1609V31.1651ZM95.3276 101.488L94.091 97.162H96.5652L95.3276 101.488ZM93.4944 93.4955V34.832H97.1609V93.4955H93.4944Z" fill="#545454"/>
</svg>
