<svg width="120" height="120" viewBox="0 0 120 120" fill="none" xmlns="http://www.w3.org/2000/svg">
<path d="M90.9682 73.5488C94.1696 73.5488 96.7747 70.9437 96.7747 67.7423C96.7747 64.5409 94.1696 61.9358 90.9682 61.9358C87.7668 61.9358 85.1617 64.5409 85.1617 67.7423C85.1617 70.9437 87.7668 73.5488 90.9682 73.5488ZM90.9682 65.8068C92.0345 65.8068 92.9037 66.6743 92.9037 67.7423C92.9037 68.8102 92.0345 69.6778 90.9682 69.6778C89.902 69.6778 89.0327 68.8102 89.0327 67.7423C89.0327 66.6743 89.902 65.8068 90.9682 65.8068Z" fill="#545454"/>
<path d="M112.259 23.4206V0H7.74198V23.4206C3.33104 24.3209 0 28.2308 0 32.9027V98.7096C0 104.046 4.34104 108.387 9.67747 108.387H32.9034V116.129H25.1614V120H94.8392V116.129H87.0973V108.387H110.323C115.66 108.387 120.001 104.046 120.001 98.7096V32.9027C120.001 28.2308 116.67 24.3209 112.259 23.4206ZM11.613 19.3543H77.4198C77.4198 23.7827 79.6188 27.9421 83.2263 30.46V56.6346C79.6187 59.1542 77.4198 63.3121 77.4198 67.7403C77.4198 75.2093 83.4977 81.2888 90.9682 81.2888C98.4388 81.2888 104.517 75.2093 104.517 67.7403C104.517 63.3119 102.318 59.1525 98.7102 56.6346V30.46C102.318 27.9404 104.517 23.7825 104.517 19.3543H108.388V85.1611H11.613V19.3543ZM96.7747 21.2898V11.626C99.163 13.4198 100.646 16.2652 100.646 19.3543C100.646 22.788 98.7915 25.9971 95.8052 27.7254L94.8392 28.2844V50.3223H87.0972V28.2844L86.1312 27.7254C83.145 25.9972 81.2907 22.7882 81.2907 19.3543C81.2907 16.2652 82.7734 13.4199 85.1617 11.626V21.2898H96.7747ZM86.1313 59.3715L87.0973 58.8124V54.194H94.8393V58.8124L95.8053 59.3715C98.7915 61.0996 100.646 64.3086 100.646 67.7425C100.646 73.079 96.3048 77.42 90.9683 77.42C85.6319 77.42 81.2909 73.079 81.2909 67.7425C81.2909 64.3089 83.1451 61.0997 86.1314 59.3715H86.1313ZM108.388 3.87033V15.4833H103.929C102.708 11.4188 99.6242 8.05674 95.4845 6.5913L92.9044 5.67799V17.4188H89.0334V5.67799L86.4533 6.59389C82.3109 8.05674 79.2299 11.4187 78.0088 15.4834H11.6136V3.87048L108.388 3.87033ZM7.74264 27.4524V89.0321H112.259V27.4524C114.507 28.2534 116.13 30.3824 116.13 32.903V92.9033H3.87165V32.903C3.87165 30.3833 5.49521 28.2542 7.74264 27.4524ZM83.2269 116.129H36.7751V108.387H83.2269V116.129ZM110.324 104.516H9.67814C6.47672 104.516 3.87165 101.911 3.87165 98.7096V96.7741H116.13V98.7096C116.13 101.911 113.525 104.516 110.324 104.516Z" fill="#545454"/>
<path d="M15.484 7.74194H19.355V11.6129H15.484V7.74194Z" fill="#545454"/>
<path d="M23.226 7.74194H27.0969V11.6129H23.226V7.74194Z" fill="#545454"/>
<path d="M30.9679 7.74194H34.8389V11.6129H30.9679V7.74194Z" fill="#545454"/>
<path d="M67.1826 41.4063L70.6258 39.419L68.6903 36.0665L65.2582 38.0469C63.5007 35.4901 61.2843 33.2721 58.7259 31.5147L60.7081 28.0825L57.3556 26.147L55.3682 29.5902C52.6291 28.2743 49.6275 27.4361 46.4537 27.1942L46.4528 23.2263H42.5818V27.1957C39.4072 27.4394 36.4037 28.2758 33.6673 29.5918L31.6799 26.1486L28.3274 28.0841L30.3096 31.5162C27.7527 33.2737 25.5348 35.4901 23.7773 38.0484L20.3452 36.068L18.4097 39.4205L21.8529 41.4079C20.537 44.147 19.6988 47.1487 19.4569 50.3249H15.483V54.1958H19.4525C19.6961 57.3705 20.5325 60.3739 21.8485 63.1128L18.4053 65.1002L20.3408 68.4527L23.7729 66.4723C25.5304 69.0291 27.7468 71.2471 30.3052 73.0045L28.323 76.4366L31.6755 78.3721L33.6629 74.9289C36.402 76.2449 39.4036 77.083 42.5774 77.325L42.5783 81.2911H46.4493V77.3216C49.6239 77.078 52.6274 76.2416 55.3638 74.9256L57.3512 78.3688L60.7037 76.4333L58.7215 73.0012C61.2784 71.2437 63.4963 69.0273 65.2538 66.4689L68.6859 68.4494L70.6214 65.0969L67.1782 63.1095C68.4942 60.3704 69.3323 57.3687 69.5742 54.1925H73.5481V50.3215H69.5786C69.3367 47.1487 68.4986 44.1452 67.1826 41.4061V41.4063ZM44.5163 73.5488C32.7773 73.5488 23.2259 63.9974 23.2259 52.2584C23.2259 40.5193 32.7773 30.9679 44.5163 30.9679C56.2554 30.9679 65.8068 40.5193 65.8068 52.2584C65.8068 63.9974 56.2554 73.5488 44.5163 73.5488Z" fill="#545454"/>
<path d="M44.5164 38.7098C37.0458 38.7098 30.9679 44.7892 30.9679 52.2582C30.9679 59.7273 37.0458 65.8067 44.5164 65.8067C47.8664 65.8067 51.0833 64.5737 53.5709 62.3383L50.9831 59.4583C49.2066 61.0568 46.9091 61.9355 44.5166 61.9355C39.1801 61.9355 34.8391 57.5945 34.8391 52.258C34.8391 46.9216 39.1801 42.5805 44.5166 42.5805C49.853 42.5805 54.1941 46.9216 54.1941 52.258C54.1941 53.9594 53.7473 55.6313 52.9014 57.095L56.2515 59.0339C57.4378 56.9827 58.0651 54.6385 58.0651 52.2579C58.0651 44.7889 51.9872 38.7095 44.5167 38.7095L44.5164 38.7098Z" fill="#545454"/>
<path d="M46.4518 58.0649V54.1939H50.3228V50.3229H46.4518V46.4519H42.5808V50.3229H38.7098V54.1939H42.5808V58.0649H46.4518Z" fill="#545454"/>
</svg>
