<svg width="120" height="120" viewBox="0 0 120 120" fill="none" xmlns="http://www.w3.org/2000/svg">
<path d="M15.0802 50.8331L16.7596 50.5453L16.4718 48.8659C16.3955 48.4206 16.4992 47.9629 16.7601 47.5941C17.021 47.2252 17.418 46.975 17.8634 46.8987L22.0971 46.1732C18.4886 42.3734 17.0697 36.9937 18.3359 31.9085C19.602 26.8233 23.3779 22.7366 28.3466 21.0725C33.3162 19.4081 38.7905 20.397 42.8639 23.6942C46.9372 26.9907 49.0451 32.1395 48.4526 37.3469C54.0431 34.3561 59.4535 31.0411 64.6571 27.419L64.2627 25.1174C64.1864 24.6721 64.2901 24.2144 64.551 23.8455C64.8119 23.4767 65.2089 23.2265 65.6543 23.1502L72.3717 21.999C73.2991 21.84 74.18 22.4632 74.3389 23.3906L82.9731 73.7718C83.0494 74.2171 82.9457 74.6748 82.6848 75.0436C82.4239 75.4125 82.0269 75.6626 81.5815 75.7389L74.864 76.8902C74.4187 76.9665 73.961 76.8628 73.5922 76.6019C73.2234 76.341 72.9732 75.9439 72.8969 75.4986L72.5024 73.197C67.8132 71.8946 47.789 66.6836 33.6553 68.4366L34.6802 74.4171L35.0877 73.841C36.0072 72.5412 37.5529 71.6227 39.3313 71.3179L39.3441 71.3157C41.1222 71.0141 42.885 71.3664 44.1796 72.2828L59.9171 83.4154C61.328 84.4161 62.2851 85.9345 62.5773 87.6394C62.8694 89.3443 62.4733 91.0945 61.4761 92.5081L50.751 107.669L51.783 113.691C51.8593 114.137 51.7556 114.594 51.4947 114.963C51.2338 115.332 50.8368 115.582 50.3914 115.658L25.2009 119.976C24.7555 120.052 24.2979 119.948 23.929 119.687C23.5602 119.426 23.31 119.029 23.2337 118.584L22.0825 111.866C22.0061 111.421 22.1098 110.963 22.3708 110.595C22.6317 110.226 23.0287 109.976 23.474 109.899L19.1569 84.7087C19.0806 84.2633 19.1843 83.8057 19.4452 83.4368L20.8368 81.4696C21.656 80.3731 22.812 79.5753 24.128 79.1985L23.2519 77.6979C23.1485 77.5219 23.0783 77.3287 23.0439 77.1277L21.8926 70.4102C21.4473 70.4866 20.9896 70.3829 20.6208 70.1219C20.252 69.861 20.0018 69.464 19.9255 69.0187L19.6377 67.3393L17.9583 67.6271C14.9586 68.1412 11.9119 67.0157 9.96718 64.6749C8.0218 62.3342 7.47316 59.1328 8.52815 56.278C9.5824 53.4233 12.0806 51.3471 15.0802 50.8331ZM22.9964 66.7634L29.7139 65.6122L26.9737 49.6228C26.5549 49.4353 26.1467 49.2282 25.7472 49.0049L20.1183 49.9696L22.9964 66.7634ZM31.2034 23.8682C28.0853 24.4025 25.3077 26.1535 23.4813 28.7361C21.6542 31.3181 20.928 34.5202 21.4624 37.6384C21.9968 40.7567 23.7477 43.5341 26.3303 45.3605C28.9123 47.1877 32.1144 47.9138 35.2327 47.3794C38.3509 46.845 41.1284 45.0941 42.9548 42.5115C44.7819 39.9295 45.5081 36.7274 44.9737 33.6092C44.4358 30.4933 42.6844 27.7171 40.1026 25.8915C37.5215 24.065 34.3206 23.3379 31.2034 23.8682ZM75.9678 73.2436L79.3266 72.668L71.268 25.6455L67.9093 26.2211L75.9678 73.2436ZM65.2926 31.1267C59.5177 35.0759 53.4887 38.6421 47.2448 41.8004C45.8699 44.9323 43.4862 47.5133 40.4728 49.1325C37.4598 50.7524 33.9917 51.3159 30.6206 50.7345L33.0779 65.0729C46.7768 63.3202 65.099 67.6769 71.8654 69.4854L65.2926 31.1267ZM26.3046 116.329L48.1365 112.587L47.5609 109.228L25.729 112.97L26.3046 116.329ZM22.6351 84.8294L26.8328 109.323L47.9679 105.701L58.693 90.5398C59.1692 89.8648 59.3586 89.0289 59.2191 88.2148C59.0796 87.4007 58.6227 86.6755 57.9489 86.1976L57.3728 85.7901L51.399 94.2348C50.8554 95.0033 49.7924 95.1855 49.0239 94.6419C48.2555 94.0983 48.0733 93.0352 48.6169 92.2668L54.5906 83.822L51.4712 81.6154L45.4975 90.0601C44.9539 90.8286 43.8908 91.0107 43.1224 90.4672C42.354 89.9236 42.1718 88.8605 42.7153 88.092L48.6891 79.6473L45.5697 77.4407L39.596 85.8854C39.0524 86.6539 37.9893 86.836 37.2209 86.2925C36.4524 85.7489 36.2702 84.6858 36.8138 83.9173L42.7875 75.4726L42.2114 75.0651C41.6548 74.672 40.7963 74.5259 39.9136 74.6756L39.9061 74.6769C39.0244 74.828 38.2634 75.2509 37.8683 75.8094L29.5189 87.6125C28.9753 88.3809 27.913 88.563 27.1445 88.0194C26.3761 87.4758 26.1939 86.4127 26.7375 85.6443L28.5365 83.1011L27.9604 82.6936C27.4282 82.3171 26.5477 82.1778 25.6631 82.3294C24.7785 82.481 23.9946 82.9056 23.6182 83.4377L22.6351 84.8294ZM26.3506 76.2484L27.986 79.0498C28.6828 79.2113 29.3426 79.5041 29.9296 79.9121L30.5057 80.3196L32.4304 77.5988L31.6491 76.2603C31.5455 76.0835 31.4755 75.891 31.4409 75.6894L30.2897 68.9719L25.2516 69.8353L26.3506 76.2484ZM17.3828 64.269L19.0622 63.9812L17.3354 53.905L15.656 54.1928C13.8559 54.5013 12.3576 55.7466 11.7244 57.4596C11.0919 59.1725 11.421 61.0933 12.5878 62.4977C13.7553 63.9021 15.5827 64.5775 17.3828 64.269Z" fill="#545454"/>
<path d="M96.9149 26.9421C99.1649 28.5337 101.143 31.2308 102.794 34.9593C104.058 37.8459 104.975 40.873 105.526 43.9758C106.343 48.7379 105.856 56.1336 102.859 61.1194C102.371 61.9178 101.33 62.1725 100.529 61.6902C99.726 61.2088 99.463 60.1696 99.9391 59.3633C102.374 55.3118 102.904 48.8451 102.168 44.5514C100.865 36.9522 97.5122 31.5391 94.9469 29.7245C94.1784 29.1809 93.9962 28.1178 94.5398 27.3494C95.0834 26.5809 96.1465 26.3985 96.9149 26.9421Z" fill="#545454"/>
<path d="M86.7739 32.0722C87.055 31.7177 87.4651 31.4899 87.9147 31.4384C88.3635 31.3869 88.8147 31.5157 89.1685 31.7969C93.3827 35.2228 96.2107 40.0601 97.1286 45.4129C98.0466 50.7651 96.9918 56.2685 94.1603 60.9026C93.9227 61.2906 93.5411 61.5675 93.099 61.6718C92.6563 61.777 92.191 61.7008 91.8047 61.4599C91.4193 61.2196 91.1451 60.8351 91.0445 60.3924C90.9438 59.949 91.0246 59.4836 91.2683 59.1C93.6575 55.1768 94.5459 50.5215 93.7706 45.993C92.9954 41.4653 90.6082 37.3705 87.0496 34.4659C86.3126 33.8806 86.1894 32.809 86.7739 32.0722Z" fill="#545454"/>
<path d="M80.8543 38.3518C81.3899 37.5778 82.4513 37.3851 83.2253 37.9208C86.1343 39.9351 88.0902 43.1075 88.7324 46.8553C89.3747 50.6031 88.5867 54.2457 86.5145 57.1136C85.963 57.8765 84.8981 58.0482 84.1352 57.4967C83.3724 56.9452 83.2007 55.8803 83.7522 55.1175C85.2844 52.9981 85.86 50.2685 85.3737 47.4309C84.8874 44.5932 83.4357 42.211 81.2853 40.7228C80.914 40.4654 80.6597 40.0714 80.5789 39.6269C80.4979 39.1816 80.5969 38.7232 80.8543 38.3518Z" fill="#545454"/>
<path d="M76.2112 4.05403L99.7224 0.0247515C100.65 -0.134183 101.531 0.488921 101.69 1.41632L104.28 16.5307C104.356 16.976 104.252 17.4337 103.992 17.8025C103.731 18.1714 103.334 18.4215 102.888 18.4978L79.377 22.5271C78.9317 22.6034 78.474 22.4997 78.1052 22.2388C77.7364 21.9779 77.4862 21.5809 77.4099 21.1356L74.8196 6.02121C74.7433 5.57588 74.847 5.11821 75.1079 4.74936C75.3688 4.38052 75.7659 4.13035 76.2112 4.05403ZM82.0274 6.51466L89.3399 10.0516L95.0574 4.28161L82.0274 6.51466ZM100.633 15.4269L98.8902 5.25548L90.904 13.3151C90.3914 13.832 89.6072 13.9664 88.9517 13.6496L78.7377 8.70914L80.4808 18.8806L100.633 15.4269Z" fill="#545454"/>
<path d="M36.5768 35.0482L34.8974 35.336L36.0486 42.0535C36.2076 42.9809 35.5845 43.8617 34.6571 44.0207C33.7297 44.1796 32.8488 43.5565 32.6899 42.6291L31.5387 35.9116L29.8593 36.1994C28.9319 36.3583 28.051 35.7352 27.8921 34.8078C27.7332 33.8804 28.3563 32.9996 29.2837 32.8407L30.9631 32.5529C30.8034 31.6256 29.9234 31.0031 28.9959 31.1613C28.0685 31.3202 27.1876 30.6971 27.0287 29.7697C26.8698 28.8423 27.4929 27.9615 28.4203 27.8025C29.7565 27.5751 31.1282 27.8872 32.234 28.6701C33.3404 29.4521 34.0914 30.6415 34.3218 31.9773L36.0012 31.6895C36.9286 31.5305 37.8095 32.1536 37.9684 33.081C38.1273 34.0084 37.5042 34.8893 36.5768 35.0482Z" fill="#545454"/>
<path d="M93.6249 75.4037C97.6338 74.7166 101.751 75.6502 105.071 77.9991C108.391 80.3473 110.643 83.919 111.33 87.9278C112.017 91.9366 111.083 96.054 108.734 99.3738C106.386 102.694 102.814 104.945 98.8054 105.632C94.7966 106.319 90.6792 105.386 87.3594 103.037C84.039 100.689 81.7879 97.1171 81.1008 93.1083C80.4186 89.1002 81.3541 84.9854 83.7017 81.6661C86.0502 78.3471 89.6185 76.095 93.6249 75.4037ZM98.2298 102.274C101.348 101.739 104.126 99.9883 105.952 97.4057C107.779 94.8238 108.505 91.6217 107.971 88.5034C107.436 85.3851 105.686 82.6077 103.103 80.7813C100.521 78.9541 97.3188 78.228 94.2006 78.7624C91.0823 79.2968 88.3049 81.0477 86.4785 83.6303C84.6513 86.2123 83.9252 89.4144 84.4596 92.5327C84.9974 95.6485 86.7489 98.4247 89.3307 100.25C91.9117 102.077 95.1126 102.804 98.2298 102.274Z" fill="#545454"/>
<path d="M88.4901 90.297L97.7029 83.532C98.1792 83.1818 98.8018 83.1037 99.3499 83.3254C99.8971 83.5465 100.291 84.0354 100.391 84.6172L102.118 94.6934C102.217 95.2752 102.009 95.8674 101.566 96.2581C101.123 96.6496 100.51 96.7832 99.9444 96.6116L89.0048 93.3004C88.387 93.1137 87.9282 92.5935 87.8193 91.9577C87.7103 91.322 87.9697 90.6786 88.4901 90.297ZM98.2933 92.552L97.4977 87.9097L93.2539 91.0263L98.2933 92.552Z" fill="#545454"/>
</svg>
