<svg width="120" height="112" viewBox="0 0 120 112" fill="none" xmlns="http://www.w3.org/2000/svg">
<path d="M117.999 0.000118582H1.99998C0.895536 0.000118582 0 0.895654 0 2.0001V85.9994C0 86.5298 0.210714 87.0387 0.58571 87.4137C0.960705 87.7887 1.46963 87.9994 1.99998 87.9994H47.4031L52.0494 108.442C52.2307 109.239 52.8771 109.845 53.6842 109.974C53.7878 109.991 53.894 109.999 53.9994 109.999C54.7021 109.999 55.353 109.631 55.7137 109.028L62.6466 97.4744L76.5848 111.413C76.9598 111.788 77.4687 111.999 77.9991 111.999C78.5294 111.999 79.0384 111.788 79.4134 111.413L89.4133 101.413C89.7883 101.038 89.999 100.53 89.999 99.9984C89.999 99.468 89.7883 98.96 89.4133 98.5841L78.8278 87.9993H118C118.53 87.9993 119.039 87.7886 119.414 87.4136C119.789 87.0386 120 86.5297 120 85.9993V1.99998C120 1.46963 119.789 0.960701 119.414 0.58571C119.039 0.210718 118.53 0 118 0L117.999 0.000118582ZM115.999 4.00009V16H3.99997V4.00009H115.999ZM54.8453 102.701L46.7363 67.019L80.7863 78.3689L65.1053 86.2099C64.7651 86.3805 64.4803 86.6439 64.2848 86.9698L54.8453 102.701ZM44.631 62.1025C43.9461 61.8739 43.1908 62.0328 42.656 62.5177C42.1203 63.0025 41.8881 63.7391 42.0489 64.4426L42.8569 67.9996H12V35.9999H59.9996V67.2248L44.631 62.1025ZM77.9976 107.172L64.7663 93.9397L67.4127 89.5281L72.2689 87.1004L85.1689 100L77.9976 107.172ZM78.4699 83.9994L86.8922 79.7878C87.6154 79.4262 88.0502 78.6646 87.9922 77.8575C87.935 77.0504 87.3975 76.3575 86.6297 76.1021L63.9977 68.5575V34.0001C63.9977 33.4697 63.7869 32.9608 63.4119 32.5858C63.037 32.2108 62.528 32.0001 61.9977 32.0001H9.99809C8.89364 32.0001 7.99811 32.8956 7.99811 34.0001V69.9998C7.99811 70.5301 8.20882 71.0391 8.58382 71.4141C8.95881 71.7891 9.46774 71.9998 9.99809 71.9998H43.7647L46.4924 83.9997H3.99905V20.0002H115.998V83.9997L78.4699 83.9994Z" fill="#545454"/>
<path d="M9.99986 12H83.9993C85.1037 12 85.9993 11.1044 85.9993 9.99998C85.9993 8.89554 85.1037 8 83.9993 8H9.99986C8.89541 8 7.99988 8.89554 7.99988 9.99998C7.99988 11.1044 8.89541 12 9.99986 12Z" fill="#545454"/>
<path d="M93.9992 9.99998C93.9992 11.1044 93.1037 12 91.9993 12C90.8948 12 89.9993 11.1044 89.9993 9.99998C89.9993 8.89554 90.8948 8 91.9993 8C93.1037 8 93.9992 8.89554 93.9992 9.99998Z" fill="#545454"/>
<path d="M101.999 9.99998C101.999 11.1044 101.104 12 99.9993 12C98.8948 12 97.9993 11.1044 97.9993 9.99998C97.9993 8.89554 98.8948 8 99.9993 8C101.104 8 101.999 8.89554 101.999 9.99998Z" fill="#545454"/>
<path d="M109.999 9.99998C109.999 11.1044 109.104 12 107.999 12C106.895 12 105.999 11.1044 105.999 9.99998C105.999 8.89554 106.895 8 107.999 8C109.104 8 109.999 8.89554 109.999 9.99998Z" fill="#545454"/>
<path d="M90.0976 32.0022H90.086C90.0574 32.0022 90.0289 31.9995 90.0003 31.9995C82.8547 31.9995 76.2523 35.8121 72.68 41.9994C69.1077 48.1877 69.1077 55.8119 72.68 61.9993C76.2523 68.1876 82.855 71.9992 90.0003 71.9992C97.093 71.9394 103.623 68.127 107.163 61.9796C110.702 55.8322 110.721 48.27 107.211 42.1057C103.702 35.9414 97.1895 32.0969 90.0976 32.0023L90.0976 32.0022ZM105.871 49.9993H99.9252C99.6252 45.3056 98.0439 40.7834 95.3547 36.9244C98.1439 37.9209 100.603 39.6691 102.459 41.977C104.314 44.2851 105.496 47.0617 105.871 49.9993ZM88.0002 49.9993H84.0842C84.3788 46.0752 85.7324 42.3047 88.0002 39.0888V49.9993ZM88.0002 53.9993V64.884C85.7404 61.6733 84.3886 57.9135 84.0851 53.9993H88.0002ZM92.0002 53.9993H95.9181C95.6235 57.9224 94.2699 61.692 92.0002 64.9064V53.9993ZM92.0002 49.9993V39.1173C94.2609 42.3262 95.6144 46.086 95.9181 49.9993H92.0002ZM84.6448 36.9244C81.9555 40.7834 80.3752 45.3056 80.0753 49.9993H74.1297C74.5047 47.0617 75.6851 44.2851 77.5414 41.977C79.3976 39.6698 81.8565 37.9208 84.6448 36.9244ZM74.1297 53.9993H80.0753C80.3753 58.6929 81.9565 63.2152 84.6458 67.0741C81.8565 66.0777 79.3976 64.3295 77.5414 62.0216C75.686 59.7135 74.5048 56.9368 74.1297 53.9993ZM95.3545 67.0741C98.0438 63.2152 99.6251 58.6929 99.925 53.9993H105.87C105.495 56.9368 104.314 59.7135 102.458 62.0216C100.603 64.3288 98.1437 66.0778 95.3554 67.0741H95.3545Z" fill="#545454"/>
<path d="M53.9996 39.9998H47.9996C46.8952 39.9998 45.9997 40.8953 45.9997 41.9998C45.9997 43.1042 46.8952 43.9997 47.9996 43.9997H48.3943L45.3943 45.9997H39.9996C39.4693 45.9997 38.9603 46.2104 38.5853 46.5854L33.171 51.9998H27.9996C27.5451 51.9998 27.1041 52.1543 26.7496 52.4382L16.7497 60.4381C15.8872 61.1283 15.7479 62.3872 16.4381 63.2498C17.1282 64.1123 18.3871 64.2515 19.2497 63.5614L28.7015 55.9998H33.9998C34.5301 55.9998 35.039 55.7891 35.414 55.4141L40.8284 49.9998H45.9998C46.3944 49.9998 46.7801 49.8828 47.1087 49.664L51.9996 46.4033V47.9997C51.9996 49.1041 52.8952 49.9997 53.9996 49.9997C55.1041 49.9997 55.9996 49.1041 55.9996 47.9997V41.9997C55.9996 41.4694 55.7889 40.9605 55.4139 40.5855C55.0389 40.2105 54.53 39.9998 53.9996 39.9998L53.9996 39.9998Z" fill="#545454"/>
</svg>
