<svg width="118" height="120" viewBox="0 0 118 120" fill="none" xmlns="http://www.w3.org/2000/svg">
<path d="M8.06776 87.4851L0.0678301 117.485C-0.0928816 118.085 0.0356875 118.726 0.414249 119.219C0.79281 119.712 1.37854 120 1.99995 120H85.9992C86.6206 120 87.2063 119.712 87.5849 119.219C87.9635 118.726 88.0921 118.085 87.9313 117.485L83.9992 102.738V35.9999H115.999C116.692 35.9999 117.336 35.6409 117.7 35.0517C118.065 34.4615 118.098 33.7258 117.787 33.1053L110.267 18.0633L117.736 4.99283V4.99193C118.089 4.3732 118.087 3.61247 117.729 2.99641C117.371 2.37945 116.712 1.99998 115.999 1.99998H83.9994C83.9994 1.46963 83.7887 0.9607 83.4137 0.585709C83.0387 0.210718 82.5297 0 81.9994 0H73.9995C72.895 0 71.9995 0.895535 71.9995 1.99998V83.8918L62.2023 80.6249L63.4139 79.4133C64.088 78.7392 64.1925 77.6829 63.6639 76.8892L59.664 70.8892C59.2925 70.333 58.6684 70 57.9997 70H55.9997V65.8919C56.8595 64.9348 57.6533 63.9214 58.3782 62.8581C61.7711 57.9027 63.9004 51.6152 63.9916 46.351L67.8979 34.6332L67.897 34.6323C67.9649 34.4287 67.9997 34.2154 67.9997 34.0002V18.0003C67.9997 17.1914 67.5122 16.4619 66.7649 16.1521C66.0176 15.8432 65.1578 16.0137 64.5854 16.586C61.398 19.7753 55.3997 22.0004 49.9999 22.0004H30.0001C27.3492 22.0031 24.8073 23.0575 22.9323 24.9325C21.0574 26.8074 20.003 29.3494 20.0002 32.0003V34.0003C20.0002 34.2155 20.035 34.4289 20.1029 34.6324L24.0091 46.3503C24.1002 51.6154 26.2297 57.9028 29.6226 62.8573H29.6217C30.3467 63.9207 31.1404 64.935 32.0002 65.892V70.0001H30.0002C29.3314 70.0001 28.7074 70.334 28.3359 70.8903L24.336 76.8902C23.8074 77.684 23.9119 78.7402 24.586 79.4143L25.7976 80.6259L9.36825 86.1027C8.72985 86.3152 8.24147 86.8348 8.06826 87.4848L8.06776 87.4851ZM83.9985 6.00013H112.551L106.261 17.008C105.93 17.5884 105.91 18.2964 106.209 18.8946L112.762 31.9999H83.9988L83.9985 6.00013ZM35.9989 69.403C38.539 71.1048 41.2515 72.0002 43.9989 72.0002C46.7463 72.0002 49.4587 71.1047 51.9988 69.403V74.8681L43.9989 79.668L35.9989 74.8681V69.403ZM43.9989 85.334L47.6578 90.2117L46.7632 92.0001H41.2345L40.3399 90.2108L43.9989 85.334ZM41.5079 96H46.491L49.999 108.28V116H37.9991V108.28L41.5079 96ZM75.999 4.00083H79.999V87.7372L79.9311 87.4837V87.4845C79.7579 86.8345 79.2695 86.3149 78.6312 86.1024L75.999 85.2247L75.999 4.00083ZM76.3446 89.5566L83.3955 116H69.9993V100C69.9993 98.8955 69.1037 98 67.9993 98C66.8948 98 65.9993 98.8955 65.9993 100V116H53.9994V108C53.9994 107.814 53.9735 107.628 53.9226 107.45L50.1361 94.1982L51.6433 91.1847L59.0395 83.7884L76.3446 89.5566ZM56.9287 73.9997L59.4252 77.7444L50.2154 86.9541L46.9297 82.5748L55.028 77.7158C55.6306 77.3542 55.9994 76.7024 55.9994 75.9998V73.9998L56.9287 73.9997ZM23.9987 32.0001C24.0005 30.4091 24.6336 28.884 25.7586 27.7599C26.8827 26.6349 28.4077 26.0019 29.9987 26.0001H49.9986C54.1896 26.0001 59.6414 24.7689 63.9984 22.0822V33.675L61.8279 40.1874L59.8556 35.2572C59.5512 34.4974 58.8163 34.0001 57.9985 34.0001H29.9987C29.1809 34.0001 28.4452 34.4983 28.1416 35.2572L26.1693 40.1874L23.9988 33.675L23.9987 32.0001ZM28.0076 46.3625L31.3532 38.0001H56.6444L59.9891 46.3625C59.8935 50.8626 58.0328 56.2795 55.0757 60.598C51.8561 65.3015 47.8186 67.9998 43.999 67.9998C40.1794 67.9998 36.142 65.3015 32.9214 60.598C29.9642 56.2792 28.1036 50.8633 28.0081 46.3625H28.0076ZM31.0693 73.9988H31.9988V75.9988C31.9988 76.7015 32.3675 77.3524 32.9702 77.714L41.0684 82.5738L37.7827 86.9541L28.573 77.7444L31.0693 73.9988ZM28.9586 83.7871L36.3549 91.1834L37.862 94.1968L34.0755 107.449C34.0247 107.627 33.9988 107.813 33.9988 107.999V115.999H21.9989V99.9986C21.9989 98.8942 21.1033 97.9987 19.9989 97.9987C18.8944 97.9987 17.9989 98.8942 17.9989 99.9986V115.999H4.60268L11.6536 89.5553L28.9586 83.7871Z" fill="#545454"/>
<path d="M39.998 45.9997C39.998 47.1042 39.1025 47.9997 37.998 47.9997C36.8936 47.9997 35.998 47.1042 35.998 45.9997C35.998 44.8953 36.8936 43.9998 37.998 43.9998C39.1025 43.9998 39.998 44.8953 39.998 45.9997Z" fill="#545454"/>
<path d="M51.9978 45.9997C51.9978 47.1042 51.1023 47.9997 49.9978 47.9997C48.8933 47.9997 47.9978 47.1042 47.9978 45.9997C47.9978 44.8953 48.8933 43.9998 49.9978 43.9998C51.1023 43.9998 51.9978 44.8953 51.9978 45.9997Z" fill="#545454"/>
<path d="M36.8873 57.6637C38.9917 59.0718 41.4658 59.8227 43.9969 59.8227C46.5281 59.8227 49.0021 59.0718 51.1066 57.6637C52.0182 57.0486 52.2619 55.8111 51.6521 54.896C51.0414 53.9808 49.8057 53.7299 48.8869 54.3353C47.4405 55.304 45.7379 55.821 43.9966 55.821C42.2554 55.821 40.553 55.304 39.1064 54.3353C38.6644 54.038 38.1234 53.9282 37.6011 54.0317C37.0787 54.1344 36.6189 54.4416 36.3234 54.8844C36.0288 55.3273 35.9216 55.8692 36.0279 56.3906C36.1332 56.913 36.443 57.371 36.8868 57.6638L36.8873 57.6637Z" fill="#545454"/>
</svg>
