<svg width="120" height="120" viewBox="0 0 120 120" fill="none" xmlns="http://www.w3.org/2000/svg">
<path d="M114.926 73.465C112.436 64.499 109.908 57.3984 109.883 57.3277H109.884C109.599 56.5313 108.845 56.0001 108 56.0001H101.039L106.027 44.4163C106.719 42.9958 106.823 41.3592 106.316 39.8628C105.808 38.3655 104.73 37.1298 103.317 36.4226L86.472 28.0004C85.0479 27.2906 83.4014 27.1745 81.8926 27.6781C80.3827 28.1807 79.1356 29.262 78.422 30.6833C78.413 30.702 78.4041 30.7199 78.3952 30.7386L69.9997 48.9051V24.0005C69.9997 23.746 69.9506 23.4943 69.8569 23.2576L69.8551 23.2541L61.8569 3.25813C61.5534 2.49921 60.8176 2.00101 59.9998 2.00101C59.1819 2.00101 58.4462 2.49921 58.1426 3.25813L50.1445 23.2541L50.1427 23.2576C50.0489 23.4943 49.9998 23.746 49.9998 24.0005V29.5291L35.7882 1.10677C35.3051 0.139815 34.1426 -0.268199 33.1614 0.184455L7.16142 12.1842C6.67036 12.4119 6.29177 12.828 6.11321 13.3387C5.93375 13.8494 5.96946 14.411 6.21143 14.8949L26.7641 56.0003H12.6658L5.19977 50.4005C4.31584 49.738 3.06226 49.9174 2.39977 50.8005C1.73728 51.6844 1.91584 52.9379 2.79977 53.6004L9.632 58.7253C8.77664 61.2254 6.91589 66.8342 5.07314 73.4661C1.70697 85.5828 0 95.1836 0 102C0 107.05 1.19554 113.867 6.89028 117.664C9.00457 119.075 11.4617 119.882 14 120H106C108.538 119.882 110.995 119.075 113.11 117.664C118.804 113.868 120 107.051 120 102C120 95.1845 118.293 85.5838 114.927 73.4661L114.926 73.465ZM99.9896 77.9998H20.0102L20.4102 73.9999H99.5896L99.9896 77.9998ZM27.9988 81.9997H31.9988V89.9995H27.9988V81.9997ZM19.6086 81.9997H23.9988V91.9995C23.9988 92.5298 24.2095 93.0388 24.5845 93.4138C24.9595 93.7887 25.4684 93.9995 25.9988 93.9995H33.9988C34.5291 93.9995 35.0381 93.7888 35.4131 93.4138C35.7881 93.0388 35.9988 92.5298 35.9988 91.9995V81.9997H100.39L103.79 115.999H16.2102L19.6086 81.9997ZM99.188 69.9999H20.8086L21.8086 60.0001H98.188L99.188 69.9999ZM65.4577 23.034L59.9979 25.7642L54.538 23.0349L56.5514 18.0012H63.4433L65.4577 23.034ZM71.1256 56.0002L79.0909 38.7667L91.7213 44.9764L86.7105 56.0011L71.1256 56.0002ZM65.9979 56.0002H61.9979V29.2373L65.9979 27.2374V56.0002ZM57.9979 29.2373V56.0002H53.9979V27.2374L57.9979 29.2373ZM91.1041 56.0002L95.3121 46.7423L99.7327 48.9155L96.6827 56.0002L91.1041 56.0002ZM102.529 41.1569C102.698 41.6604 102.659 42.2104 102.42 42.6836C102.403 42.7175 102.387 42.7524 102.372 42.7872L101.317 45.2372L96.9684 43.0988L98.9595 38.7177L101.526 40.0007C102.002 40.2373 102.362 40.6533 102.528 41.1569L102.529 41.1569ZM84.6808 31.5794L95.38 36.9293L93.3774 41.3354L80.7694 35.1355L82.0095 32.4517V32.4508C82.5122 31.4794 83.7015 31.091 84.6811 31.5793L84.6808 31.5794ZM59.9974 9.38697L61.8438 14.002L58.151 14.0011L59.9974 9.38697ZM49.9974 38.4721V47.914L28.6625 6.66451L33.0751 4.62885L49.9974 38.4721ZM25.0283 8.34242L49.6774 55.9986H31.2328L31.0801 55.6933L34.8918 53.788C35.8793 53.2933 36.2802 52.0925 35.7865 51.1041C35.2918 50.1167 34.0909 49.7158 33.1026 50.2104L29.2918 52.1157L27.0802 47.6934L34.8919 43.7881C35.8794 43.2934 36.2803 42.0926 35.7865 41.1043C35.2919 40.1168 34.091 39.7159 33.1026 40.2105L25.2919 44.1158L23.0803 39.6935L26.8919 37.7882C27.8794 37.2935 28.2803 36.0927 27.7866 35.1044C27.2919 34.1169 26.0911 33.716 25.1027 34.2106L21.292 36.1159L19.0804 31.6936L26.892 27.7883C27.8795 27.2937 28.2804 26.0928 27.7867 25.1045C27.292 24.117 26.0911 23.7161 25.1028 24.2107L17.292 28.116L15.0804 23.6937L18.8921 21.7884C19.8796 21.2938 20.2805 20.0929 19.7867 19.1046C19.2921 18.1171 18.0912 17.7162 17.1028 18.2108L13.2921 20.1162L10.709 14.9501L25.0283 8.34242ZM3.99786 101.998C3.99786 88.4809 11.4728 65.7081 13.4212 59.9985H17.788L12.2166 115.712C11.1104 115.429 10.0595 114.963 9.10688 114.332C5.71671 112.072 3.99786 107.923 3.99786 101.997V101.998ZM111.036 114.233V114.234C110.046 114.913 108.944 115.414 107.78 115.712L102.209 59.9985H106.576C108.526 65.7074 115.999 88.4733 115.999 101.998C115.999 107.833 114.329 111.951 111.036 114.234V114.233Z" fill="#545454"/>
</svg>
