<svg width="120" height="120" viewBox="0 0 120 120" fill="none" xmlns="http://www.w3.org/2000/svg">
<path d="M120.001 118V94C120.001 93.333 119.667 92.7098 119.113 92.3384C115.621 90.0001 111.396 90.0001 108.001 90.0001C104.079 90.0037 100.245 91.159 96.9738 93.3215C93.7024 95.4848 91.1381 98.5599 89.5987 102.166C88.071 99.9009 85.9129 98.1322 83.3916 97.0794C80.8702 96.0267 78.0951 95.7348 75.4103 96.241C75.1272 92.9141 73.7415 90.9866 73.5987 90.7964V90.7973C73.221 90.2946 72.629 90 72.0004 90H66.0004V86H78.0005C78.5308 86 79.0397 85.7893 79.4147 85.4143C79.7897 85.0393 80.0005 84.5303 80.0005 84V81.2356L93.1059 87.7883C93.7264 88.0991 94.4621 88.066 95.0523 87.7008C95.6416 87.3365 96.0005 86.6928 96.0005 85.9999V71.9999C96.0005 71.5454 95.846 71.1044 95.5621 70.7499L80.0005 51.2979V37.9996C80.0005 29.4131 76.7657 20.2023 70.645 11.3618C66.061 4.74033 61.52 0.675179 61.3289 0.505579C60.5708 -0.168526 59.4298 -0.168526 58.6717 0.505579C58.4806 0.675222 53.9396 4.74033 49.3556 11.3618C43.2351 20.203 40.0001 29.4138 40.0001 37.9996V51.2979L24.4385 70.7499C24.1546 71.1044 24.0001 71.5454 24.0001 71.9999V85.9999C24.0001 86.6928 24.359 87.3366 24.9483 87.7008C25.5385 88.066 26.2742 88.099 26.8947 87.7883L40.0001 81.2356V84C40.0001 84.5303 40.2108 85.0393 40.5858 85.4143C40.9608 85.7893 41.4698 86 42.0001 86H54.0002V90H48.0001C47.2198 90 46.5109 90.4536 46.1841 91.1625C45.4323 92.7768 44.9457 94.5026 44.7457 96.2722C42.0394 95.7302 39.2341 96.0008 36.6823 97.0499C34.1296 98.099 31.9447 99.8785 30.4019 102.166C28.8626 98.5598 26.2983 95.4849 23.0268 93.3214C19.7554 91.1589 15.9214 90.0035 12 90C8.60455 90 4.37939 90 0.887499 92.3383C0.333029 92.7098 0 93.333 0 93.9999V118C0 118.53 0.210716 119.039 0.585716 119.414C0.960716 119.789 1.46965 120 2.00001 120H118C118.531 120 119.04 119.789 119.415 119.414C119.79 119.039 120 118.53 120 118L120.001 118ZM60.0004 98C61.5334 98.0009 63.0084 97.4125 64.1192 96.3562C63.7291 101.709 61.2353 104.497 59.8943 105.628C57.3738 103.781 56.3782 99.842 56.0596 96.5178V96.5169C57.1497 97.4732 58.5505 98.0009 60.0006 98H60.0004ZM58.0004 92V59.9999C58.0004 58.8954 58.8959 57.9999 60.0004 57.9999C61.1048 57.9999 62.0004 58.8954 62.0004 59.9999V92C62.0004 93.1044 61.1048 94 60.0004 94C58.8959 94 58.0004 93.1044 58.0004 92ZM92.0005 72.7016V82.7641L80.0004 76.764V57.7016L92.0005 72.7016ZM60.0027 4.77917C63.8875 8.69438 74.9956 21.123 75.9357 35.9998H71.8313C71.1964 32.241 68.8134 29.0078 65.4116 27.2892C62.0088 25.5704 57.9928 25.5704 54.5901 27.2892C51.1882 29.0079 48.8051 32.241 48.1704 35.9998H44.0659C45.0079 21.1497 56.1204 8.69918 60.0027 4.77917ZM68.0008 37.9998C68.0008 40.1213 67.158 42.1562 65.658 43.657C64.1571 45.157 62.1222 45.9999 60.0008 45.9999C57.8794 45.9999 55.8445 45.157 54.3437 43.657C52.8437 42.1561 52.0008 40.1212 52.0008 37.9998C52.0008 35.8785 52.8437 33.8435 54.3437 32.3427C55.8446 30.8427 57.8794 29.9998 60.0008 29.9998C62.1222 30.0025 64.1553 30.8462 65.6552 32.3454C67.1544 33.8454 67.9981 35.8785 68.0008 37.9998ZM28.0007 82.7634V72.701L40.0008 57.7009V76.7634L28.0007 82.7634ZM44.0008 81.9991V39.999H48.1704C48.8052 43.7578 51.1882 46.991 54.5901 48.7096C57.9928 50.4284 62.0088 50.4284 65.4116 48.7096C68.8134 46.9909 71.1965 43.7578 71.8313 39.999H76.0009V81.9991H66.0008V59.999C66.0008 57.8553 64.8571 55.8749 63.0008 54.8027C61.1446 53.7312 58.857 53.7312 57.0008 54.8027C55.1446 55.875 54.0008 57.8552 54.0008 59.999V81.9991H44.0008ZM49.3446 93.9991H51.9393C51.9616 98.1223 52.7893 106.891 59.1661 109.817H59.167C59.7393 110.079 60.4009 110.057 60.9545 109.757C61.2839 109.579 68.5661 105.485 68.1563 93.9992H70.8089C71.4018 95.5215 71.591 97.1706 71.3589 98.7875C70.9187 102.38 68.549 108.137 59.9106 115.474V115.473C57.4062 113.585 55.1383 111.401 53.1561 108.97C48.9705 103.727 47.6909 98.6975 49.3444 93.9992L49.3446 93.9991ZM4.00044 95.1491C6.13796 94.092 8.71749 93.9991 12.0005 93.9991C16.2425 94.0036 20.3095 95.6911 23.3086 98.691C26.3086 101.69 27.9962 105.757 28.0005 109.999C28.0005 111.104 28.8961 111.999 30.0005 111.999C31.105 111.999 32.0005 111.104 32.0005 109.999C32.0014 106.848 33.4871 103.882 36.0094 101.995C38.5317 100.106 41.796 99.5168 44.8193 100.403C45.3488 104.06 47.0916 107.786 50.031 111.466H50.0319C51.3354 113.085 52.7631 114.601 54.3007 115.999H4.00111L4.00044 95.1491ZM116.001 115.999H65.3035C71.7705 109.826 74.3705 104.529 75.1668 100.407H75.1677C78.1917 99.5161 81.4596 100.103 83.9846 101.99C86.5106 103.878 87.9981 106.846 87.9997 109.999C87.9997 111.104 88.8953 111.999 89.9997 111.999C91.1042 111.999 91.9997 111.104 91.9997 109.999C92.0042 105.757 93.6917 101.69 96.6916 98.691C99.6907 95.691 103.758 94.0034 108 93.9991C111.283 93.9991 113.862 94.0902 116 95.1491L116.001 115.999Z" fill="#545454"/>
<path d="M64.0004 37.9998C64.0004 40.2087 62.2093 41.9998 60.0004 41.9998C57.7914 41.9998 56.0004 40.2087 56.0004 37.9998C56.0004 35.7908 57.7914 33.9998 60.0004 33.9998C62.2093 33.9998 64.0004 35.7908 64.0004 37.9998Z" fill="#545454"/>
<path d="M26.2129 26.8935C26.5513 27.5712 27.2441 27.9989 28.0013 27.9989C28.7584 27.9989 29.4513 27.5712 29.7897 26.8935C30.8986 24.6873 32.6898 22.8962 34.896 21.7872C35.5736 21.4488 36.0013 20.756 36.0013 19.9988C36.0013 19.2417 35.5736 18.5488 34.896 18.2104C32.6897 17.1015 30.8987 15.3103 29.7897 13.1041C29.4513 12.4265 28.7584 11.9988 28.0013 11.9988C27.2441 11.9988 26.5512 12.4265 26.2129 13.1041C25.1039 15.3104 23.3127 17.1014 21.1066 18.2104C20.4289 18.5488 20.0012 19.2417 20.0012 19.9988C20.0012 20.756 20.4289 21.4488 21.1066 21.7872C23.3128 22.8962 25.1038 24.6873 26.2129 26.8935ZM28.0013 17.6702C28.6932 18.5264 29.4736 19.3068 30.33 19.9989C29.4737 20.6908 28.6933 21.4712 28.0013 22.3276C27.3093 21.4713 26.5289 20.6909 25.6726 19.9989C26.5288 19.3069 27.3092 18.5265 28.0013 17.6702Z" fill="#545454"/>
<path d="M18.0003 27.9998C17.2432 27.9998 16.5503 28.4274 16.2119 29.1051C14.2342 33.04 11.0405 36.2338 7.1056 38.2114C6.42793 38.5498 6.00024 39.2427 6.00024 39.9998C6.00024 40.757 6.42793 41.4498 7.1056 41.7882C11.0405 43.7659 14.2343 46.9596 16.2119 50.8945C16.5503 51.5722 17.2432 51.9999 18.0003 51.9999C18.7574 51.9999 19.4503 51.5722 19.7887 50.8945C21.7664 46.9596 24.9601 43.7658 28.895 41.7882C29.5727 41.4498 30.0004 40.757 30.0004 39.9998C30.0004 39.2427 29.5727 38.5498 28.895 38.2114C24.9601 36.2337 21.7663 33.04 19.7887 29.1051C19.4503 28.4274 18.7574 27.9998 18.0003 27.9998ZM24.0986 39.9998C21.7235 41.6578 19.6584 43.723 18.0003 46.0981C16.3423 43.723 14.2771 41.6578 11.902 39.9998C14.2771 38.3417 16.3422 36.2766 18.0003 33.9015C19.6583 36.2766 21.7235 38.3417 24.0986 39.9998Z" fill="#545454"/>
<path d="M98.894 18.2114C96.6878 17.1025 94.8967 15.3113 93.7877 13.1051C93.4493 12.4274 92.7565 11.9998 91.9993 11.9998C91.2422 11.9998 90.5493 12.4274 90.2109 13.1051C89.102 15.3114 87.3108 17.1024 85.1046 18.2114C84.427 18.5498 83.9993 19.2427 83.9993 19.9998C83.9993 20.7569 84.427 21.4498 85.1046 21.7882C87.3109 22.8971 89.1019 24.6883 90.2109 26.8945C90.5493 27.5722 91.2422 27.9998 91.9993 27.9998C92.7565 27.9998 93.4493 27.5722 93.7877 26.8945C94.8966 24.6882 96.6878 22.8972 98.894 21.7882C99.5717 21.4498 99.9994 20.7569 99.9994 19.9998C99.9994 19.2427 99.5717 18.5498 98.894 18.2114ZM91.9994 22.3284C91.3074 21.4722 90.527 20.6918 89.6707 19.9998C90.5269 19.3078 91.3073 18.5274 91.9994 17.6711C92.6913 18.5273 93.4717 19.3077 94.328 19.9998C93.4718 20.6917 92.6914 21.4721 91.9994 22.3284Z" fill="#545454"/>
<path d="M114.001 39.9998C114.001 39.2427 113.573 38.5498 112.895 38.2114C108.96 36.2337 105.767 33.04 103.789 29.1051C103.451 28.4274 102.758 27.9998 102.001 27.9998C101.243 27.9998 100.551 28.4274 100.212 29.1051C98.2345 33.04 95.0407 36.2338 91.1058 38.2114C90.4282 38.5498 90.0005 39.2427 90.0005 39.9998C90.0005 40.757 90.4282 41.4498 91.1058 41.7882C95.0407 43.7659 98.2346 46.9596 100.212 50.8945C100.551 51.5722 101.243 51.9999 102.001 51.9999C102.758 51.9999 103.451 51.5722 103.789 50.8945C105.767 46.9596 108.96 43.7658 112.895 41.7882C113.573 41.4498 114.001 40.757 114.001 39.9998ZM102.001 46.0981C100.343 43.723 98.2774 41.6579 95.9023 39.9998C98.2774 38.3418 100.343 36.2766 102.001 33.9015C103.659 36.2766 105.724 38.3418 108.099 39.9998C105.724 41.6579 103.659 43.723 102.001 46.0981Z" fill="#545454"/>
<path d="M12.0003 60C12.0003 58.8955 11.1047 58 10.0002 58C8.89579 58 8.00024 58.8955 8.00024 60V68C8.00024 69.1045 8.89579 70 10.0002 70C11.1047 70 12.0003 69.1045 12.0003 68V60Z" fill="#545454"/>
<path d="M10.0002 74C8.89579 74 8.00024 74.8955 8.00024 76V80C8.00024 81.1045 8.89579 82 10.0002 82C11.1047 82 12.0003 81.1045 12.0003 80V76C12.0003 75.4696 11.7895 74.9607 11.4145 74.5857C11.0395 74.2107 10.5306 74 10.0002 74Z" fill="#545454"/>
<path d="M2.00025 86.0001C2.53061 86.0001 3.03954 85.7893 3.41454 85.4143C3.78953 85.0393 4.00025 84.5304 4.00025 84.0001V64C4.00025 62.8955 3.10471 62 2.00025 62C0.895789 62 0.000244141 62.8955 0.000244141 64V84.0001C0.000244141 84.5304 0.21096 85.0394 0.58596 85.4143C0.96096 85.7893 1.46989 86.0001 2.00025 86.0001Z" fill="#545454"/>
<path d="M112 60C112 58.8955 111.105 58 110 58C108.896 58 108 58.8955 108 60V68C108 69.1045 108.896 70 110 70C111.105 70 112 69.1045 112 68V60Z" fill="#545454"/>
<path d="M110 74C108.896 74 108 74.8955 108 76V80C108 81.1045 108.896 82 110 82C111.105 82 112 81.1045 112 80V76C112 75.4696 111.79 74.9607 111.415 74.5857C111.04 74.2107 110.531 74 110 74Z" fill="#545454"/>
<path d="M120 64C120 62.8955 119.105 62 118 62C116.896 62 116 62.8955 116 64V84.0001C116 85.1045 116.896 86.0001 118 86.0001C119.105 86.0001 120 85.1045 120 84.0001V64Z" fill="#545454"/>
</svg>
