<svg width="22" height="17" viewBox="0 0 22 17" fill="none" xmlns="http://www.w3.org/2000/svg">
<path d="M14.0036 16.3847C13.9025 16.3853 13.8022 16.3654 13.7086 16.3262C13.615 16.287 13.5298 16.2291 13.458 16.1561C13.386 16.0828 13.3288 15.9956 13.2898 15.8996C13.2508 15.8035 13.2307 15.7005 13.2307 15.5964C13.2307 15.4923 13.2508 15.3893 13.2898 15.2932C13.3288 15.1972 13.386 15.11 13.458 15.0367L19.8359 8.5017L13.458 1.9667C13.3133 1.81826 13.232 1.61693 13.232 1.407C13.232 1.19708 13.3133 0.995751 13.458 0.847311C13.6027 0.698871 13.799 0.615479 14.0036 0.615479C14.2082 0.615479 14.4045 0.698871 14.5492 0.847311L21.465 7.94201C21.537 8.01529 21.5941 8.10248 21.6332 8.19854C21.6722 8.2946 21.6923 8.39763 21.6923 8.5017C21.6923 8.60576 21.6722 8.7088 21.6332 8.80486C21.5941 8.90092 21.537 8.98811 21.465 9.06139L14.5492 16.1561C14.4774 16.2291 14.3922 16.287 14.2986 16.3262C14.205 16.3654 14.1047 16.3853 14.0036 16.3847Z" fill="#050103"/>
<path d="M20.0292 9.68153H1.21261C1.00468 9.68153 0.805257 9.60049 0.658224 9.45623C0.511191 9.31197 0.428589 9.11631 0.428589 8.9123C0.428589 8.70828 0.511191 8.51263 0.658224 8.36837C0.805257 8.22411 1.00468 8.14307 1.21261 8.14307H20.0292C20.2371 8.14307 20.4365 8.22411 20.5836 8.36837C20.7306 8.51263 20.8132 8.70828 20.8132 8.9123C20.8132 9.11631 20.7306 9.31197 20.5836 9.45623C20.4365 9.60049 20.2371 9.68153 20.0292 9.68153Z" fill="#050103"/>
</svg>
