<svg width="21" height="17" viewBox="0 0 21 17" fill="none" xmlns="http://www.w3.org/2000/svg">
<path d="M7.9964 16.3847C7.89527 16.3853 7.79502 16.3654 7.7014 16.3262C7.60778 16.287 7.52262 16.2291 7.45082 16.1561L0.535037 9.06139C0.463014 8.98811 0.405848 8.90092 0.366836 8.80486C0.327824 8.7088 0.307739 8.60576 0.307739 8.5017C0.307739 8.39763 0.327824 8.2946 0.366836 8.19854C0.405848 8.10248 0.463014 8.01529 0.535037 7.94201L7.45082 0.847311C7.52247 0.773811 7.60753 0.715508 7.70114 0.67573C7.79475 0.635952 7.89508 0.615479 7.9964 0.615479C8.09772 0.615479 8.19806 0.635952 8.29167 0.67573C8.38528 0.715508 8.47033 0.773811 8.54198 0.847311C8.61363 0.920811 8.67046 1.00807 8.70923 1.1041C8.74801 1.20013 8.76797 1.30306 8.76797 1.407C8.76797 1.51095 8.74801 1.61387 8.70923 1.70991C8.67046 1.80594 8.61363 1.8932 8.54198 1.9667L2.16409 8.5017L8.54198 15.0367C8.614 15.11 8.67117 15.1972 8.71018 15.2932C8.74919 15.3893 8.76928 15.4923 8.76928 15.5964C8.76928 15.7005 8.74919 15.8035 8.71018 15.8996C8.67117 15.9956 8.614 16.0828 8.54198 16.1561C8.47018 16.2291 8.38503 16.287 8.2914 16.3262C8.19778 16.3654 8.09753 16.3853 7.9964 16.3847Z" fill="#050103"/>
<path d="M19.9083 9.07704H1.09176C0.883827 9.07704 0.684407 8.99599 0.537374 8.85173C0.390341 8.70748 0.307739 8.51182 0.307739 8.30781C0.307739 8.10379 0.390341 7.90814 0.537374 7.76388C0.684407 7.61962 0.883827 7.53857 1.09176 7.53857H19.9083C20.1163 7.53857 20.3157 7.61962 20.4627 7.76388C20.6098 7.90814 20.6924 8.10379 20.6924 8.30781C20.6924 8.51182 20.6098 8.70748 20.4627 8.85173C20.3157 8.99599 20.1163 9.07704 19.9083 9.07704Z" fill="#050103"/>
</svg>
