<svg width="16" height="16" viewBox="0 0 16 16" fill="none" xmlns="http://www.w3.org/2000/svg">
<path d="M7.63021 15.6527C11.8443 15.6527 15.2604 12.2403 15.2604 8.03093C15.2604 3.82155 11.8443 0.40918 7.63021 0.40918C3.41616 0.40918 0 3.82155 0 8.03093C0 12.2403 3.41616 15.6527 7.63021 15.6527Z" fill="#25D366"/>
<path fill-rule="evenodd" clip-rule="evenodd" d="M7.64942 11.5094H7.64753C6.88452 11.5091 6.1348 11.3188 5.46891 10.9578L3.05212 11.588L3.6989 9.2395C3.29994 8.55216 3.09 7.77251 3.09035 6.97374C3.09135 4.4749 5.13651 2.44189 7.64937 2.44189C8.86896 2.44242 10.0136 2.9144 10.8744 3.77107C11.7351 4.62769 12.2089 5.76636 12.2084 6.97731C12.2074 9.47559 10.163 11.5084 7.64942 11.5094ZM5.68649 9.99899L5.81652 10.0761C6.36322 10.4 6.9899 10.5714 7.62885 10.5717H7.63029C9.59286 10.5717 11.1902 8.97662 11.191 7.01612C11.1914 6.06607 10.8213 5.17277 10.1491 4.5007C9.47679 3.82864 8.58276 3.45834 7.63169 3.45801C5.6676 3.45801 4.07024 5.05288 4.06946 7.01324C4.06918 7.68507 4.25744 8.33935 4.61387 8.90543L4.69853 9.03996L4.33882 10.352L5.68649 9.99899ZM9.00454 7.39735C9.07437 7.43366 9.12152 7.45818 9.14166 7.49435C9.16668 7.53927 9.16668 7.75496 9.08329 8.00665C8.99982 8.25829 8.59983 8.48796 8.40744 8.51888C8.23495 8.54663 8.01666 8.5582 7.77682 8.47619C7.6314 8.42654 7.44491 8.36026 7.20603 8.24926C6.26739 7.81316 5.63306 6.83431 5.51317 6.64931C5.50477 6.63635 5.4989 6.62728 5.49562 6.62257L5.49482 6.62141C5.44183 6.54535 5.08679 6.03565 5.08679 5.50815C5.08679 5.01191 5.31334 4.75181 5.41762 4.63209C5.42476 4.62389 5.43133 4.61634 5.43722 4.60943C5.52899 4.50157 5.63747 4.47461 5.70421 4.47461C5.77095 4.47461 5.83778 4.47527 5.89611 4.47843C5.90331 4.47881 5.9108 4.47877 5.91854 4.47872C5.97688 4.47835 6.04963 4.47789 6.12138 4.66335C6.14899 4.73473 6.18939 4.84055 6.23199 4.95215C6.31815 5.17783 6.41334 5.42718 6.43008 5.46326C6.45512 5.51719 6.4718 5.58008 6.43843 5.65201C6.43342 5.66279 6.42879 5.67297 6.42436 5.6827C6.39929 5.73776 6.38086 5.77826 6.33831 5.83171C6.32158 5.85273 6.30429 5.87538 6.287 5.89804C6.25256 5.94318 6.21811 5.98831 6.18812 6.02046C6.138 6.07418 6.08582 6.13246 6.14422 6.24031C6.20263 6.34817 6.40357 6.70093 6.70122 6.9866C7.02118 7.29367 7.29927 7.42346 7.44022 7.48925C7.46775 7.50209 7.49005 7.5125 7.5064 7.52131C7.60649 7.57525 7.6649 7.56623 7.72331 7.49435C7.78172 7.42245 7.9736 7.17977 8.04033 7.07193C8.10707 6.96412 8.17385 6.98208 8.2656 7.01801C8.3574 7.054 8.84965 7.31459 8.94978 7.36851C8.96932 7.37904 8.9876 7.38854 9.00454 7.39735Z" fill="#FDFDFD"/>
</svg>
