<svg width="30" height="30" viewBox="0 0 16 16" fill="none" xmlns="http://www.w3.org/2000/svg">
<path d="M8.0295 15.6527C12.2435 15.6527 15.6597 12.2403 15.6597 8.03093C15.6597 3.82155 12.2435 0.40918 8.0295 0.40918C3.81545 0.40918 0.399292 3.82155 0.399292 8.03093C0.399292 12.2403 3.81545 15.6527 8.0295 15.6527Z" fill="url(#paint0_linear_732_3972)"/>
<path d="M6.41096 11.5876C6.18624 11.5876 6.22442 11.4934 6.14692 11.2559L5.48608 8.84098L10.5729 5.49023" fill="#C8DAEA"/>
<path d="M6.50342 11.5876C6.64215 11.5876 6.70344 11.4965 6.78088 11.3883L7.52078 10.3547L6.59785 9.55518" fill="#A9C9DD"/>
<path d="M6.63987 9.16866L9.6561 11.4909C10.0003 11.6888 10.2487 11.5863 10.3344 11.1579L11.5622 5.12876C11.6879 4.60359 11.3701 4.3654 11.0408 4.52118L3.83143 7.41805C3.33932 7.62374 3.34219 7.90984 3.74173 8.03732L5.59182 8.63906L9.87499 5.82317C10.0772 5.6954 10.2628 5.76409 10.1104 5.90496" fill="url(#paint1_linear_732_3972)"/>
<defs>
<linearGradient id="paint0_linear_732_3972" x1="6.12271" y1="1.04483" x2="2.31475" y2="9.93943" gradientUnits="userSpaceOnUse">
<stop stop-color="#37AEE2"/>
<stop offset="1" stop-color="#1E96C8"/>
</linearGradient>
<linearGradient id="paint1_linear_732_3972" x1="6.94786" y1="8.06123" x2="7.8098" y2="10.7368" gradientUnits="userSpaceOnUse">
<stop stop-color="#EFF7FC"/>
<stop offset="1" stop-color="white"/>
</linearGradient>
</defs>
</svg>
